Italic_opsz7.ufo
<glyph name="comma" format="2">
	<unicode hex="002C"/>
	<advance width="339"/>
	<outline>
		<contour>
			<point x="65" y="58" type="curve" smooth="yes"/>
			<point x="65" y="26"/>
			<point x="88" y="0"/>
			<point x="123" y="0" type="curve" smooth="yes"/>
			<point x="147" y="0"/>
			<point x="163" y="15"/>
			<point x="164" y="16" type="curve"/>
			<point x="164" y="16"/>
			<point x="164" y="16"/>
			<point x="164" y="16" type="curve"/>
			<point x="164" y="16"/>
			<point x="164" y="16"/>
			<point x="164" y="16" type="curve"/>
			<point x="164" y="-39"/>
			<point x="154" y="-103"/>
			<point x="86" y="-167" type="curve" smooth="yes"/>
			<point x="82" y="-171"/>
			<point x="79" y="-174"/>
			<point x="79" y="-179" type="curve" smooth="yes"/>
			<point x="79" y="-186"/>
			<point x="87" y="-193"/>
			<point x="93" y="-193" type="curve" smooth="yes"/>
			<point x="107" y="-193"/>
			<point x="192" y="-113"/>
			<point x="192" y="6" type="curve" smooth="yes"/>
			<point x="192" y="68"/>
			<point x="168" y="115"/>
			<point x="122" y="115" type="curve" smooth="yes"/>
			<point x="89" y="115"/>
			<point x="65" y="89"/>
		</contour>
	</outline>
</glyph>
<glyph name="period" format="2">
	<unicode hex="002E"/>
	<advance width="339"/>
	<outline>
		<contour>
			<point x="180" y="57" type="curve" smooth="yes"/>
			<point x="180" y="93"/>
			<point x="150" y="115"/>
			<point x="123" y="115" type="curve" smooth="yes"/>
			<point x="90" y="115"/>
			<point x="65" y="88"/>
			<point x="65" y="58" type="curve" smooth="yes"/>
			<point x="65" y="22"/>
			<point x="95" y="0"/>
			<point x="122" y="0" type="curve" smooth="yes"/>
			<point x="155" y="0"/>
			<point x="180" y="27"/>
		</contour>
	</outline>
</glyph>
<glyph name="slash" format="2">
	<unicode hex="002F"/>
	<advance width="1170"/>
	<outline>
		<contour>
			<point x="908" y="1412" type="line"/>
			<point x="920" y="1438"/>
			<point x="920" y="1442"/>
			<point x="920" y="1450" type="curve" smooth="yes"/>
			<point x="920" y="1482"/>
			<point x="894" y="1500"/>
			<point x="872" y="1500" type="curve" smooth="yes"/>
			<point x="838" y="1500"/>
			<point x="828" y="1476"/>
			<point x="818" y="1450" type="curve" smooth="yes"/>
			<point x="72" y="-412" type="line"/>
			<point x="60" y="-438"/>
			<point x="60" y="-442"/>
			<point x="60" y="-450" type="curve" smooth="yes"/>
			<point x="60" y="-482"/>
			<point x="86" y="-500"/>
			<point x="108" y="-500" type="curve" smooth="yes"/>
			<point x="142" y="-500"/>
			<point x="152" y="-476"/>
			<point x="162" y="-450" type="curve" smooth="yes"/>
		</contour>
	</outline>
</glyph>
<glyph name="zero" format="2">
	<unicode hex="0030"/>
	<advance width="585"/>
	<outline>
		<contour>
			<point x="562.4498125014" y="212" type="curve" smooth="yes"/>
			<point x="562.4498125014" y="376"/>
			<point x="477.4498125014" y="451"/>
			<point x="330.4498125014" y="451" type="curve" smooth="yes"/>
			<point x="179.4498125014" y="451"/>
			<point x="98.4498125014" y="373"/>
			<point x="98.4498125014" y="212" type="curve" smooth="yes"/>
			<point x="98.4498125014" y="60"/>
			<point x="175.4498125014" y="-20"/>
			<point x="330.4498125014" y="-20" type="curve" smooth="yes"/>
			<point x="482.4498125014" y="-20"/>
			<point x="562.4498125014" y="57"/>
		</contour>
		<contour>
			<point x="330.4498125014" y="8" type="curve" smooth="yes"/>
			<point x="280.4498125014" y="8"/>
			<point x="247.9323950189" y="20.470022495"/>
			<point x="226.7846600416" y="41.4773891554" type="curve" smooth="yes"/>
			<point x="187.4498125014" y="80.551151225"/>
			<point x="187.4498125014" y="149.1608"/>
			<point x="187.4498125014" y="222" type="curve" smooth="yes"/>
			<point x="187.4498125014" y="290"/>
			<point x="187.4498125014" y="353"/>
			<point x="224.4498125014" y="390" type="curve" smooth="yes"/>
			<point x="245.4498125014" y="411"/>
			<point x="278.4498125014" y="423"/>
			<point x="330.4498125014" y="423" type="curve" smooth="yes"/>
			<point x="380.4998125014" y="423"/>
			<point x="413.0323125014" y="411.3625"/>
			<point x="434.1784375014" y="391.689" type="curve" smooth="yes"/>
			<point x="473.4498125014" y="355.1525"/>
			<point x="473.4498125014" y="291"/>
			<point x="473.4498125014" y="222" type="curve" smooth="yes"/>
			<point x="473.4498125014" y="149.1608"/>
			<point x="473.4498125014" y="80.551151225"/>
			<point x="434.1149649611" y="41.4773891554" type="curve" smooth="yes"/>
			<point x="412.9672299839" y="20.470022495"/>
			<point x="380.4497625014" y="8"/>
		</contour>
	</outline>
</glyph>
<glyph name="one" format="2">
  <advance width="585"/>
  <unicode hex="0031"/>
  <outline>
    <contour>
      <point x="301.4498125013535" y="385.0" type="curve"/>
      <point x="301.4498125013535" y="83.0" type="line" smooth="yes"/>
      <point x="301.4498125013535" y="54.0"/>
      <point x="300.4498125013535" y="44.0"/>
      <point x="277.4498125013535" y="40.0" type="curve" smooth="yes"/>
      <point x="252.4498125013535" y="36.0"/>
      <point x="223.4498125013535" y="36.0"/>
      <point x="198.4498125013535" y="36.0" type="curve" smooth="yes"/>
      <point x="171.4498125013535" y="36.0"/>
      <point x="163.4498125013535" y="36.0"/>
      <point x="163.4498125013535" y="18.0" type="curve" smooth="yes"/>
      <point x="163.4498125013535" y="0.0"/>
      <point x="175.4498125013535" y="0.0"/>
      <point x="182.4498125013535" y="0.0" type="curve" smooth="yes"/>
      <point x="208.4498125013535" y="0.0"/>
      <point x="237.4498125013535" y="3.0"/>
      <point x="263.4498125013535" y="3.0" type="curve" smooth="yes"/>
      <point x="316.4498125013535" y="4.0"/>
      <point x="373.4498125013535" y="5.0"/>
      <point x="424.4498125013535" y="3.0" type="curve" smooth="yes"/>
      <point x="448.4498125013535" y="2.0"/>
      <point x="476.4498125013535" y="0.0"/>
      <point x="500.4498125013535" y="0.0" type="curve" smooth="yes"/>
      <point x="507.4498125013535" y="0.0"/>
      <point x="519.4498125013534" y="0.0"/>
      <point x="519.4498125013534" y="18.0" type="curve" smooth="yes"/>
      <point x="519.4498125013534" y="36.0"/>
      <point x="512.4498125013534" y="36.0"/>
      <point x="478.4498125013535" y="36.0" type="curve" smooth="yes"/>
      <point x="449.4498125013535" y="36.0"/>
      <point x="421.4498125013535" y="38.0"/>
      <point x="408.4498125013535" y="40.0" type="curve" smooth="yes"/>
      <point x="384.4498125013535" y="44.0"/>
      <point x="381.4498125013535" y="50.0"/>
      <point x="381.4498125013535" y="83.0" type="curve" smooth="yes"/>
      <point x="381.4498125013535" y="421.0" type="line" smooth="yes"/>
      <point x="381.4498125013535" y="439.0"/>
      <point x="381.4498125013535" y="451.0"/>
      <point x="366.4498125013535" y="451.0" type="curve" smooth="yes"/>
      <point x="363.4498125013535" y="451.0"/>
      <point x="361.4498125013535" y="450.0"/>
      <point x="353.4498125013535" y="445.0" type="curve" smooth="yes"/>
      <point x="335.4498125013535" y="435.0"/>
      <point x="290.4498125013535" y="409.0"/>
      <point x="191.4498125013535" y="408.0" type="curve" smooth="yes"/>
      <point x="165.4498125013535" y="408.0"/>
      <point x="157.4498125013535" y="408.0"/>
      <point x="157.4498125013535" y="390.0" type="curve" smooth="yes"/>
      <point x="157.4498125013535" y="372.0"/>
      <point x="166.4498125013535" y="372.0"/>
      <point x="188.4498125013535" y="372.0" type="curve" smooth="yes"/>
      <point x="194.4498125013535" y="372.0"/>
      <point x="248.4498125013535" y="372.0"/>
    </contour>
  </outline>
</glyph>
<glyph name="two" format="2">
	<unicode hex="0032"/>
	<advance width="585"/>
	<outline>
		<contour>
			<point x="134.4498125014" y="0" type="curve" smooth="yes"/>
			<point x="491.4498125014" y="0" type="line" smooth="yes"/>
			<point x="510.4498125014" y="0"/>
			<point x="517.4498125014" y="0"/>
			<point x="520.4498125014" y="11" type="curve"/>
			<point x="523.4498125014" y="18"/>
			<point x="551.4498125014" y="124"/>
			<point x="551.4498125014" y="128" type="curve" smooth="yes"/>
			<point x="551.4498125014" y="131"/>
			<point x="549.4498125014" y="142"/>
			<point x="534.4498125014" y="142" type="curve" smooth="yes"/>
			<point x="521.4498125014" y="142"/>
			<point x="519.4498125014" y="136"/>
			<point x="516.4498125014" y="126" type="curve" smooth="yes"/>
			<point x="512.4498125014" y="110"/>
			<point x="504.4498125014" y="80"/>
			<point x="493.4498125014" y="79" type="curve" smooth="yes"/>
			<point x="468.4498125014" y="77"/>
			<point x="442.4498125014" y="77"/>
			<point x="417.4498125014" y="77" type="curve" smooth="yes"/>
			<point x="236.4498125014" y="77" type="line"/>
			<point x="346.4498125014" y="137"/>
			<point x="360.4498125014" y="144"/>
			<point x="407.4498125014" y="165" type="curve" smooth="yes"/>
			<point x="481.4498125014" y="198"/>
			<point x="551.4498125014" y="230"/>
			<point x="551.4498125014" y="310" type="curve" smooth="yes"/>
			<point x="551.4498125014" y="406"/>
			<point x="453.4498125014" y="451"/>
			<point x="317.4498125014" y="451" type="curve" smooth="yes"/>
			<point x="189.4498125014" y="451"/>
			<point x="115.4498125014" y="401"/>
			<point x="115.4498125014" y="330" type="curve" smooth="yes"/>
			<point x="115.4498125014" y="295"/>
			<point x="144.4498125014" y="287"/>
			<point x="156.4498125014" y="287" type="curve" smooth="yes"/>
			<point x="172.4498125014" y="287"/>
			<point x="196.4498125014" y="299"/>
			<point x="196.4498125014" y="328" type="curve" smooth="yes"/>
			<point x="196.4498125014" y="336"/>
			<point x="194.4498125014" y="360"/>
			<point x="164.4498125014" y="367" type="curve"/>
			<point x="196.4498125014" y="411"/>
			<point x="272.4498125014" y="415"/>
			<point x="296.4498125014" y="415" type="curve" smooth="yes"/>
			<point x="386.4498125014" y="415"/>
			<point x="456.4498125014" y="378"/>
			<point x="456.4498125014" y="309" type="curve" smooth="yes"/>
			<point x="456.4498125014" y="244"/>
			<point x="389.4498125014" y="204"/>
			<point x="331.4498125014" y="169" type="curve" smooth="yes"/>
			<point x="110.4498125014" y="34" type="line" smooth="yes"/>
			<point x="103.4498125014" y="30"/>
			<point x="103.4498125014" y="23"/>
			<point x="103.4498125014" y="19" type="curve" smooth="yes"/>
			<point x="103.4498125014" y="0"/>
			<point x="112.4498125014" y="0"/>
		</contour>
	</outline>
</glyph>
<glyph name="three" format="2">
	<unicode hex="0033"/>
	<advance width="585"/>
	<outline>
		<contour>
			<point x="325.4498125014" y="-214" type="curve" smooth="yes"/>
			<point x="465.4498125014" y="-214"/>
			<point x="560.4498125014" y="-123"/>
			<point x="560.4498125014" y="-27" type="curve" smooth="yes"/>
			<point x="560.4498125014" y="57"/>
			<point x="485.4498125014" y="127"/>
			<point x="387.4498125014" y="147" type="curve"/>
			<point x="450.4498125014" y="167"/>
			<point x="529.4498125014" y="225"/>
			<point x="529.4498125014" y="316" type="curve" smooth="yes"/>
			<point x="529.4498125014" y="395"/>
			<point x="436.4498125014" y="451"/>
			<point x="327.4498125014" y="451" type="curve" smooth="yes"/>
			<point x="217.4498125014" y="451"/>
			<point x="131.4498125014" y="399"/>
			<point x="131.4498125014" y="320" type="curve" smooth="yes"/>
			<point x="131.4498125014" y="280"/>
			<point x="162.4498125014" y="268"/>
			<point x="181.4498125014" y="268" type="curve" smooth="yes"/>
			<point x="208.4498125014" y="268"/>
			<point x="231.4498125014" y="287"/>
			<point x="231.4498125014" y="318" type="curve" smooth="yes"/>
			<point x="231.4498125014" y="349"/>
			<point x="209.4498125014" y="367"/>
			<point x="183.4498125014" y="369" type="curve"/>
			<point x="224.4498125014" y="420"/>
			<point x="309.4498125014" y="422"/>
			<point x="324.4498125014" y="422" type="curve" smooth="yes"/>
			<point x="377.4498125014" y="422"/>
			<point x="434.4498125014" y="396"/>
			<point x="434.4498125014" y="316" type="curve" smooth="yes"/>
			<point x="434.4498125014" y="300"/>
			<point x="432.4498125014" y="248"/>
			<point x="396.4498125014" y="204" type="curve" smooth="yes"/>
			<point x="362.4498125014" y="164"/>
			<point x="329.4498125014" y="162"/>
			<point x="295.4498125014" y="160" type="curve" smooth="yes"/>
			<point x="279.4498125014" y="159"/>
			<point x="254.4498125014" y="158"/>
			<point x="248.4498125014" y="157" type="curve" smooth="yes"/>
			<point x="243.4498125014" y="156"/>
			<point x="238.4498125014" y="150"/>
			<point x="238.4498125014" y="143" type="curve" smooth="yes"/>
			<point x="238.4498125014" y="129"/>
			<point x="247.4498125014" y="129"/>
			<point x="267.4498125014" y="129" type="curve" smooth="yes"/>
			<point x="317.4498125014" y="129" type="line" smooth="yes"/>
			<point x="413.4498125014" y="129"/>
			<point x="455.4498125014" y="61"/>
			<point x="455.4498125014" y="-27" type="curve" smooth="yes"/>
			<point x="455.4498125014" y="-138"/>
			<point x="389.4498125014" y="-182"/>
			<point x="323.4498125014" y="-182" type="curve" smooth="yes"/>
			<point x="259.4498125014" y="-182"/>
			<point x="193.4498125014" y="-165"/>
			<point x="153.4498125014" y="-115" type="curve"/>
			<point x="183.4498125014" y="-114"/>
			<point x="208.4498125014" y="-94"/>
			<point x="208.4498125014" y="-60" type="curve" smooth="yes"/>
			<point x="208.4498125014" y="-25"/>
			<point x="180.4498125014" y="-6"/>
			<point x="154.4498125014" y="-6" type="curve" smooth="yes"/>
			<point x="138.4498125014" y="-6"/>
			<point x="100.4498125014" y="-16"/>
			<point x="100.4498125014" y="-63" type="curve" smooth="yes"/>
			<point x="100.4498125014" y="-156"/>
			<point x="204.4498125014" y="-214"/>
		</contour>
	</outline>
</glyph>
<glyph name="four" format="2">
	<unicode hex="0034"/>
	<advance width="1170"/>
	<outline>
		<contour>
			<point x="472.8996250027" y="-388" type="curve" smooth="yes"/>
			<point x="514.8996250027" y="-388"/>
			<point x="564.8996250027" y="-382"/>
			<point x="606.8996250027" y="-382" type="curve" smooth="yes"/>
			<point x="648.8996250027" y="-382"/>
			<point x="694.8996250027" y="-380"/>
			<point x="736.8996250027" y="-380" type="curve" smooth="yes"/>
			<point x="766.8996250027" y="-380"/>
			<point x="818.8996250027" y="-382"/>
			<point x="870.8996250027" y="-384" type="curve" smooth="yes"/>
			<point x="922.8996250027" y="-386"/>
			<point x="972.8996250027" y="-388"/>
			<point x="1000.8996250027" y="-388" type="curve" smooth="yes"/>
			<point x="1034.8996250027" y="-388"/>
			<point x="1034.8996250027" y="-364"/>
			<point x="1034.8996250027" y="-352" type="curve" smooth="yes"/>
			<point x="1034.8996250027" y="-316"/>
			<point x="1016.8996250027" y="-316"/>
			<point x="976.8996250027" y="-316" type="curve" smooth="yes"/>
			<point x="904.8996250027" y="-316"/>
			<point x="864.8996250027" y="-310"/>
			<point x="862.8996250027" y="-310" type="curve"/>
			<point x="820.8996250027" y="-302"/>
			<point x="820.8996250027" y="-282"/>
			<point x="820.8996250027" y="-226" type="curve" smooth="yes"/>
			<point x="820.8996250027" y="0" type="line"/>
			<point x="982.8996250027" y="0" type="line" smooth="yes"/>
			<point x="1024.8996250027" y="0"/>
			<point x="1042.8996250027" y="0"/>
			<point x="1042.8996250027" y="36" type="curve" smooth="yes"/>
			<point x="1042.8996250027" y="72"/>
			<point x="1024.8996250027" y="72"/>
			<point x="982.8996250027" y="72" type="curve" smooth="yes"/>
			<point x="820.8996250027" y="72" type="line"/>
			<point x="820.8996250027" y="862" type="line" smooth="yes"/>
			<point x="820.8996250027" y="910"/>
			<point x="820.8996250027" y="922"/>
			<point x="776.8996250027" y="922" type="curve" smooth="yes"/>
			<point x="742.8996250027" y="922"/>
			<point x="740.8996250027" y="918"/>
			<point x="718.8996250027" y="892" type="curve" smooth="yes"/>
			<point x="84.8996250027" y="100" type="line" smooth="yes"/>
			<point x="62.8996250027" y="74"/>
			<point x="62.8996250027" y="70"/>
			<point x="62.8996250027" y="46" type="curve" smooth="yes"/>
			<point x="62.8996250027" y="0"/>
			<point x="74.8996250027" y="0"/>
			<point x="124.8996250027" y="0" type="curve" smooth="yes"/>
			<point x="652.8996250027" y="0" type="line"/>
			<point x="652.8996250027" y="-226" type="line" smooth="yes"/>
			<point x="652.8996250027" y="-304"/>
			<point x="652.8996250027" y="-316"/>
			<point x="506.8996250027" y="-316" type="curve" smooth="yes"/>
			<point x="506.8996250027" y="-316"/>
			<point x="506.8996250027" y="-316"/>
			<point x="506.8996250027" y="-316" type="curve" smooth="yes"/>
			<point x="454.8996250027" y="-316"/>
			<point x="438.8996250027" y="-316"/>
			<point x="438.8996250027" y="-352" type="curve" smooth="yes"/>
			<point x="438.8996250027" y="-364"/>
			<point x="438.8996250027" y="-388"/>
		</contour>
		<contour>
			<point x="666.8996250027" y="72" type="line"/>
			<point x="140.8996250027" y="72" type="line"/>
			<point x="666.8996250027" y="730" type="line"/>
		</contour>
	</outline>
</glyph>
<glyph name="five" format="2">
	<unicode hex="0035"/>
	<advance width="585"/>
	<outline>
		<contour>
			<point x="311.4498125014" y="-214" type="curve" smooth="yes"/>
			<point x="440.4498125014" y="-214"/>
			<point x="551.4498125014" y="-120"/>
			<point x="551.4498125014" y="1" type="curve" smooth="yes"/>
			<point x="551.4498125014" y="112"/>
			<point x="463.4498125014" y="212"/>
			<point x="342.4498125014" y="212" type="curve" smooth="yes"/>
			<point x="292.4498125014" y="212"/>
			<point x="240.4498125014" y="198"/>
			<point x="201.4498125014" y="164" type="curve"/>
			<point x="201.4498125014" y="347" type="line"/>
			<point x="204.4498125014" y="346"/>
			<point x="251.4498125014" y="334"/>
			<point x="299.4498125014" y="334" type="curve" smooth="yes"/>
			<point x="339.4498125014" y="334"/>
			<point x="382.4498125014" y="342"/>
			<point x="425.4498125014" y="365" type="curve" smooth="yes"/>
			<point x="455.4498125014" y="380"/>
			<point x="508.4498125014" y="419"/>
			<point x="508.4498125014" y="437" type="curve" smooth="yes"/>
			<point x="508.4498125014" y="449"/>
			<point x="499.4498125014" y="450"/>
			<point x="496.4498125014" y="450" type="curve" smooth="yes"/>
			<point x="495.4498125014" y="450"/>
			<point x="493.4498125014" y="450"/>
			<point x="483.4498125014" y="446" type="curve" smooth="yes"/>
			<point x="426.4498125014" y="426"/>
			<point x="376.4498125014" y="420"/>
			<point x="336.4498125014" y="420" type="curve" smooth="yes"/>
			<point x="297.4498125014" y="420"/>
			<point x="244.4498125014" y="426"/>
			<point x="189.4498125014" y="447" type="curve" smooth="yes"/>
			<point x="181.4498125014" y="450"/>
			<point x="179.4498125014" y="450"/>
			<point x="177.4498125014" y="450" type="curve" smooth="yes"/>
			<point x="165.4498125014" y="450"/>
			<point x="165.4498125014" y="441"/>
			<point x="165.4498125014" y="423" type="curve" smooth="yes"/>
			<point x="165.4498125014" y="139" type="line" smooth="yes"/>
			<point x="165.4498125014" y="120"/>
			<point x="165.4498125014" y="109"/>
			<point x="181.4498125014" y="109" type="curve" smooth="yes"/>
			<point x="190.4498125014" y="109"/>
			<point x="192.4498125014" y="113"/>
			<point x="198.4498125014" y="121" type="curve" smooth="yes"/>
			<point x="240.4498125014" y="175"/>
			<point x="303.4498125014" y="184"/>
			<point x="340.4498125014" y="184" type="curve" smooth="yes"/>
			<point x="384.4498125014" y="184"/>
			<point x="414.4498125014" y="161"/>
			<point x="434.4498125014" y="129" type="curve" smooth="yes"/>
			<point x="455.4498125014" y="94"/>
			<point x="458.4498125014" y="46"/>
			<point x="458.4498125014" y="4" type="curve" smooth="yes"/>
			<point x="458.4498125014" y="-63"/>
			<point x="446.4498125014" y="-100"/>
			<point x="422.4498125014" y="-130" type="curve" smooth="yes"/>
			<point x="393.4498125014" y="-166"/>
			<point x="351.4498125014" y="-182"/>
			<point x="309.4498125014" y="-182" type="curve" smooth="yes"/>
			<point x="240.4498125014" y="-182"/>
			<point x="176.4498125014" y="-144"/>
			<point x="152.4498125014" y="-84" type="curve"/>
			<point x="207.4498125014" y="-84"/>
			<point x="207.4498125014" y="-41"/>
			<point x="207.4498125014" y="-36" type="curve" smooth="yes"/>
			<point x="207.4498125014" y="0"/>
			<point x="178.4498125014" y="14"/>
			<point x="158.4498125014" y="14" type="curve" smooth="yes"/>
			<point x="146.4498125014" y="14"/>
			<point x="109.4498125014" y="7"/>
			<point x="109.4498125014" y="-38" type="curve" smooth="yes"/>
			<point x="109.4498125014" y="-131"/>
			<point x="195.4498125014" y="-214"/>
		</contour>
	</outline>
</glyph>
<glyph name="six" format="2">
	<unicode hex="0036"/>
	<advance width="1170"/>
	<outline>
		<contour>
			<point x="218" y="652" type="curve"/>
			<point x="218" y="810"/>
			<point x="232" y="956"/>
			<point x="302" y="1074" type="curve" smooth="yes"/>
			<point x="366" y="1184"/>
			<point x="474" y="1270"/>
			<point x="616" y="1270" type="curve" smooth="yes"/>
			<point x="652" y="1270"/>
			<point x="750" y="1264"/>
			<point x="798" y="1198" type="curve"/>
			<point x="716" y="1190"/>
			<point x="708" y="1130"/>
			<point x="708" y="1106" type="curve" smooth="yes"/>
			<point x="708" y="1054"/>
			<point x="746" y="1014"/>
			<point x="800" y="1014" type="curve" smooth="yes"/>
			<point x="854" y="1014"/>
			<point x="894" y="1050"/>
			<point x="894" y="1110" type="curve" smooth="yes"/>
			<point x="894" y="1234"/>
			<point x="796" y="1328"/>
			<point x="614" y="1328" type="curve" smooth="yes"/>
			<point x="318" y="1328"/>
			<point x="30" y="1060"/>
			<point x="30" y="634" type="curve" smooth="yes"/>
			<point x="30" y="122"/>
			<point x="270" y="-40"/>
			<point x="496" y="-40" type="curve" smooth="yes"/>
			<point x="586" y="-40"/>
			<point x="702" y="-22"/>
			<point x="816" y="90" type="curve" smooth="yes"/>
			<point x="924" y="198"/>
			<point x="950" y="298"/>
			<point x="950" y="408" type="curve" smooth="yes"/>
			<point x="950" y="535"/>
			<point x="900" y="643"/>
			<point x="823" y="721" type="curve" smooth="yes"/>
			<point x="742" y="802"/>
			<point x="631" y="850"/>
			<point x="514" y="850" type="curve" smooth="yes"/>
			<point x="346" y="850"/>
			<point x="256" y="734"/>
		</contour>
		<contour>
			<point x="494" y="24" type="curve" smooth="yes"/>
			<point x="390" y="24"/>
			<point x="322" y="84"/>
			<point x="284" y="148" type="curve" smooth="yes"/>
			<point x="234" y="228"/>
			<point x="224" y="354"/>
			<point x="224" y="452" type="curve" smooth="yes"/>
			<point x="224" y="630"/>
			<point x="330" y="794"/>
			<point x="506" y="794" type="curve" smooth="yes"/>
			<point x="614" y="794"/>
			<point x="666" y="744"/>
			<point x="704" y="690" type="curve" smooth="yes"/>
			<point x="760" y="614"/>
			<point x="762" y="530"/>
			<point x="762" y="408" type="curve" smooth="yes"/>
			<point x="762" y="304"/>
			<point x="762" y="216"/>
			<point x="712" y="140" type="curve" smooth="yes"/>
			<point x="656" y="56"/>
			<point x="586" y="24"/>
		</contour>
	</outline>
</glyph>
<glyph name="seven" format="2">
  <advance width="585"/>
  <unicode hex="0037"/>
  <outline>
    <contour>
      <point x="299.4498125013535" y="-214.0" type="curve" smooth="yes"/>
      <point x="346.4498125013535" y="-214.0"/>
      <point x="346.4498125013535" y="-170.0"/>
      <point x="346.4498125013535" y="-155.0" type="curve" smooth="yes"/>
      <point x="346.4498125013535" y="-129.0" type="line" smooth="yes"/>
      <point x="346.4498125013535" y="-44.0"/>
      <point x="353.4498125013535" y="19.0"/>
      <point x="365.4498125013535" y="69.0" type="curve" smooth="yes"/>
      <point x="387.4498125013535" y="155.0"/>
      <point x="423.4498125013535" y="199.0"/>
      <point x="462.4498125013535" y="247.0" type="curve" smooth="yes"/>
      <point x="502.4498125013535" y="295.0"/>
      <point x="541.4498125013534" y="344.0"/>
      <point x="581.4498125013534" y="392.0" type="curve" smooth="yes"/>
      <point x="590.4498125013534" y="403.0"/>
      <point x="591.4498125013534" y="404.0"/>
      <point x="591.4498125013534" y="413.0" type="curve" smooth="yes"/>
      <point x="591.4498125013534" y="431.0"/>
      <point x="582.4498125013534" y="431.0"/>
      <point x="561.4498125013534" y="431.0" type="curve" smooth="yes"/>
      <point x="317.4498125013535" y="431.0" type="line" smooth="yes"/>
      <point x="296.4498125013535" y="431.0"/>
      <point x="270.4498125013535" y="432.0"/>
      <point x="249.4498125013535" y="433.0" type="curve" smooth="yes"/>
      <point x="227.4498125013535" y="435.0"/>
      <point x="198.4498125013535" y="436.0"/>
      <point x="185.4498125013535" y="444.0" type="curve"/>
      <point x="185.4498125013535" y="450.0"/>
      <point x="185.4498125013535" y="463.0"/>
      <point x="168.4498125013535" y="463.0" type="curve" smooth="yes"/>
      <point x="154.4498125013535" y="463.0"/>
      <point x="152.4498125013535" y="455.0"/>
      <point x="149.4498125013535" y="439.0" type="curve" smooth="yes"/>
      <point x="144.4498125013535" y="416.0"/>
      <point x="115.44981250135352" y="275.0"/>
      <point x="115.44981250135352" y="265.0" type="curve" smooth="yes"/>
      <point x="115.44981250135352" y="255.0"/>
      <point x="122.44981250135352" y="250.0"/>
      <point x="132.4498125013535" y="250.0" type="curve" smooth="yes"/>
      <point x="146.4498125013535" y="250.0"/>
      <point x="148.4498125013535" y="258.0"/>
      <point x="150.4498125013535" y="268.0" type="curve" smooth="yes"/>
      <point x="157.4498125013535" y="301.0"/>
      <point x="165.4498125013535" y="342.0"/>
      <point x="177.4498125013535" y="344.0" type="curve"/>
      <point x="200.4498125013535" y="346.0"/>
      <point x="248.4498125013535" y="347.0"/>
      <point x="273.4498125013535" y="347.0" type="curve" smooth="yes"/>
      <point x="500.4498125013535" y="347.0" type="line"/>
      <point x="472.4498125013535" y="313.0"/>
      <point x="444.4498125013535" y="278.0"/>
      <point x="416.4498125013535" y="244.0" type="curve" smooth="yes"/>
      <point x="364.4498125013535" y="181.0"/>
      <point x="321.4498125013535" y="112.0"/>
      <point x="292.4498125013535" y="37.0" type="curve" smooth="yes"/>
      <point x="267.4498125013535" y="-25.0"/>
      <point x="253.4498125013535" y="-91.0"/>
      <point x="253.4498125013535" y="-159.0" type="curve" smooth="yes"/>
      <point x="253.4498125013535" y="-204.0"/>
      <point x="277.4498125013535" y="-214.0"/>
    </contour>
  </outline>
</glyph>
<glyph name="eight" format="2">
	<unicode hex="0038"/>
	<advance width="1170"/>
	<outline>
		<contour>
			<point x="550.8996250027" y="-40" type="curve" smooth="yes"/>
			<point x="798.8996250027" y="-40"/>
			<point x="1012.8996250027" y="116"/>
			<point x="1012.8996250027" y="338" type="curve" smooth="yes"/>
			<point x="1012.8996250027" y="532"/>
			<point x="852.8996250027" y="628"/>
			<point x="804.8996250027" y="656" type="curve" smooth="yes"/>
			<point x="766.8996250027" y="678"/>
			<point x="730.8996250027" y="700"/>
			<point x="692.8996250027" y="722" type="curve"/>
			<point x="838.8996250027" y="792"/>
			<point x="950.8996250027" y="886"/>
			<point x="950.8996250027" y="1030" type="curve" smooth="yes"/>
			<point x="950.8996250027" y="1226"/>
			<point x="744.8996250027" y="1328"/>
			<point x="554.8996250027" y="1328" type="curve" smooth="yes"/>
			<point x="336.8996250027" y="1328"/>
			<point x="154.8996250027" y="1186"/>
			<point x="154.8996250027" y="996" type="curve" smooth="yes"/>
			<point x="154.8996250027" y="902"/>
			<point x="200.8996250027" y="832"/>
			<point x="236.8996250027" y="792" type="curve" smooth="yes"/>
			<point x="266.8996250027" y="760"/>
			<point x="268.8996250027" y="758"/>
			<point x="406.8996250027" y="672" type="curve"/>
			<point x="250.8996250027" y="610"/>
			<point x="92.8996250027" y="492"/>
			<point x="92.8996250027" y="306" type="curve" smooth="yes"/>
			<point x="92.8996250027" y="80"/>
			<point x="330.8996250027" y="-40"/>
		</contour>
		<contour>
			<point x="554.8996250027" y="24" type="curve" smooth="yes"/>
			<point x="370.8996250027" y="24"/>
			<point x="212.8996250027" y="140"/>
			<point x="212.8996250027" y="306" type="curve" smooth="yes"/>
			<point x="212.8996250027" y="482"/>
			<point x="368.8996250027" y="592"/>
			<point x="470.8996250027" y="636" type="curve"/>
			<point x="564.8996250027" y="580"/>
			<point x="660.8996250027" y="526"/>
			<point x="754.8996250027" y="470" type="curve" smooth="yes"/>
			<point x="788.8996250027" y="450"/>
			<point x="892.8996250027" y="388"/>
			<point x="892.8996250027" y="270" type="curve" smooth="yes"/>
			<point x="892.8996250027" y="116"/>
			<point x="724.8996250027" y="24"/>
		</contour>
		<contour>
			<point x="630.8996250027" y="758" type="curve"/>
			<point x="554.8996250027" y="802"/>
			<point x="476.8996250027" y="848"/>
			<point x="400.8996250027" y="892" type="curve"/>
			<point x="336.8996250027" y="930"/>
			<point x="258.8996250027" y="976"/>
			<point x="258.8996250027" y="1068" type="curve" smooth="yes"/>
			<point x="258.8996250027" y="1202"/>
			<point x="410.8996250027" y="1270"/>
			<point x="550.8996250027" y="1270" type="curve" smooth="yes"/>
			<point x="708.8996250027" y="1270"/>
			<point x="846.8996250027" y="1172"/>
			<point x="846.8996250027" y="1030" type="curve" smooth="yes"/>
			<point x="846.8996250027" y="874"/>
			<point x="688.8996250027" y="788"/>
		</contour>
	</outline>
</glyph>
<glyph name="nine" format="2">
	<unicode hex="0039"/>
	<advance width="1170"/>
	<outline>
		<contour>
			<point x="762" y="232" type="curve"/>
			<point x="762" y="86"/>
			<point x="754" y="-66"/>
			<point x="680" y="-188" type="curve" smooth="yes"/>
			<point x="630" y="-272"/>
			<point x="536" y="-364"/>
			<point x="392" y="-364" type="curve" smooth="yes"/>
			<point x="318" y="-364"/>
			<point x="240" y="-354"/>
			<point x="188" y="-302" type="curve"/>
			<point x="260" y="-290"/>
			<point x="272" y="-242"/>
			<point x="272" y="-210" type="curve" smooth="yes"/>
			<point x="272" y="-158"/>
			<point x="234" y="-118"/>
			<point x="180" y="-118" type="curve" smooth="yes"/>
			<point x="126" y="-118"/>
			<point x="86" y="-154"/>
			<point x="86" y="-214" type="curve" smooth="yes"/>
			<point x="86" y="-344"/>
			<point x="194" y="-428"/>
			<point x="394" y="-428" type="curve" smooth="yes"/>
			<point x="680" y="-428"/>
			<point x="950" y="-164"/>
			<point x="950" y="250" type="curve" smooth="yes"/>
			<point x="950" y="722"/>
			<point x="736" y="902"/>
			<point x="496" y="902" type="curve" smooth="yes"/>
			<point x="420" y="902"/>
			<point x="290" y="892"/>
			<point x="166" y="774" type="curve" smooth="yes"/>
			<point x="110" y="718"/>
			<point x="30" y="638"/>
			<point x="30" y="468" type="curve" smooth="yes"/>
			<point x="30" y="390"/>
			<point x="44" y="272"/>
			<point x="152" y="168" type="curve" smooth="yes"/>
			<point x="224" y="100"/>
			<point x="310" y="36"/>
			<point x="466" y="36" type="curve" smooth="yes"/>
			<point x="660" y="36"/>
			<point x="744" y="194"/>
		</contour>
		<contour>
			<point x="474" y="92" type="curve" smooth="yes"/>
			<point x="378" y="92"/>
			<point x="316" y="132"/>
			<point x="268" y="204" type="curve" smooth="yes"/>
			<point x="222" y="272"/>
			<point x="218" y="348"/>
			<point x="218" y="466" type="curve" smooth="yes"/>
			<point x="218" y="584"/>
			<point x="220" y="662"/>
			<point x="278" y="738" type="curve" smooth="yes"/>
			<point x="316" y="786"/>
			<point x="372" y="844"/>
			<point x="496" y="844" type="curve" smooth="yes"/>
			<point x="638" y="844"/>
			<point x="700" y="728"/>
			<point x="712" y="704" type="curve" smooth="yes"/>
			<point x="742" y="642"/>
			<point x="756" y="542"/>
			<point x="756" y="428" type="curve" smooth="yes"/>
			<point x="756" y="246"/>
			<point x="644" y="92"/>
		</contour>
	</outline>
</glyph>
<glyph name="less" format="2">
	<unicode hex="003C"/>
	<advance width="892"/>
	<outline>
		<contour>
			<point x="800.4498125014" y="526" type="line" smooth="yes"/>
			<point x="812.4498125014" y="532"/>
			<point x="822.4498125014" y="539"/>
			<point x="822.4498125014" y="552" type="curve" smooth="yes"/>
			<point x="822.4498125014" y="566"/>
			<point x="811.4498125014" y="577"/>
			<point x="797.4498125014" y="577" type="curve" smooth="yes"/>
			<point x="796.4498125014" y="577"/>
			<point x="791.4498125014" y="577"/>
			<point x="779.4498125014" y="571" type="curve" smooth="yes"/>
			<point x="168.4498125014" y="277" type="line" smooth="yes"/>
			<point x="156.4498125014" y="271"/>
			<point x="146.4498125014" y="264"/>
			<point x="146.4498125014" y="251" type="curve" smooth="yes"/>
			<point x="146.4498125014" y="235"/>
			<point x="157.4498125014" y="230"/>
			<point x="167.4498125014" y="225" type="curve" smooth="yes"/>
			<point x="777.4498125014" y="-69" type="line" smooth="yes"/>
			<point x="791.4498125014" y="-76"/>
			<point x="795.4498125014" y="-76"/>
			<point x="797.4498125014" y="-76" type="curve" smooth="yes"/>
			<point x="811.4498125014" y="-76"/>
			<point x="822.4498125014" y="-65"/>
			<point x="822.4498125014" y="-51" type="curve" smooth="yes"/>
			<point x="822.4498125014" y="-36"/>
			<point x="810.4498125014" y="-30"/>
			<point x="801.4498125014" y="-26" type="curve" smooth="yes"/>
			<point x="227.4498125014" y="250" type="line"/>
		</contour>
	</outline>
</glyph>
<glyph name="greater" format="2">
	<unicode hex="003E"/>
	<advance width="892"/>
	<outline>
		<contour>
			<point x="800.4498125014" y="224" type="line" smooth="yes"/>
			<point x="812.4498125014" y="230"/>
			<point x="822.4498125014" y="237"/>
			<point x="822.4498125014" y="250" type="curve" smooth="yes"/>
			<point x="822.4498125014" y="266"/>
			<point x="811.4498125014" y="271"/>
			<point x="801.4498125014" y="276" type="curve" smooth="yes"/>
			<point x="191.4498125014" y="570" type="line" smooth="yes"/>
			<point x="177.4498125014" y="577"/>
			<point x="173.4498125014" y="577"/>
			<point x="171.4498125014" y="577" type="curve" smooth="yes"/>
			<point x="157.4498125014" y="577"/>
			<point x="146.4498125014" y="566"/>
			<point x="146.4498125014" y="552" type="curve" smooth="yes"/>
			<point x="146.4498125014" y="537"/>
			<point x="158.4498125014" y="531"/>
			<point x="167.4498125014" y="527" type="curve" smooth="yes"/>
			<point x="741.4498125014" y="251" type="line"/>
			<point x="168.4498125014" y="-25" type="line" smooth="yes"/>
			<point x="156.4498125014" y="-31"/>
			<point x="146.4498125014" y="-38"/>
			<point x="146.4498125014" y="-51" type="curve" smooth="yes"/>
			<point x="146.4498125014" y="-65"/>
			<point x="157.4498125014" y="-76"/>
			<point x="171.4498125014" y="-76" type="curve" smooth="yes"/>
			<point x="172.4498125014" y="-76"/>
			<point x="177.4498125014" y="-76"/>
			<point x="189.4498125014" y="-70" type="curve" smooth="yes"/>
		</contour>
	</outline>
</glyph>
<glyph name="A" format="2">
	<unicode hex="0041"/>
	<advance width="1718"/>
	<outline>
		<contour>
			<point x="1106" y="456" type="line"/>
			<point x="1114" y="403"/>
			<point x="1122" y="349"/>
			<point x="1130" y="296" type="curve"/>
			<point x="1138" y="239"/>
			<point x="1146" y="181"/>
			<point x="1154" y="124" type="curve"/>
			<point x="1146" y="104"/>
			<point x="1134" y="72"/>
			<point x="1016" y="72" type="curve" smooth="yes"/>
			<point x="992" y="72"/>
			<point x="964" y="72"/>
			<point x="964" y="28" type="curve" smooth="yes"/>
			<point x="964" y="20"/>
			<point x="970" y="0"/>
			<point x="996" y="0" type="curve" smooth="yes"/>
			<point x="1054" y="0"/>
			<point x="1196" y="8"/>
			<point x="1254" y="8" type="curve" smooth="yes"/>
			<point x="1390" y="8"/>
			<point x="1414" y="0"/>
			<point x="1486" y="0" type="curve" smooth="yes"/>
			<point x="1512" y="0"/>
			<point x="1526" y="16"/>
			<point x="1526" y="42" type="curve" smooth="yes"/>
			<point x="1526" y="72"/>
			<point x="1502" y="72"/>
			<point x="1470" y="72" type="curve" smooth="yes"/>
			<point x="1354" y="72"/>
			<point x="1350" y="88"/>
			<point x="1344" y="136" type="curve" smooth="yes"/>
			<point x="1168" y="1370" type="line" smooth="yes"/>
			<point x="1162" y="1412"/>
			<point x="1158" y="1426"/>
			<point x="1120" y="1426" type="curve" smooth="yes"/>
			<point x="1082" y="1426"/>
			<point x="1070" y="1408"/>
			<point x="1052" y="1380" type="curve" smooth="yes"/>
			<point x="318" y="240" type="line" smooth="yes"/>
			<point x="248" y="132"/>
			<point x="184" y="80"/>
			<point x="66" y="72" type="curve" smooth="yes"/>
			<point x="46" y="70"/>
			<point x="20" y="70"/>
			<point x="20" y="30" type="curve" smooth="yes"/>
			<point x="20" y="8"/>
			<point x="38" y="0"/>
			<point x="48" y="0" type="curve" smooth="yes"/>
			<point x="100" y="0"/>
			<point x="166" y="8"/>
			<point x="220" y="8" type="curve" smooth="yes"/>
			<point x="284" y="8"/>
			<point x="366" y="0"/>
			<point x="426" y="0" type="curve" smooth="yes"/>
			<point x="436" y="0"/>
			<point x="466" y="0"/>
			<point x="466" y="44" type="curve" smooth="yes"/>
			<point x="466" y="70"/>
			<point x="440" y="72"/>
			<point x="432" y="72" type="curve"/>
			<point x="416" y="74"/>
			<point x="344" y="78"/>
			<point x="344" y="132" type="curve" smooth="yes"/>
			<point x="344" y="156"/>
			<point x="364" y="190"/>
			<point x="374" y="208" type="curve"/>
			<point x="534" y="456" type="line"/>
			<point x="534" y="456"/>
			<point x="534" y="456"/>
			<point x="534" y="456" type="curve"/>
		</contour>
		<contour>
			<point x="582" y="528" type="line"/>
			<point x="1002" y="1182" type="line"/>
			<point x="1096" y="528" type="line"/>
		</contour>
	</outline>
</glyph>
<glyph name="B" format="2">
	<unicode hex="0042"/>
	<advance width="1726"/>
	<outline>
		<contour>
			<point x="1478" y="428" type="curve" smooth="yes"/>
			<point x="1478" y="570"/>
			<point x="1348" y="692"/>
			<point x="1136" y="714" type="curve"/>
			<point x="1378" y="758"/>
			<point x="1580" y="910"/>
			<point x="1580" y="1082" type="curve" smooth="yes"/>
			<point x="1580" y="1234"/>
			<point x="1426" y="1366"/>
			<point x="1166" y="1366" type="curve" smooth="yes"/>
			<point x="438" y="1366" type="line" smooth="yes"/>
			<point x="400" y="1366"/>
			<point x="374" y="1366"/>
			<point x="374" y="1322" type="curve" smooth="yes"/>
			<point x="374" y="1294"/>
			<point x="398" y="1294"/>
			<point x="438" y="1294" type="curve" smooth="yes"/>
			<point x="440" y="1294"/>
			<point x="478" y="1294"/>
			<point x="514" y="1290" type="curve" smooth="yes"/>
			<point x="556" y="1286"/>
			<point x="560" y="1282"/>
			<point x="560" y="1262" type="curve" smooth="yes"/>
			<point x="560" y="1258"/>
			<point x="560" y="1248"/>
			<point x="552" y="1218" type="curve" smooth="yes"/>
			<point x="286" y="156" type="line" smooth="yes"/>
			<point x="268" y="88"/>
			<point x="264" y="72"/>
			<point x="110" y="72" type="curve" smooth="yes"/>
			<point x="76" y="72"/>
			<point x="50" y="72"/>
			<point x="50" y="30" type="curve" smooth="yes"/>
			<point x="50" y="0"/>
			<point x="74" y="0"/>
			<point x="110" y="0" type="curve" smooth="yes"/>
			<point x="884" y="0" type="line" smooth="yes"/>
			<point x="1220" y="0"/>
			<point x="1478" y="230"/>
		</contour>
		<contour>
			<point x="1384" y="1084" type="curve" smooth="yes"/>
			<point x="1384" y="922"/>
			<point x="1202" y="738"/>
			<point x="934" y="738" type="curve" smooth="yes"/>
			<point x="606" y="738" type="line"/>
			<point x="728" y="1226" type="line" smooth="yes"/>
			<point x="744" y="1288"/>
			<point x="746" y="1294"/>
			<point x="830" y="1294" type="curve" smooth="yes"/>
			<point x="1134" y="1294" type="line" smooth="yes"/>
			<point x="1338" y="1294"/>
			<point x="1384" y="1160"/>
		</contour>
		<contour>
			<point x="1276" y="442" type="curve" smooth="yes"/>
			<point x="1276" y="244"/>
			<point x="1074" y="72"/>
			<point x="832" y="72" type="curve" smooth="yes"/>
			<point x="484" y="72" type="line" smooth="yes"/>
			<point x="442" y="72"/>
			<point x="440" y="80"/>
			<point x="452" y="126" type="curve" smooth="yes"/>
			<point x="592" y="682" type="line"/>
			<point x="1016" y="682" type="line" smooth="yes"/>
			<point x="1204" y="682"/>
			<point x="1276" y="558"/>
		</contour>
	</outline>
</glyph>
<glyph name="C" format="2">
	<unicode hex="0043"/>
	<advance width="819"/>
	<outline>
		<contour>
			<point x="23" y="262" type="curve" smooth="yes"/>
			<point x="23" y="99"/>
			<point x="151" y="-20"/>
			<point x="330" y="-20" type="curve" smooth="yes"/>
			<point x="384" y="-20"/>
			<point x="480" y="-9"/>
			<point x="583" y="78" type="curve" smooth="yes"/>
			<point x="662" y="145"/>
			<point x="684" y="232"/>
			<point x="684" y="240" type="curve" smooth="yes"/>
			<point x="684" y="253"/>
			<point x="672" y="253"/>
			<point x="667" y="253" type="curve" smooth="yes"/>
			<point x="654" y="253"/>
			<point x="652" y="248"/>
			<point x="649" y="237" type="curve" smooth="yes"/>
			<point x="633.11578" y="183.92346"/>
			<point x="602.3722286164" y="138.8019155892"/>
			<point x="563.6309888333" y="103.4380017888" type="curve" smooth="yes"/>
			<point x="502.3741908716" y="47.5213575376"/>
			<point x="421.12218" y="16"/>
			<point x="347" y="16" type="curve" smooth="yes"/>
			<point x="241" y="16"/>
			<point x="123" y="73"/>
			<point x="123" y="231" type="curve" smooth="yes"/>
			<point x="123" y="260"/>
			<point x="130" y="418"/>
			<point x="245" y="544" type="curve" smooth="yes"/>
			<point x="314" y="621"/>
			<point x="419" y="667"/>
			<point x="514" y="667" type="curve" smooth="yes"/>
			<point x="630" y="667"/>
			<point x="698" y="583"/>
			<point x="698" y="471" type="curve" smooth="yes"/>
			<point x="698" y="443"/>
			<point x="695" y="436"/>
			<point x="695" y="430" type="curve" smooth="yes"/>
			<point x="695" y="417"/>
			<point x="708" y="417"/>
			<point x="713" y="417" type="curve" smooth="yes"/>
			<point x="729" y="417"/>
			<point x="729" y="420"/>
			<point x="734" y="439" type="curve" smooth="yes"/>
			<point x="796" y="690" type="line"/>
			<point x="796" y="690"/>
			<point x="796" y="690"/>
			<point x="796" y="690" type="curve"/>
			<point x="796" y="695"/>
			<point x="793" y="703"/>
			<point x="783" y="703" type="curve" smooth="yes"/>
			<point x="776" y="703"/>
			<point x="774" y="701"/>
			<point x="765" y="691" type="curve" smooth="yes"/>
			<point x="692" y="614" type="line"/>
			<point x="692" y="614"/>
			<point x="692" y="614"/>
			<point x="692" y="614" type="curve"/>
			<point x="692" y="614"/>
			<point x="692" y="614"/>
			<point x="692" y="614" type="curve"/>
			<point x="683" y="626"/>
			<point x="627" y="703"/>
			<point x="504" y="703" type="curve" smooth="yes"/>
			<point x="261" y="703"/>
			<point x="23" y="488"/>
		</contour>
	</outline>
</glyph>
<glyph name="D" format="2">
	<unicode hex="0044"/>
	<advance width="1868"/>
	<outline>
		<contour>
			<point x="1754.8996250027" y="844" type="curve" smooth="yes"/>
			<point x="1754.8996250027" y="1136"/>
			<point x="1552.8996250027" y="1366"/>
			<point x="1226.8996250027" y="1366" type="curve" smooth="yes"/>
			<point x="498.8996250027" y="1366" type="line" smooth="yes"/>
			<point x="458.8996250027" y="1366"/>
			<point x="434.8996250027" y="1366"/>
			<point x="434.8996250027" y="1322" type="curve" smooth="yes"/>
			<point x="434.8996250027" y="1294"/>
			<point x="456.8996250027" y="1294"/>
			<point x="500.8996250027" y="1294" type="curve" smooth="yes"/>
			<point x="532.8996250027" y="1294"/>
			<point x="540.8996250027" y="1294"/>
			<point x="576.8996250027" y="1290" type="curve" smooth="yes"/>
			<point x="616.8996250027" y="1286"/>
			<point x="620.8996250027" y="1282"/>
			<point x="620.8996250027" y="1262" type="curve" smooth="yes"/>
			<point x="620.8996250027" y="1258"/>
			<point x="620.8996250027" y="1248"/>
			<point x="612.8996250027" y="1218" type="curve" smooth="yes"/>
			<point x="346.8996250027" y="156" type="line" smooth="yes"/>
			<point x="330.8996250027" y="88"/>
			<point x="326.8996250027" y="72"/>
			<point x="170.8996250027" y="72" type="curve" smooth="yes"/>
			<point x="134.8996250027" y="72"/>
			<point x="110.8996250027" y="72"/>
			<point x="110.8996250027" y="28" type="curve" smooth="yes"/>
			<point x="110.8996250027" y="0"/>
			<point x="134.8996250027" y="0"/>
			<point x="170.8996250027" y="0" type="curve" smooth="yes"/>
			<point x="884.8996250027" y="0" type="line" smooth="yes"/>
			<point x="1328.8996250027" y="0"/>
			<point x="1754.8996250027" y="408"/>
		</contour>
		<contour>
			<point x="794.8996250027" y="1226" type="line" smooth="yes"/>
			<point x="810.8996250027" y="1288"/>
			<point x="812.8996250027" y="1294"/>
			<point x="896.8996250027" y="1294" type="curve" smooth="yes"/>
			<point x="1152.8996250027" y="1294" type="line" smooth="yes"/>
			<point x="1376.8996250027" y="1294"/>
			<point x="1564.8996250027" y="1182"/>
			<point x="1564.8996250027" y="910" type="curve" smooth="yes"/>
			<point x="1564.8996250027" y="864"/>
			<point x="1544.8996250027" y="518"/>
			<point x="1344.8996250027" y="290" type="curve" smooth="yes"/>
			<point x="1266.8996250027" y="200"/>
			<point x="1094.8996250027" y="72"/>
			<point x="848.8996250027" y="72" type="curve" smooth="yes"/>
			<point x="576.8996250027" y="72" type="line" smooth="yes"/>
			<point x="508.8996250027" y="72"/>
			<point x="504.8996250027" y="70"/>
			<point x="520.8996250027" y="134" type="curve" smooth="yes"/>
		</contour>
	</outline>
</glyph>
<glyph name="E" format="2">
	<unicode hex="0045"/>
	<advance width="1676"/>
	<outline>
		<contour>
			<point x="344.8996250027" y="164" type="line" smooth="yes"/>
			<point x="324.8996250027" y="86"/>
			<point x="322.8996250027" y="72"/>
			<point x="166.8996250027" y="72" type="curve" smooth="yes"/>
			<point x="130.8996250027" y="72"/>
			<point x="106.8996250027" y="72"/>
			<point x="106.8996250027" y="28" type="curve" smooth="yes"/>
			<point x="106.8996250027" y="0"/>
			<point x="130.8996250027" y="0"/>
			<point x="166.8996250027" y="0" type="curve" smooth="yes"/>
			<point x="1296.8996250027" y="0" type="line" smooth="yes"/>
			<point x="1346.8996250027" y="0"/>
			<point x="1348.8996250027" y="0"/>
			<point x="1364.8996250027" y="36" type="curve" smooth="yes"/>
			<point x="1552.8996250027" y="462" type="line" smooth="yes"/>
			<point x="1564.8996250027" y="488"/>
			<point x="1564.8996250027" y="496"/>
			<point x="1564.8996250027" y="498" type="curve" smooth="yes"/>
			<point x="1564.8996250027" y="510"/>
			<point x="1556.8996250027" y="526"/>
			<point x="1530.8996250027" y="526" type="curve" smooth="yes"/>
			<point x="1510.8996250027" y="526"/>
			<point x="1504.8996250027" y="518"/>
			<point x="1478.8996250027" y="460" type="curve" smooth="yes"/>
			<point x="1348.8996250027" y="174"/>
			<point x="1246.8996250027" y="72"/>
			<point x="920.8996250027" y="72" type="curve" smooth="yes"/>
			<point x="556.8996250027" y="72" type="line" smooth="yes"/>
			<point x="512.8996250027" y="72"/>
			<point x="510.8996250027" y="74"/>
			<point x="524.8996250027" y="134" type="curve" smooth="yes"/>
			<point x="658.8996250027" y="670" type="line"/>
			<point x="882.8996250027" y="670" type="line" smooth="yes"/>
			<point x="1040.8996250027" y="670"/>
			<point x="1064.8996250027" y="644"/>
			<point x="1064.8996250027" y="578" type="curve" smooth="yes"/>
			<point x="1064.8996250027" y="532"/>
			<point x="1044.8996250027" y="474"/>
			<point x="1044.8996250027" y="464" type="curve" smooth="yes"/>
			<point x="1044.8996250027" y="458"/>
			<point x="1046.8996250027" y="436"/>
			<point x="1078.8996250027" y="436" type="curve" smooth="yes"/>
			<point x="1106.8996250027" y="436"/>
			<point x="1108.8996250027" y="446"/>
			<point x="1116.8996250027" y="480" type="curve" smooth="yes"/>
			<point x="1228.8996250027" y="926" type="line" smooth="yes"/>
			<point x="1240.8996250027" y="970"/>
			<point x="1218.8996250027" y="976"/>
			<point x="1198.8996250027" y="976" type="curve" smooth="yes"/>
			<point x="1172.8996250027" y="976"/>
			<point x="1170.8996250027" y="966"/>
			<point x="1158.8996250027" y="924" type="curve" smooth="yes"/>
			<point x="1116.8996250027" y="768"/>
			<point x="1056.8996250027" y="742"/>
			<point x="886.8996250027" y="742" type="curve" smooth="yes"/>
			<point x="676.8996250027" y="742" type="line"/>
			<point x="716.8996250027" y="901"/>
			<point x="756.8996250027" y="1059"/>
			<point x="796.8996250027" y="1218" type="curve" smooth="yes"/>
			<point x="812.8996250027" y="1280"/>
			<point x="814.8996250027" y="1286"/>
			<point x="898.8996250027" y="1286" type="curve" smooth="yes"/>
			<point x="1224.8996250027" y="1286" type="line" smooth="yes"/>
			<point x="1486.8996250027" y="1286"/>
			<point x="1552.8996250027" y="1232"/>
			<point x="1552.8996250027" y="1054" type="curve" smooth="yes"/>
			<point x="1552.8996250027" y="1002"/>
			<point x="1544.8996250027" y="942"/>
			<point x="1544.8996250027" y="932" type="curve" smooth="yes"/>
			<point x="1544.8996250027" y="916"/>
			<point x="1550.8996250027" y="898"/>
			<point x="1578.8996250027" y="898" type="curve" smooth="yes"/>
			<point x="1608.8996250027" y="898"/>
			<point x="1610.8996250027" y="916"/>
			<point x="1614.8996250027" y="950" type="curve" smooth="yes"/>
			<point x="1626.8996250027" y="1066"/>
			<point x="1638.8996250027" y="1182"/>
			<point x="1650.8996250027" y="1298" type="curve" smooth="yes"/>
			<point x="1656.8996250027" y="1358"/>
			<point x="1642.8996250027" y="1358"/>
			<point x="1592.8996250027" y="1358" type="curve" smooth="yes"/>
			<point x="492.8996250027" y="1358" type="line" smooth="yes"/>
			<point x="452.8996250027" y="1358"/>
			<point x="428.8996250027" y="1358"/>
			<point x="428.8996250027" y="1314" type="curve" smooth="yes"/>
			<point x="428.8996250027" y="1286"/>
			<point x="450.8996250027" y="1286"/>
			<point x="494.8996250027" y="1286" type="curve" smooth="yes"/>
			<point x="526.8996250027" y="1286"/>
			<point x="556.8996250027" y="1284"/>
			<point x="584.8996250027" y="1280" type="curve" smooth="yes"/>
			<point x="622.8996250027" y="1274"/>
			<point x="618.8996250027" y="1260"/>
			<point x="606.8996250027" y="1210" type="curve" smooth="yes"/>
		</contour>
	</outline>
</glyph>
<glyph name="F" format="2">
	<unicode hex="0046"/>
	<advance width="724"/>
	<outline>
		<contour>
			<point x="295" y="322" type="line"/>
			<point x="402" y="322" type="line" smooth="yes"/>
			<point x="478" y="322"/>
			<point x="491" y="310"/>
			<point x="491" y="277" type="curve" smooth="yes"/>
			<point x="491" y="247"/>
			<point x="481" y="227"/>
			<point x="481" y="220" type="curve" smooth="yes"/>
			<point x="481" y="210"/>
			<point x="488" y="205"/>
			<point x="498" y="205" type="curve" smooth="yes"/>
			<point x="511" y="205"/>
			<point x="512" y="210"/>
			<point x="517" y="228" type="curve" smooth="yes"/>
			<point x="574" y="455" type="line" smooth="yes"/>
			<point x="578" y="469"/>
			<point x="571" y="475"/>
			<point x="558" y="475" type="curve" smooth="yes"/>
			<point x="544" y="475"/>
			<point x="543" y="469"/>
			<point x="538" y="451" type="curve" smooth="yes"/>
			<point x="518" y="373"/>
			<point x="489" y="358"/>
			<point x="404" y="358" type="curve" smooth="yes"/>
			<point x="304" y="358" type="line"/>
			<point x="324.979" y="441.583"/>
			<point x="345.958" y="525.166"/>
			<point x="367" y="609" type="curve" smooth="yes"/>
			<point x="375" y="640"/>
			<point x="376" y="643"/>
			<point x="418" y="643" type="curve" smooth="yes"/>
			<point x="571" y="643" type="line" smooth="yes"/>
			<point x="704" y="643"/>
			<point x="729" y="611"/>
			<point x="729" y="528" type="curve" smooth="yes"/>
			<point x="729" y="495"/>
			<point x="725" y="474"/>
			<point x="725" y="466" type="curve" smooth="yes"/>
			<point x="725" y="458"/>
			<point x="728" y="449"/>
			<point x="742" y="449" type="curve" smooth="yes"/>
			<point x="757" y="449"/>
			<point x="758" y="458"/>
			<point x="760" y="475" type="curve" smooth="yes"/>
			<point x="778" y="649" type="line" smooth="yes"/>
			<point x="781" y="679"/>
			<point x="774" y="679"/>
			<point x="749" y="679" type="curve" smooth="yes"/>
			<point x="215" y="679" type="line" smooth="yes"/>
			<point x="196" y="679"/>
			<point x="183" y="679"/>
			<point x="183" y="657" type="curve" smooth="yes"/>
			<point x="183" y="643"/>
			<point x="195" y="643"/>
			<point x="215" y="643" type="curve" smooth="yes"/>
			<point x="216" y="643"/>
			<point x="235" y="643"/>
			<point x="253" y="641" type="curve" smooth="yes"/>
			<point x="274" y="639"/>
			<point x="276" y="637"/>
			<point x="276" y="627" type="curve" smooth="yes"/>
			<point x="276" y="620"/>
			<point x="273" y="610"/>
			<point x="272" y="605" type="curve" smooth="yes"/>
			<point x="141" y="82" type="line" smooth="yes"/>
			<point x="131" y="43"/>
			<point x="130" y="36"/>
			<point x="52" y="36" type="curve" smooth="yes"/>
			<point x="35" y="36"/>
			<point x="22" y="36"/>
			<point x="22" y="15" type="curve" smooth="yes"/>
			<point x="22" y="5"/>
			<point x="29" y="0"/>
			<point x="38" y="0" type="curve" smooth="yes"/>
			<point x="67" y="0"/>
			<point x="111" y="2"/>
			<point x="140" y="3" type="curve" smooth="yes"/>
			<point x="166" y="4"/>
			<point x="212" y="3"/>
			<point x="238" y="2" type="curve" smooth="yes"/>
			<point x="264" y="1"/>
			<point x="301" y="0"/>
			<point x="326" y="0" type="curve" smooth="yes"/>
			<point x="333" y="0"/>
			<point x="348" y="0"/>
			<point x="348" y="22" type="curve" smooth="yes"/>
			<point x="348" y="36"/>
			<point x="336" y="36"/>
			<point x="313" y="36" type="curve" smooth="yes"/>
			<point x="311" y="36"/>
			<point x="286" y="36"/>
			<point x="261" y="38" type="curve" smooth="yes"/>
			<point x="240" y="40"/>
			<point x="230" y="41"/>
			<point x="230" y="55" type="curve" smooth="yes"/>
			<point x="230" y="59"/>
			<point x="230" y="62"/>
			<point x="233" y="73" type="curve" smooth="yes"/>
		</contour>
	</outline>
</glyph>
<glyph name="G" format="2">
	<unicode hex="0047"/>
	<advance width="889"/>
	<outline>
		<contour>
			<point x="108.4498125014" y="262" type="curve" smooth="yes"/>
			<point x="108.4498125014" y="107"/>
			<point x="226.4498125014" y="-20"/>
			<point x="418.4498125014" y="-20" type="curve" smooth="yes"/>
			<point x="506.4498125014" y="-20"/>
			<point x="599.4498125014" y="3"/>
			<point x="651.4498125014" y="59" type="curve"/>
			<point x="661.4498125014" y="37"/>
			<point x="688.4498125014" y="1"/>
			<point x="700.4498125014" y="1" type="curve" smooth="yes"/>
			<point x="709.4498125014" y="1"/>
			<point x="711.4498125014" y="5"/>
			<point x="716.4498125014" y="26" type="curve" smooth="yes"/>
			<point x="739.4498125014" y="121"/>
			<point x="754.4498125014" y="181"/>
			<point x="757.4498125014" y="193" type="curve" smooth="yes"/>
			<point x="769.4498125014" y="238"/>
			<point x="770.4498125014" y="239"/>
			<point x="829.4498125014" y="240" type="curve" smooth="yes"/>
			<point x="836.4498125014" y="240"/>
			<point x="851.4498125014" y="240"/>
			<point x="851.4498125014" y="261" type="curve" smooth="yes"/>
			<point x="851.4498125014" y="271"/>
			<point x="844.4498125014" y="276"/>
			<point x="836.4498125014" y="276" type="curve" smooth="yes"/>
			<point x="803.4498125014" y="276"/>
			<point x="771.4498125014" y="272"/>
			<point x="736.4498125014" y="272" type="curve" smooth="yes"/>
			<point x="711.4498125014" y="272"/>
			<point x="668.4498125014" y="272"/>
			<point x="643.4498125014" y="273" type="curve" smooth="yes"/>
			<point x="618.4498125014" y="274"/>
			<point x="589.4498125014" y="276"/>
			<point x="564.4498125014" y="276" type="curve" smooth="yes"/>
			<point x="557.4498125014" y="276"/>
			<point x="542.4498125014" y="276"/>
			<point x="542.4498125014" y="254" type="curve" smooth="yes"/>
			<point x="542.4498125014" y="240"/>
			<point x="553.4498125014" y="240"/>
			<point x="578.4498125014" y="240" type="curve" smooth="yes"/>
			<point x="597.4498125014" y="240"/>
			<point x="617.4498125014" y="240"/>
			<point x="636.4498125014" y="238" type="curve" smooth="yes"/>
			<point x="668.4498125014" y="235"/>
			<point x="669.4498125014" y="231"/>
			<point x="669.4498125014" y="219" type="curve" smooth="yes"/>
			<point x="669.4498125014" y="213"/>
			<point x="648.1815125014" y="123.32925"/>
			<point x="640.4498125014" y="104" type="curve"/>
			<point x="627.2548125014" y="76.245"/>
			<point x="600.8102125014" y="55.52885"/>
			<point x="568.5575261264" y="41.192175375" type="curve" smooth="yes"/>
			<point x="529.9251875014" y="24.019675"/>
			<point x="482.9598125014" y="16"/>
			<point x="440.4498125014" y="16" type="curve" smooth="yes"/>
			<point x="340.4498125014" y="16"/>
			<point x="209.4498125014" y="64"/>
			<point x="209.4498125014" y="233" type="curve" smooth="yes"/>
			<point x="209.4498125014" y="340"/>
			<point x="259.4498125014" y="474"/>
			<point x="333.4498125014" y="549" type="curve" smooth="yes"/>
			<point x="436.4498125014" y="651"/>
			<point x="543.4498125014" y="667"/>
			<point x="599.4498125014" y="667" type="curve" smooth="yes"/>
			<point x="715.4498125014" y="667"/>
			<point x="783.4498125014" y="583"/>
			<point x="783.4498125014" y="471" type="curve" smooth="yes"/>
			<point x="783.4498125014" y="447"/>
			<point x="780.4498125014" y="436"/>
			<point x="780.4498125014" y="430" type="curve" smooth="yes"/>
			<point x="780.4498125014" y="417"/>
			<point x="793.4498125014" y="417"/>
			<point x="798.4498125014" y="417" type="curve" smooth="yes"/>
			<point x="814.4498125014" y="417"/>
			<point x="814.4498125014" y="420"/>
			<point x="819.4498125014" y="439" type="curve" smooth="yes"/>
			<point x="881.4498125014" y="690" type="line"/>
			<point x="881.4498125014" y="695"/>
			<point x="878.4498125014" y="703"/>
			<point x="868.4498125014" y="703" type="curve" smooth="yes"/>
			<point x="861.4498125014" y="703"/>
			<point x="860.4498125014" y="701"/>
			<point x="850.4498125014" y="691" type="curve" smooth="yes"/>
			<point x="777.4498125014" y="614" type="line"/>
			<point x="777.4498125014" y="614"/>
			<point x="777.4498125014" y="614"/>
			<point x="777.4498125014" y="614" type="curve"/>
			<point x="768.4498125014" y="626"/>
			<point x="712.4498125014" y="703"/>
			<point x="589.4498125014" y="703" type="curve" smooth="yes"/>
			<point x="346.4498125014" y="703"/>
			<point x="108.4498125014" y="488"/>
		</contour>
	</outline>
</glyph>
<glyph name="H" format="2">
	<unicode hex="0048"/>
	<advance width="935"/>
	<outline>
		<contour>
			<point x="384.4498125014" y="337" type="line"/>
			<point x="719.4498125014" y="337" type="line"/>
			<point x="697.8048125014" y="250.753"/>
			<point x="676.1598125014" y="164.506"/>
			<point x="654.4498125014" y="78" type="curve" smooth="yes"/>
			<point x="646.4498125014" y="44"/>
			<point x="644.4498125014" y="36"/>
			<point x="566.4498125014" y="36" type="curve" smooth="yes"/>
			<point x="549.4498125014" y="36"/>
			<point x="536.4498125014" y="36"/>
			<point x="536.4498125014" y="15" type="curve" smooth="yes"/>
			<point x="536.4498125014" y="5"/>
			<point x="543.4498125014" y="0"/>
			<point x="552.4498125014" y="0" type="curve" smooth="yes"/>
			<point x="570.9651525014" y="0"/>
			<point x="607.0086328802" y="1.6305246864"/>
			<point x="638.1982206253" y="2.8095244766" type="curve" smooth="yes"/>
			<point x="684.4498125014" y="5"/>
			<point x="723.9651525014" y="4.61674"/>
			<point x="751.4498125014" y="3" type="curve" smooth="yes"/>
			<point x="771.4498125014" y="2"/>
			<point x="796.4498125014" y="0"/>
			<point x="815.4498125014" y="0" type="curve" smooth="yes"/>
			<point x="820.4498125014" y="0"/>
			<point x="836.4498125014" y="0"/>
			<point x="836.4498125014" y="21" type="curve" smooth="yes"/>
			<point x="836.4498125014" y="36"/>
			<point x="826.4498125014" y="36"/>
			<point x="803.4498125014" y="36" type="curve" smooth="yes"/>
			<point x="787.4498125014" y="36"/>
			<point x="783.4498125014" y="36"/>
			<point x="765.4498125014" y="38" type="curve" smooth="yes"/>
			<point x="743.4498125014" y="41"/>
			<point x="743.4498125014" y="43"/>
			<point x="743.4498125014" y="53" type="curve" smooth="yes"/>
			<point x="743.4498125014" y="59"/>
			<point x="746.4498125014" y="69"/>
			<point x="747.4498125014" y="75" type="curve" smooth="yes"/>
			<point x="879.4498125014" y="602" type="line" smooth="yes"/>
			<point x="888.4498125014" y="639"/>
			<point x="890.4498125014" y="647"/>
			<point x="964.4498125014" y="647" type="curve" smooth="yes"/>
			<point x="986.4498125014" y="647"/>
			<point x="998.4498125014" y="647"/>
			<point x="998.4498125014" y="669" type="curve" smooth="yes"/>
			<point x="998.4498125014" y="673"/>
			<point x="995.4498125014" y="683"/>
			<point x="982.4498125014" y="683" type="curve" smooth="yes"/>
			<point x="967.4498125014" y="683"/>
			<point x="939.4498125014" y="682"/>
			<point x="912.4498125014" y="681" type="curve" smooth="yes"/>
			<point x="858.4498125014" y="679"/>
			<point x="813.4498125014" y="678"/>
			<point x="782.4498125014" y="680" type="curve" smooth="yes"/>
			<point x="762.4498125014" y="681"/>
			<point x="738.4498125014" y="683"/>
			<point x="719.4498125014" y="683" type="curve" smooth="yes"/>
			<point x="713.4498125014" y="683"/>
			<point x="698.4498125014" y="683"/>
			<point x="698.4498125014" y="661" type="curve" smooth="yes"/>
			<point x="698.4498125014" y="647"/>
			<point x="710.4498125014" y="647"/>
			<point x="730.4498125014" y="647" type="curve" smooth="yes"/>
			<point x="731.4498125014" y="647"/>
			<point x="750.4498125014" y="647"/>
			<point x="768.4498125014" y="645" type="curve" smooth="yes"/>
			<point x="789.4498125014" y="643"/>
			<point x="791.4498125014" y="641"/>
			<point x="791.4498125014" y="631" type="curve" smooth="yes"/>
			<point x="791.4498125014" y="630"/>
			<point x="791.4498125014" y="624"/>
			<point x="787.4498125014" y="609" type="curve" smooth="yes"/>
			<point x="728.4498125014" y="373" type="line"/>
			<point x="393.4498125014" y="373" type="line"/>
			<point x="451.4498125014" y="605" type="line" smooth="yes"/>
			<point x="460.4498125014" y="639"/>
			<point x="462.4498125014" y="647"/>
			<point x="539.4498125014" y="647" type="curve" smooth="yes"/>
			<point x="556.4498125014" y="647"/>
			<point x="569.4498125014" y="647"/>
			<point x="569.4498125014" y="669" type="curve" smooth="yes"/>
			<point x="569.4498125014" y="673"/>
			<point x="566.4498125014" y="683"/>
			<point x="553.4498125014" y="683" type="curve" smooth="yes"/>
			<point x="538.4498125014" y="683"/>
			<point x="511.4498125014" y="682"/>
			<point x="485.4498125014" y="681" type="curve" smooth="yes"/>
			<point x="430.4498125014" y="679"/>
			<point x="384.4498125014" y="678"/>
			<point x="353.4498125014" y="680" type="curve" smooth="yes"/>
			<point x="333.4498125014" y="681"/>
			<point x="309.4498125014" y="683"/>
			<point x="290.4498125014" y="683" type="curve" smooth="yes"/>
			<point x="284.4498125014" y="683"/>
			<point x="269.4498125014" y="683"/>
			<point x="269.4498125014" y="661" type="curve" smooth="yes"/>
			<point x="269.4498125014" y="647"/>
			<point x="281.4498125014" y="647"/>
			<point x="301.4498125014" y="647" type="curve" smooth="yes"/>
			<point x="302.4498125014" y="647"/>
			<point x="321.4498125014" y="647"/>
			<point x="339.4498125014" y="645" type="curve" smooth="yes"/>
			<point x="360.4498125014" y="643"/>
			<point x="362.4498125014" y="641"/>
			<point x="362.4498125014" y="631" type="curve" smooth="yes"/>
			<point x="362.4498125014" y="629"/>
			<point x="362.4498125014" y="624"/>
			<point x="358.4498125014" y="609" type="curve" smooth="yes"/>
			<point x="225.4498125014" y="78" type="line" smooth="yes"/>
			<point x="217.4498125014" y="44"/>
			<point x="215.4498125014" y="36"/>
			<point x="137.4498125014" y="36" type="curve" smooth="yes"/>
			<point x="120.4498125014" y="36"/>
			<point x="107.4498125014" y="36"/>
			<point x="107.4498125014" y="15" type="curve" smooth="yes"/>
			<point x="107.4498125014" y="5"/>
			<point x="114.4498125014" y="0"/>
			<point x="123.4498125014" y="0" type="curve" smooth="yes"/>
			<point x="140.4037925014" y="0"/>
			<point x="172.0543359106" y="1.3671221776"/>
			<point x="201.2176329284" y="2.5028725979" type="curve" smooth="yes"/>
			<point x="251.4498125014" y="4"/>
			<point x="293.4037925014" y="4.70859"/>
			<point x="322.4498125014" y="3" type="curve" smooth="yes"/>
			<point x="342.4498125014" y="2"/>
			<point x="367.4498125014" y="0"/>
			<point x="386.4498125014" y="0" type="curve" smooth="yes"/>
			<point x="391.4498125014" y="0"/>
			<point x="407.4498125014" y="0"/>
			<point x="407.4498125014" y="21" type="curve" smooth="yes"/>
			<point x="407.4498125014" y="36"/>
			<point x="397.4498125014" y="36"/>
			<point x="374.4498125014" y="36" type="curve" smooth="yes"/>
			<point x="358.4498125014" y="36"/>
			<point x="354.4498125014" y="36"/>
			<point x="336.4498125014" y="38" type="curve" smooth="yes"/>
			<point x="314.4498125014" y="41"/>
			<point x="314.4498125014" y="43"/>
			<point x="314.4498125014" y="53" type="curve" smooth="yes"/>
			<point x="314.4498125014" y="54"/>
			<point x="314.4498125014" y="60"/>
			<point x="318.4498125014" y="75" type="curve" smooth="yes"/>
		</contour>
	</outline>
</glyph>
<glyph name="I" format="2">
	<unicode hex="0049"/>
	<advance width="1012"/>
	<outline>
		<contour>
			<point x="280" y="158" type="line" smooth="yes"/>
			<point x="264" y="92"/>
			<point x="258" y="72"/>
			<point x="108" y="72" type="curve" smooth="yes"/>
			<point x="54" y="72"/>
			<point x="34" y="72"/>
			<point x="34" y="28" type="curve" smooth="yes"/>
			<point x="34" y="26"/>
			<point x="34" y="0"/>
			<point x="66" y="0" type="curve" smooth="yes"/>
			<point x="126" y="0"/>
			<point x="220" y="4"/>
			<point x="272" y="6" type="curve" smooth="yes"/>
			<point x="320" y="8"/>
			<point x="386" y="6"/>
			<point x="434" y="6" type="curve" smooth="yes"/>
			<point x="478" y="6"/>
			<point x="568" y="0"/>
			<point x="612" y="0" type="curve" smooth="yes"/>
			<point x="624" y="0"/>
			<point x="654" y="0"/>
			<point x="654" y="44" type="curve" smooth="yes"/>
			<point x="654" y="72"/>
			<point x="630" y="72"/>
			<point x="590" y="72" type="curve" smooth="yes"/>
			<point x="586" y="72"/>
			<point x="544" y="72"/>
			<point x="504" y="76" type="curve" smooth="yes"/>
			<point x="458" y="80"/>
			<point x="458" y="88"/>
			<point x="458" y="106" type="curve" smooth="yes"/>
			<point x="458" y="108"/>
			<point x="458" y="120"/>
			<point x="466" y="150" type="curve" smooth="yes"/>
			<point x="732" y="1208" type="line" smooth="yes"/>
			<point x="750" y="1276"/>
			<point x="754" y="1294"/>
			<point x="904" y="1294" type="curve" smooth="yes"/>
			<point x="954" y="1294"/>
			<point x="978" y="1294"/>
			<point x="978" y="1336" type="curve" smooth="yes"/>
			<point x="978" y="1354"/>
			<point x="964" y="1366"/>
			<point x="946" y="1366" type="curve" smooth="yes"/>
			<point x="904" y="1366"/>
			<point x="854" y="1362"/>
			<point x="812" y="1360" type="curve" smooth="yes"/>
			<point x="748" y="1358"/>
			<point x="658" y="1358"/>
			<point x="538" y="1360" type="curve" smooth="yes"/>
			<point x="494" y="1360"/>
			<point x="444" y="1366"/>
			<point x="400" y="1366" type="curve" smooth="yes"/>
			<point x="388" y="1366"/>
			<point x="358" y="1366"/>
			<point x="358" y="1322" type="curve" smooth="yes"/>
			<point x="358" y="1294"/>
			<point x="380" y="1294"/>
			<point x="424" y="1294" type="curve" smooth="yes"/>
			<point x="426" y="1294"/>
			<point x="466" y="1294"/>
			<point x="500" y="1290" type="curve" smooth="yes"/>
			<point x="540" y="1286"/>
			<point x="554" y="1284"/>
			<point x="554" y="1262" type="curve" smooth="yes"/>
			<point x="554" y="1250"/>
			<point x="550" y="1236"/>
			<point x="546" y="1220" type="curve" smooth="yes"/>
		</contour>
	</outline>
</glyph>
<glyph name="J" format="2">
	<unicode hex="004A"/>
	<advance width="1264"/>
	<outline>
		<contour>
			<point x="400" y="-40" type="curve" smooth="yes"/>
			<point x="596" y="-40"/>
			<point x="818" y="86"/>
			<point x="868" y="286" type="curve" smooth="yes"/>
			<point x="1100" y="1212" type="line" smooth="yes"/>
			<point x="1118" y="1282"/>
			<point x="1120" y="1294"/>
			<point x="1232" y="1294" type="curve" smooth="yes"/>
			<point x="1256" y="1294"/>
			<point x="1284" y="1294"/>
			<point x="1284" y="1336" type="curve" smooth="yes"/>
			<point x="1284" y="1358"/>
			<point x="1268" y="1366"/>
			<point x="1254" y="1366" type="curve" smooth="yes"/>
			<point x="1206" y="1366"/>
			<point x="1086" y="1358"/>
			<point x="1038" y="1358" type="curve" smooth="yes"/>
			<point x="996" y="1358"/>
			<point x="928" y="1360"/>
			<point x="884" y="1360" type="curve" smooth="yes"/>
			<point x="834" y="1362"/>
			<point x="776" y="1366"/>
			<point x="726" y="1366" type="curve" smooth="yes"/>
			<point x="712" y="1366"/>
			<point x="682" y="1366"/>
			<point x="682" y="1324" type="curve" smooth="yes"/>
			<point x="682" y="1294"/>
			<point x="700" y="1294"/>
			<point x="760" y="1294" type="curve" smooth="yes"/>
			<point x="806" y="1294"/>
			<point x="814" y="1294"/>
			<point x="864" y="1290" type="curve" smooth="yes"/>
			<point x="922" y="1284"/>
			<point x="928" y="1278"/>
			<point x="928" y="1254" type="curve" smooth="yes"/>
			<point x="928" y="1240"/>
			<point x="928" y="1236"/>
			<point x="920" y="1208" type="curve" smooth="yes"/>
			<point x="843" y="903"/>
			<point x="767" y="598"/>
			<point x="690" y="292" type="curve" smooth="yes"/>
			<point x="652" y="142"/>
			<point x="524" y="16"/>
			<point x="394" y="16" type="curve" smooth="yes"/>
			<point x="366" y="16"/>
			<point x="240" y="22"/>
			<point x="194" y="120" type="curve"/>
			<point x="310" y="120"/>
			<point x="336" y="214"/>
			<point x="336" y="250" type="curve" smooth="yes"/>
			<point x="336" y="306"/>
			<point x="288" y="336"/>
			<point x="244" y="336" type="curve" smooth="yes"/>
			<point x="190" y="336"/>
			<point x="110" y="292"/>
			<point x="110" y="180" type="curve" smooth="yes"/>
			<point x="110" y="50"/>
			<point x="232" y="-40"/>
		</contour>
	</outline>
</glyph>
<glyph name="K" format="2">
	<unicode hex="004B"/>
	<advance width="1918"/>
	<outline>
		<contour>
			<point x="636.8996250027" y="580" type="line"/>
			<point x="794.8996250027" y="1210" type="line" smooth="yes"/>
			<point x="812.8996250027" y="1278"/>
			<point x="814.8996250027" y="1294"/>
			<point x="970.8996250027" y="1294" type="curve" smooth="yes"/>
			<point x="1002.8996250027" y="1294"/>
			<point x="1030.8996250027" y="1294"/>
			<point x="1030.8996250027" y="1336" type="curve" smooth="yes"/>
			<point x="1030.8996250027" y="1354"/>
			<point x="1018.8996250027" y="1366"/>
			<point x="998.8996250027" y="1366" type="curve" smooth="yes"/>
			<point x="962.8996250027" y="1366"/>
			<point x="902.8996250027" y="1370"/>
			<point x="842.8996250027" y="1366" type="curve" smooth="yes"/>
			<point x="744.8996250027" y="1362"/>
			<point x="654.8996250027" y="1356"/>
			<point x="598.8996250027" y="1360" type="curve" smooth="yes"/>
			<point x="558.8996250027" y="1362"/>
			<point x="510.8996250027" y="1366"/>
			<point x="472.8996250027" y="1366" type="curve" smooth="yes"/>
			<point x="460.8996250027" y="1366"/>
			<point x="430.8996250027" y="1366"/>
			<point x="430.8996250027" y="1322" type="curve" smooth="yes"/>
			<point x="430.8996250027" y="1294"/>
			<point x="452.8996250027" y="1294"/>
			<point x="496.8996250027" y="1294" type="curve" smooth="yes"/>
			<point x="528.8996250027" y="1294"/>
			<point x="536.8996250027" y="1294"/>
			<point x="572.8996250027" y="1290" type="curve" smooth="yes"/>
			<point x="612.8996250027" y="1286"/>
			<point x="616.8996250027" y="1282"/>
			<point x="616.8996250027" y="1262" type="curve" smooth="yes"/>
			<point x="616.8996250027" y="1258"/>
			<point x="616.8996250027" y="1248"/>
			<point x="608.8996250027" y="1218" type="curve" smooth="yes"/>
			<point x="342.8996250027" y="156" type="line" smooth="yes"/>
			<point x="326.8996250027" y="88"/>
			<point x="322.8996250027" y="72"/>
			<point x="166.8996250027" y="72" type="curve" smooth="yes"/>
			<point x="130.8996250027" y="72"/>
			<point x="106.8996250027" y="72"/>
			<point x="106.8996250027" y="28" type="curve" smooth="yes"/>
			<point x="106.8996250027" y="26"/>
			<point x="106.8996250027" y="0"/>
			<point x="138.8996250027" y="0" type="curve" smooth="yes"/>
			<point x="196.8996250027" y="0"/>
			<point x="340.8996250027" y="8"/>
			<point x="398.8996250027" y="8" type="curve" smooth="yes"/>
			<point x="432.8996250027" y="8"/>
			<point x="502.8996250027" y="8"/>
			<point x="536.8996250027" y="6" type="curve" smooth="yes"/>
			<point x="576.8996250027" y="4"/>
			<point x="626.8996250027" y="0"/>
			<point x="664.8996250027" y="0" type="curve" smooth="yes"/>
			<point x="676.8996250027" y="0"/>
			<point x="706.8996250027" y="0"/>
			<point x="706.8996250027" y="44" type="curve" smooth="yes"/>
			<point x="706.8996250027" y="72"/>
			<point x="682.8996250027" y="72"/>
			<point x="642.8996250027" y="72" type="curve" smooth="yes"/>
			<point x="640.8996250027" y="72"/>
			<point x="602.8996250027" y="72"/>
			<point x="566.8996250027" y="76" type="curve" smooth="yes"/>
			<point x="520.8996250027" y="80"/>
			<point x="520.8996250027" y="86"/>
			<point x="520.8996250027" y="106" type="curve" smooth="yes"/>
			<point x="520.8996250027" y="112"/>
			<point x="522.8996250027" y="124"/>
			<point x="528.8996250027" y="148" type="curve" smooth="yes"/>
			<point x="557.8996250027" y="262"/>
			<point x="585.8996250027" y="376"/>
			<point x="614.8996250027" y="490" type="curve"/>
			<point x="614.8996250027" y="490"/>
			<point x="614.8996250027" y="490"/>
			<point x="614.8996250027" y="490" type="curve"/>
			<point x="946.8996250027" y="724" type="line"/>
			<point x="946.8996250027" y="724"/>
			<point x="946.8996250027" y="724"/>
			<point x="946.8996250027" y="724" type="curve"/>
			<point x="1043.8996250027" y="537"/>
			<point x="1139.8996250027" y="350"/>
			<point x="1236.8996250027" y="162" type="curve" smooth="yes"/>
			<point x="1250.8996250027" y="136"/>
			<point x="1250.8996250027" y="134"/>
			<point x="1250.8996250027" y="124" type="curve" smooth="yes"/>
			<point x="1250.8996250027" y="78"/>
			<point x="1194.8996250027" y="72"/>
			<point x="1158.8996250027" y="72" type="curve" smooth="yes"/>
			<point x="1134.8996250027" y="72"/>
			<point x="1106.8996250027" y="72"/>
			<point x="1106.8996250027" y="28" type="curve" smooth="yes"/>
			<point x="1106.8996250027" y="26"/>
			<point x="1108.8996250027" y="0"/>
			<point x="1140.8996250027" y="0" type="curve" smooth="yes"/>
			<point x="1174.8996250027" y="0"/>
			<point x="1220.8996250027" y="2"/>
			<point x="1278.8996250027" y="4" type="curve" smooth="yes"/>
			<point x="1318.8996250027" y="6"/>
			<point x="1372.8996250027" y="8"/>
			<point x="1416.8996250027" y="8" type="curve" smooth="yes"/>
			<point x="1476.8996250027" y="8"/>
			<point x="1536.8996250027" y="0"/>
			<point x="1592.8996250027" y="0" type="curve" smooth="yes"/>
			<point x="1618.8996250027" y="0"/>
			<point x="1632.8996250027" y="14"/>
			<point x="1632.8996250027" y="42" type="curve" smooth="yes"/>
			<point x="1632.8996250027" y="72"/>
			<point x="1606.8996250027" y="72"/>
			<point x="1586.8996250027" y="72" type="curve" smooth="yes"/>
			<point x="1550.8996250027" y="72"/>
			<point x="1488.8996250027" y="74"/>
			<point x="1454.8996250027" y="138" type="curve" smooth="yes"/>
			<point x="1112.8996250027" y="804" type="line" smooth="yes"/>
			<point x="1104.8996250027" y="820"/>
			<point x="1100.8996250027" y="826"/>
			<point x="1100.8996250027" y="828" type="curve" smooth="yes"/>
			<point x="1100.8996250027" y="832"/>
			<point x="1102.8996250027" y="834"/>
			<point x="1148.8996250027" y="866" type="curve" smooth="yes"/>
			<point x="1215.8996250027" y="913"/>
			<point x="1283.8996250027" y="961"/>
			<point x="1350.8996250027" y="1008" type="curve" smooth="yes"/>
			<point x="1614.8996250027" y="1194"/>
			<point x="1738.8996250027" y="1282"/>
			<point x="1880.8996250027" y="1294" type="curve" smooth="yes"/>
			<point x="1902.8996250027" y="1296"/>
			<point x="1926.8996250027" y="1298"/>
			<point x="1926.8996250027" y="1338" type="curve" smooth="yes"/>
			<point x="1926.8996250027" y="1354"/>
			<point x="1912.8996250027" y="1364"/>
			<point x="1900.8996250027" y="1364" type="curve" smooth="yes"/>
			<point x="1858.8996250027" y="1364"/>
			<point x="1806.8996250027" y="1358"/>
			<point x="1770.8996250027" y="1358" type="curve" smooth="yes"/>
			<point x="1740.8996250027" y="1358"/>
			<point x="1714.8996250027" y="1366"/>
			<point x="1678.8996250027" y="1366" type="curve" smooth="yes"/>
			<point x="1622.8996250027" y="1370"/>
			<point x="1552.8996250027" y="1366"/>
			<point x="1520.8996250027" y="1366" type="curve" smooth="yes"/>
			<point x="1508.8996250027" y="1366"/>
			<point x="1478.8996250027" y="1366"/>
			<point x="1478.8996250027" y="1322" type="curve" smooth="yes"/>
			<point x="1478.8996250027" y="1320"/>
			<point x="1478.8996250027" y="1296"/>
			<point x="1508.8996250027" y="1294" type="curve" smooth="yes"/>
			<point x="1532.8996250027" y="1292"/>
			<point x="1558.8996250027" y="1288"/>
			<point x="1558.8996250027" y="1266" type="curve" smooth="yes"/>
			<point x="1558.8996250027" y="1230"/>
			<point x="1496.8996250027" y="1186"/>
			<point x="1470.8996250027" y="1168" type="curve" smooth="yes"/>
		</contour>
	</outline>
</glyph>
<glyph name="L" format="2">
	<unicode hex="004C"/>
	<advance width="1566"/>
	<outline>
		<contour>
			<point x="280" y="156" type="line" smooth="yes"/>
			<point x="262" y="88"/>
			<point x="258" y="72"/>
			<point x="104" y="72" type="curve" smooth="yes"/>
			<point x="70" y="72"/>
			<point x="44" y="72"/>
			<point x="44" y="30" type="curve" smooth="yes"/>
			<point x="44" y="0"/>
			<point x="68" y="0"/>
			<point x="104" y="0" type="curve" smooth="yes"/>
			<point x="1110" y="0" type="line" smooth="yes"/>
			<point x="1160" y="0"/>
			<point x="1164" y="2"/>
			<point x="1178" y="40" type="curve" smooth="yes"/>
			<point x="1334" y="454" type="line" smooth="yes"/>
			<point x="1342" y="476"/>
			<point x="1348" y="492"/>
			<point x="1348" y="498" type="curve" smooth="yes"/>
			<point x="1348" y="504"/>
			<point x="1344" y="526"/>
			<point x="1314" y="526" type="curve" smooth="yes"/>
			<point x="1290" y="526"/>
			<point x="1286" y="516"/>
			<point x="1274" y="484" type="curve" smooth="yes"/>
			<point x="1198" y="294"/>
			<point x="1110" y="72"/>
			<point x="744" y="72" type="curve" smooth="yes"/>
			<point x="518" y="72" type="line" smooth="yes"/>
			<point x="456" y="72"/>
			<point x="454" y="74"/>
			<point x="454" y="92" type="curve" smooth="yes"/>
			<point x="454" y="94"/>
			<point x="454" y="104"/>
			<point x="462" y="134" type="curve" smooth="yes"/>
			<point x="730" y="1202" type="line" smooth="yes"/>
			<point x="748" y="1274"/>
			<point x="754" y="1294"/>
			<point x="938" y="1294" type="curve" smooth="yes"/>
			<point x="1000" y="1294"/>
			<point x="1020" y="1294"/>
			<point x="1020" y="1338" type="curve" smooth="yes"/>
			<point x="1020" y="1340"/>
			<point x="1018" y="1366"/>
			<point x="986" y="1366" type="curve" smooth="yes"/>
			<point x="940" y="1366"/>
			<point x="886" y="1362"/>
			<point x="838" y="1360" type="curve" smooth="yes"/>
			<point x="746" y="1356"/>
			<point x="634" y="1358"/>
			<point x="540" y="1360" type="curve" smooth="yes"/>
			<point x="498" y="1360"/>
			<point x="450" y="1366"/>
			<point x="410" y="1366" type="curve" smooth="yes"/>
			<point x="398" y="1366"/>
			<point x="368" y="1366"/>
			<point x="368" y="1322" type="curve" smooth="yes"/>
			<point x="368" y="1294"/>
			<point x="392" y="1294"/>
			<point x="432" y="1294" type="curve" smooth="yes"/>
			<point x="434" y="1294"/>
			<point x="472" y="1294"/>
			<point x="508" y="1290" type="curve" smooth="yes"/>
			<point x="550" y="1286"/>
			<point x="554" y="1282"/>
			<point x="554" y="1262" type="curve" smooth="yes"/>
			<point x="554" y="1258"/>
			<point x="554" y="1248"/>
			<point x="546" y="1218" type="curve" smooth="yes"/>
		</contour>
	</outline>
</glyph>
<glyph name="M" format="2">
	<unicode hex="004D"/>
	<advance width="2178"/>
	<outline>
		<contour>
			<point x="304" y="214" type="line" smooth="yes"/>
			<point x="286" y="146"/>
			<point x="256" y="78"/>
			<point x="96" y="72" type="curve" smooth="yes"/>
			<point x="80" y="72"/>
			<point x="54" y="70"/>
			<point x="54" y="28" type="curve" smooth="yes"/>
			<point x="54" y="26"/>
			<point x="56" y="0"/>
			<point x="84" y="0" type="curve" smooth="yes"/>
			<point x="144" y="0"/>
			<point x="228" y="8"/>
			<point x="292" y="8" type="curve" smooth="yes"/>
			<point x="340" y="8"/>
			<point x="456" y="0"/>
			<point x="504" y="0" type="curve" smooth="yes"/>
			<point x="514" y="0"/>
			<point x="544" y="0"/>
			<point x="544" y="44" type="curve" smooth="yes"/>
			<point x="544" y="70"/>
			<point x="518" y="72"/>
			<point x="500" y="72" type="curve" smooth="yes"/>
			<point x="372" y="76"/>
			<point x="372" y="128"/>
			<point x="372" y="156" type="curve" smooth="yes"/>
			<point x="372" y="164"/>
			<point x="372" y="174"/>
			<point x="380" y="206" type="curve" smooth="yes"/>
			<point x="646" y="1270" type="line"/>
			<point x="648" y="1270" type="line"/>
			<point x="862" y="54" type="line" smooth="yes"/>
			<point x="868" y="18"/>
			<point x="872" y="0"/>
			<point x="902" y="0" type="curve" smooth="yes"/>
			<point x="930" y="0"/>
			<point x="946" y="22"/>
			<point x="960" y="44" type="curve" smooth="yes"/>
			<point x="1800" y="1290" type="line"/>
			<point x="1802" y="1288" type="line"/>
			<point x="1520" y="156" type="line" smooth="yes"/>
			<point x="1504" y="88"/>
			<point x="1500" y="72"/>
			<point x="1344" y="72" type="curve" smooth="yes"/>
			<point x="1308" y="72"/>
			<point x="1284" y="72"/>
			<point x="1284" y="28" type="curve" smooth="yes"/>
			<point x="1284" y="26"/>
			<point x="1284" y="0"/>
			<point x="1316" y="0" type="curve" smooth="yes"/>
			<point x="1354" y="0"/>
			<point x="1460" y="6"/>
			<point x="1500" y="6" type="curve" smooth="yes"/>
			<point x="1540" y="6"/>
			<point x="1586" y="6"/>
			<point x="1626" y="6" type="curve" smooth="yes"/>
			<point x="1682" y="6"/>
			<point x="1764" y="0"/>
			<point x="1820" y="0" type="curve" smooth="yes"/>
			<point x="1832" y="0"/>
			<point x="1862" y="0"/>
			<point x="1862" y="44" type="curve" smooth="yes"/>
			<point x="1862" y="72"/>
			<point x="1838" y="72"/>
			<point x="1798" y="72" type="curve" smooth="yes"/>
			<point x="1796" y="72"/>
			<point x="1758" y="72"/>
			<point x="1722" y="76" type="curve" smooth="yes"/>
			<point x="1676" y="80"/>
			<point x="1676" y="86"/>
			<point x="1676" y="106" type="curve" smooth="yes"/>
			<point x="1676" y="118"/>
			<point x="1682" y="138"/>
			<point x="1684" y="150" type="curve" smooth="yes"/>
			<point x="1948" y="1204" type="line" smooth="yes"/>
			<point x="1966" y="1278"/>
			<point x="1970" y="1294"/>
			<point x="2118" y="1294" type="curve" smooth="yes"/>
			<point x="2160" y="1294"/>
			<point x="2186" y="1294"/>
			<point x="2186" y="1336" type="curve" smooth="yes"/>
			<point x="2186" y="1366"/>
			<point x="2162" y="1366"/>
			<point x="2126" y="1366" type="curve" smooth="yes"/>
			<point x="1854" y="1366" type="line" smooth="yes"/>
			<point x="1796" y="1366"/>
			<point x="1794" y="1364"/>
			<point x="1768" y="1326" type="curve" smooth="yes"/>
			<point x="996" y="186" type="line"/>
			<point x="798" y="1312" type="line" smooth="yes"/>
			<point x="788" y="1364"/>
			<point x="788" y="1366"/>
			<point x="728" y="1366" type="curve" smooth="yes"/>
			<point x="442" y="1366" type="line" smooth="yes"/>
			<point x="402" y="1366"/>
			<point x="376" y="1366"/>
			<point x="376" y="1322" type="curve" smooth="yes"/>
			<point x="376" y="1294"/>
			<point x="400" y="1294"/>
			<point x="444" y="1294" type="curve" smooth="yes"/>
			<point x="476" y="1294"/>
			<point x="484" y="1294"/>
			<point x="520" y="1290" type="curve" smooth="yes"/>
			<point x="560" y="1286"/>
			<point x="564" y="1282"/>
			<point x="564" y="1262" type="curve" smooth="yes"/>
			<point x="564" y="1260"/>
			<point x="564" y="1248"/>
			<point x="556" y="1218" type="curve" smooth="yes"/>
		</contour>
	</outline>
</glyph>
<glyph name="N" format="2">
	<unicode hex="004E"/>
	<advance width="904"/>
	<outline>
		<contour>
			<point x="147" y="107" type="line" smooth="yes"/>
			<point x="137" y="69"/>
			<point x="121" y="39"/>
			<point x="43" y="36" type="curve"/>
			<point x="36" y="36"/>
			<point x="22" y="35"/>
			<point x="22" y="15" type="curve" smooth="yes"/>
			<point x="22" y="4"/>
			<point x="30" y="0"/>
			<point x="37" y="0" type="curve" smooth="yes"/>
			<point x="70" y="0"/>
			<point x="107" y="4"/>
			<point x="141" y="4" type="curve" smooth="yes"/>
			<point x="165" y="4"/>
			<point x="223" y="0"/>
			<point x="247" y="0" type="curve" smooth="yes"/>
			<point x="257" y="0"/>
			<point x="267" y="5"/>
			<point x="267" y="21" type="curve" smooth="yes"/>
			<point x="267" y="35"/>
			<point x="255" y="36"/>
			<point x="244" y="36" type="curve" smooth="yes"/>
			<point x="181" y="38"/>
			<point x="181" y="64"/>
			<point x="181" y="78" type="curve" smooth="yes"/>
			<point x="181" y="82"/>
			<point x="181" y="87"/>
			<point x="185" y="103" type="curve" smooth="yes"/>
			<point x="313" y="615" type="line"/>
			<point x="313" y="615"/>
			<point x="313" y="615"/>
			<point x="313" y="615" type="curve"/>
			<point x="605" y="17" type="line" smooth="yes"/>
			<point x="613" y="1"/>
			<point x="617" y="0"/>
			<point x="627" y="0" type="curve" smooth="yes"/>
			<point x="643" y="0"/>
			<point x="643" y="3"/>
			<point x="648" y="21" type="curve" smooth="yes"/>
			<point x="787" y="574" type="line" smooth="yes"/>
			<point x="797" y="612"/>
			<point x="813" y="645"/>
			<point x="893" y="647" type="curve" smooth="yes"/>
			<point x="898" y="647"/>
			<point x="913" y="648"/>
			<point x="913" y="669" type="curve" smooth="yes"/>
			<point x="913" y="675"/>
			<point x="908" y="683"/>
			<point x="898" y="683" type="curve" smooth="yes"/>
			<point x="865" y="683"/>
			<point x="828" y="679"/>
			<point x="794" y="679" type="curve" smooth="yes"/>
			<point x="770" y="679"/>
			<point x="712" y="683"/>
			<point x="688" y="683" type="curve" smooth="yes"/>
			<point x="683" y="683"/>
			<point x="668" y="683"/>
			<point x="668" y="661" type="curve" smooth="yes"/>
			<point x="668" y="648"/>
			<point x="681" y="647"/>
			<point x="690" y="647" type="curve" smooth="yes"/>
			<point x="737" y="646"/>
			<point x="754" y="631"/>
			<point x="754" y="606" type="curve" smooth="yes"/>
			<point x="754" y="598"/>
			<point x="753" y="593"/>
			<point x="750" y="582" type="curve" smooth="yes"/>
			<point x="641" y="146" type="line"/>
			<point x="387" y="666" type="line" smooth="yes"/>
			<point x="379" y="683"/>
			<point x="377" y="683"/>
			<point x="353" y="683" type="curve" smooth="yes"/>
			<point x="216" y="683" type="line" smooth="yes"/>
			<point x="197" y="683"/>
			<point x="184" y="683"/>
			<point x="184" y="661" type="curve" smooth="yes"/>
			<point x="184" y="647"/>
			<point x="196" y="647"/>
			<point x="217" y="647" type="curve" smooth="yes"/>
			<point x="238" y="647"/>
			<point x="260" y="646"/>
			<point x="281" y="642" type="curve"/>
			<point x="281" y="642"/>
			<point x="281" y="642"/>
			<point x="281" y="642" type="curve"/>
		</contour>
	</outline>
</glyph>
<glyph name="O" format="2">
	<unicode hex="004F"/>
	<advance width="1736"/>
	<outline>
		<contour>
			<point x="1564" y="850" type="curve" smooth="yes"/>
			<point x="1564" y="1164"/>
			<point x="1338" y="1406"/>
			<point x="984" y="1406" type="curve" smooth="yes"/>
			<point x="506" y="1406"/>
			<point x="44" y="958"/>
			<point x="44" y="508" type="curve" smooth="yes"/>
			<point x="44" y="186"/>
			<point x="282" y="-40"/>
			<point x="626" y="-40" type="curve" smooth="yes"/>
			<point x="1102" y="-40"/>
			<point x="1564" y="396"/>
		</contour>
		<contour>
			<point x="642" y="26" type="curve" smooth="yes"/>
			<point x="430" y="26"/>
			<point x="250" y="170"/>
			<point x="250" y="466" type="curve" smooth="yes"/>
			<point x="250" y="568"/>
			<point x="278" y="852"/>
			<point x="462" y="1080" type="curve" smooth="yes"/>
			<point x="596" y="1244"/>
			<point x="790" y="1342"/>
			<point x="968" y="1342" type="curve" smooth="yes"/>
			<point x="1176" y="1342"/>
			<point x="1368" y="1210"/>
			<point x="1368" y="920" type="curve" smooth="yes"/>
			<point x="1368" y="774"/>
			<point x="1306" y="482"/>
			<point x="1120" y="268" type="curve" smooth="yes"/>
			<point x="980" y="108"/>
			<point x="798" y="26"/>
		</contour>
	</outline>
</glyph>
<glyph name="P" format="2">
	<unicode hex="0050"/>
	<advance width="727"/>
	<outline>
		<contour>
			<point x="228.4498125014" y="82" type="line" smooth="yes"/>
			<point x="218.4498125014" y="43"/>
			<point x="217.4498125014" y="36"/>
			<point x="139.4498125014" y="36" type="curve" smooth="yes"/>
			<point x="121.4498125014" y="36"/>
			<point x="109.4498125014" y="36"/>
			<point x="109.4498125014" y="14" type="curve" smooth="yes"/>
			<point x="109.4498125014" y="13"/>
			<point x="109.4498125014" y="0"/>
			<point x="125.4498125014" y="0" type="curve" smooth="yes"/>
			<point x="154.4498125014" y="0"/>
			<point x="226.4498125014" y="4"/>
			<point x="255.4498125014" y="4" type="curve" smooth="yes"/>
			<point x="272.4498125014" y="4"/>
			<point x="307.4498125014" y="4"/>
			<point x="324.4498125014" y="3" type="curve" smooth="yes"/>
			<point x="344.4498125014" y="2"/>
			<point x="369.4498125014" y="0"/>
			<point x="388.4498125014" y="0" type="curve" smooth="yes"/>
			<point x="394.4498125014" y="0"/>
			<point x="409.4498125014" y="0"/>
			<point x="409.4498125014" y="22" type="curve" smooth="yes"/>
			<point x="409.4498125014" y="36"/>
			<point x="397.4498125014" y="36"/>
			<point x="377.4498125014" y="36" type="curve" smooth="yes"/>
			<point x="376.4498125014" y="36"/>
			<point x="357.4498125014" y="36"/>
			<point x="339.4498125014" y="38" type="curve" smooth="yes"/>
			<point x="316.4498125014" y="40"/>
			<point x="316.4498125014" y="43"/>
			<point x="316.4498125014" y="53" type="curve" smooth="yes"/>
			<point x="316.4498125014" y="54"/>
			<point x="316.4498125014" y="60"/>
			<point x="320.4498125014" y="75" type="curve" smooth="yes"/>
			<point x="379.4498125014" y="310" type="line"/>
			<point x="560.4498125014" y="310" type="line" smooth="yes"/>
			<point x="729.4498125014" y="310"/>
			<point x="872.4498125014" y="418"/>
			<point x="872.4498125014" y="527" type="curve" smooth="yes"/>
			<point x="872.4498125014" y="611"/>
			<point x="790.4498125014" y="683"/>
			<point x="653.4498125014" y="683" type="curve" smooth="yes"/>
			<point x="303.4498125014" y="683" type="line" smooth="yes"/>
			<point x="283.4498125014" y="683"/>
			<point x="271.4498125014" y="683"/>
			<point x="271.4498125014" y="661" type="curve" smooth="yes"/>
			<point x="271.4498125014" y="647"/>
			<point x="282.4498125014" y="647"/>
			<point x="304.4498125014" y="647" type="curve" smooth="yes"/>
			<point x="320.4498125014" y="647"/>
			<point x="324.4498125014" y="647"/>
			<point x="342.4498125014" y="645" type="curve" smooth="yes"/>
			<point x="362.4498125014" y="643"/>
			<point x="364.4498125014" y="641"/>
			<point x="364.4498125014" y="631" type="curve" smooth="yes"/>
			<point x="364.4498125014" y="629"/>
			<point x="364.4498125014" y="624"/>
			<point x="360.4498125014" y="609" type="curve" smooth="yes"/>
		</contour>
		<contour>
			<point x="383.4498125014" y="342" type="line"/>
			<point x="451.4498125014" y="613" type="line" smooth="yes"/>
			<point x="459.4498125014" y="644"/>
			<point x="460.4498125014" y="647"/>
			<point x="502.4498125014" y="647" type="curve" smooth="yes"/>
			<point x="619.4498125014" y="647" type="line" smooth="yes"/>
			<point x="712.4498125014" y="647"/>
			<point x="770.4498125014" y="619"/>
			<point x="770.4498125014" y="548" type="curve" smooth="yes"/>
			<point x="770.4498125014" y="517"/>
			<point x="758.4498125014" y="438"/>
			<point x="708.4498125014" y="393" type="curve" smooth="yes"/>
			<point x="672.4498125014" y="361"/>
			<point x="615.4498125014" y="342"/>
			<point x="543.4498125014" y="342" type="curve" smooth="yes"/>
		</contour>
	</outline>
</glyph>
<glyph name="Q" format="2">
	<unicode hex="0051"/>
	<advance width="1798"/>
	<outline>
		<contour>
			<point x="106.8996250027" y="508" type="curve" smooth="yes"/>
			<point x="106.8996250027" y="186"/>
			<point x="344.8996250027" y="-40"/>
			<point x="688.8996250027" y="-40" type="curve" smooth="yes"/>
			<point x="726.8996250027" y="-40"/>
			<point x="794.8996250027" y="-38"/>
			<point x="898.8996250027" y="-12" type="curve"/>
			<point x="898.8996250027" y="-48"/>
			<point x="898.8996250027" y="-84"/>
			<point x="898.8996250027" y="-120" type="curve" smooth="yes"/>
			<point x="898.8996250027" y="-250"/>
			<point x="924.8996250027" y="-388"/>
			<point x="1088.8996250027" y="-388" type="curve" smooth="yes"/>
			<point x="1330.8996250027" y="-388"/>
			<point x="1446.8996250027" y="-44"/>
			<point x="1446.8996250027" y="0" type="curve" smooth="yes"/>
			<point x="1446.8996250027" y="14"/>
			<point x="1434.8996250027" y="28"/>
			<point x="1418.8996250027" y="28" type="curve" smooth="yes"/>
			<point x="1398.8996250027" y="28"/>
			<point x="1392.8996250027" y="10"/>
			<point x="1390.8996250027" y="2" type="curve"/>
			<point x="1342.8996250027" y="-138"/>
			<point x="1210.8996250027" y="-178"/>
			<point x="1142.8996250027" y="-178" type="curve" smooth="yes"/>
			<point x="1062.8996250027" y="-178"/>
			<point x="1020.8996250027" y="-144"/>
			<point x="984.8996250027" y="16" type="curve"/>
			<point x="1340.8996250027" y="142"/>
			<point x="1626.8996250027" y="496"/>
			<point x="1626.8996250027" y="850" type="curve" smooth="yes"/>
			<point x="1626.8996250027" y="1164"/>
			<point x="1400.8996250027" y="1406"/>
			<point x="1046.8996250027" y="1406" type="curve" smooth="yes"/>
			<point x="568.8996250027" y="1406"/>
			<point x="106.8996250027" y="958"/>
		</contour>
		<contour>
			<point x="300.8996250027" y="458" type="curve" smooth="yes"/>
			<point x="300.8996250027" y="586"/>
			<point x="342.8996250027" y="852"/>
			<point x="524.8996250027" y="1078" type="curve" smooth="yes"/>
			<point x="650.8996250027" y="1232"/>
			<point x="844.8996250027" y="1342"/>
			<point x="1030.8996250027" y="1342" type="curve" smooth="yes"/>
			<point x="1248.8996250027" y="1342"/>
			<point x="1432.8996250027" y="1196"/>
			<point x="1432.8996250027" y="904" type="curve" smooth="yes"/>
			<point x="1432.8996250027" y="704"/>
			<point x="1334.8996250027" y="274"/>
			<point x="968.8996250027" y="92" type="curve"/>
			<point x="936.8996250027" y="218"/>
			<point x="884.8996250027" y="302"/>
			<point x="766.8996250027" y="302" type="curve" smooth="yes"/>
			<point x="654.8996250027" y="302"/>
			<point x="544.8996250027" y="208"/>
			<point x="544.8996250027" y="102" type="curve" smooth="yes"/>
			<point x="544.8996250027" y="66"/>
			<point x="546.8996250027" y="64"/>
			<point x="552.8996250027" y="50" type="curve"/>
			<point x="448.8996250027" y="86"/>
			<point x="300.8996250027" y="190"/>
		</contour>
		<contour>
			<point x="600.8996250027" y="102" type="curve" smooth="yes"/>
			<point x="600.8996250027" y="178"/>
			<point x="682.8996250027" y="246"/>
			<point x="766.8996250027" y="246" type="curve" smooth="yes"/>
			<point x="838.8996250027" y="246"/>
			<point x="892.8996250027" y="214"/>
			<point x="898.8996250027" y="60" type="curve"/>
			<point x="854.8996250027" y="44"/>
			<point x="780.8996250027" y="24"/>
			<point x="702.8996250027" y="24" type="curve" smooth="yes"/>
			<point x="670.8996250027" y="24"/>
			<point x="600.8996250027" y="24"/>
		</contour>
	</outline>
</glyph>
<glyph name="R" format="2">
	<unicode hex="0052"/>
	<advance width="860"/>
	<outline>
		<contour>
			<point x="302" y="356" type="line"/>
			<point x="366" y="613" type="line" smooth="yes"/>
			<point x="373" y="641"/>
			<point x="375" y="647"/>
			<point x="397" y="647" type="curve" smooth="yes"/>
			<point x="418.312" y="647"/>
			<point x="439.624" y="647"/>
			<point x="461" y="647" type="curve" smooth="yes"/>
			<point x="554" y="647"/>
			<point x="669" y="647"/>
			<point x="669" y="544" type="curve" smooth="yes"/>
			<point x="669" y="503"/>
			<point x="650" y="440"/>
			<point x="603" y="404" type="curve" smooth="yes"/>
			<point x="562" y="372"/>
			<point x="500" y="356"/>
			<point x="431" y="356" type="curve" smooth="yes"/>
		</contour>
		<contour>
			<point x="772" y="529" type="curve" smooth="yes"/>
			<point x="772" y="615"/>
			<point x="670" y="683"/>
			<point x="525" y="683" type="curve" smooth="yes"/>
			<point x="218" y="683" type="line" smooth="yes"/>
			<point x="199" y="683"/>
			<point x="186" y="683"/>
			<point x="186" y="661" type="curve" smooth="yes"/>
			<point x="186" y="647"/>
			<point x="198" y="647"/>
			<point x="218" y="647" type="curve" smooth="yes"/>
			<point x="219" y="647"/>
			<point x="238" y="647"/>
			<point x="256" y="645" type="curve" smooth="yes"/>
			<point x="277" y="643"/>
			<point x="279" y="641"/>
			<point x="279" y="631" type="curve" smooth="yes"/>
			<point x="279" y="629"/>
			<point x="279" y="624"/>
			<point x="275" y="609" type="curve" smooth="yes"/>
			<point x="142" y="78" type="line" smooth="yes"/>
			<point x="134" y="44"/>
			<point x="132" y="36"/>
			<point x="54" y="36" type="curve" smooth="yes"/>
			<point x="37" y="36"/>
			<point x="24" y="36"/>
			<point x="24" y="15" type="curve" smooth="yes"/>
			<point x="24" y="5"/>
			<point x="31" y="0"/>
			<point x="40" y="0" type="curve" smooth="yes"/>
			<point x="59" y="0"/>
			<point x="82" y="3"/>
			<point x="102" y="3" type="curve" smooth="yes"/>
			<point x="142" y="3"/>
			<point x="192.1" y="3"/>
			<point x="232" y="3" type="curve" smooth="yes"/>
			<point x="253" y="3"/>
			<point x="278" y="0"/>
			<point x="299" y="0" type="curve" smooth="yes"/>
			<point x="304" y="0"/>
			<point x="320" y="0"/>
			<point x="320" y="21" type="curve" smooth="yes"/>
			<point x="320" y="36"/>
			<point x="310" y="36"/>
			<point x="287" y="36" type="curve" smooth="yes"/>
			<point x="271" y="36"/>
			<point x="267" y="36"/>
			<point x="249" y="38" type="curve" smooth="yes"/>
			<point x="227" y="41"/>
			<point x="227" y="43"/>
			<point x="227" y="53" type="curve" smooth="yes"/>
			<point x="227" y="54"/>
			<point x="227" y="60"/>
			<point x="231" y="75" type="curve" smooth="yes"/>
			<point x="294" y="328" type="line"/>
			<point x="430" y="328" type="line" smooth="yes"/>
			<point x="516" y="328"/>
			<point x="553" y="285"/>
			<point x="553" y="238" type="curve" smooth="yes"/>
			<point x="553" y="225"/>
			<point x="544" y="191"/>
			<point x="539" y="168" type="curve" smooth="yes"/>
			<point x="527" y="122"/>
			<point x="523" y="107"/>
			<point x="523" y="90" type="curve" smooth="yes"/>
			<point x="523" y="11"/>
			<point x="596" y="-20"/>
			<point x="670" y="-20" type="curve" smooth="yes"/>
			<point x="762" y="-20"/>
			<point x="802" y="78"/>
			<point x="802" y="96" type="curve" smooth="yes"/>
			<point x="802" y="99"/>
			<point x="800" y="110"/>
			<point x="785" y="110" type="curve" smooth="yes"/>
			<point x="772" y="110"/>
			<point x="770" y="103"/>
			<point x="767" y="93" type="curve" smooth="yes"/>
			<point x="753" y="49"/>
			<point x="716" y="8"/>
			<point x="674" y="8" type="curve" smooth="yes"/>
			<point x="648" y="8"/>
			<point x="629" y="19"/>
			<point x="629" y="73" type="curve" smooth="yes"/>
			<point x="629" y="98"/>
			<point x="635" y="150"/>
			<point x="639" y="177" type="curve" smooth="yes"/>
			<point x="643" y="204"/>
			<point x="643" y="214"/>
			<point x="643" y="224" type="curve" smooth="yes"/>
			<point x="643" y="255"/>
			<point x="633" y="309"/>
			<point x="547" y="340" type="curve"/>
			<point x="666" y="368"/>
			<point x="772" y="440"/>
		</contour>
	</outline>
</glyph>
<glyph name="S" format="2">
  <advance width="701"/>
  <unicode hex="0053"/>
  <outline>
    <contour>
      <point x="238.4498125013535" y="474.0" type="curve" smooth="yes"/>
      <point x="238.4498125013535" y="459.0"/>
      <point x="241.4498125013535" y="419.0"/>
      <point x="271.4498125013535" y="382.0" type="curve" smooth="yes"/>
      <point x="305.4498125013535" y="342.0"/>
      <point x="342.4498125013535" y="333.0"/>
      <point x="410.4498125013535" y="317.0" type="curve" smooth="yes"/>
      <point x="430.4498125013535" y="312.0"/>
      <point x="480.4498125013535" y="301.0"/>
      <point x="495.4498125013535" y="297.0" type="curve" smooth="yes"/>
      <point x="527.4498125013534" y="289.0"/>
      <point x="588.4498125013534" y="267.0"/>
      <point x="588.4498125013534" y="192.0" type="curve" smooth="yes"/>
      <point x="588.4498125013534" y="111.0"/>
      <point x="503.4498125013535" y="16.0"/>
      <point x="389.4498125013535" y="16.0" type="curve" smooth="yes"/>
      <point x="301.4498125013535" y="16.0"/>
      <point x="195.4498125013535" y="47.0"/>
      <point x="195.4498125013535" y="158.0" type="curve" smooth="yes"/>
      <point x="195.4498125013535" y="185.0"/>
      <point x="202.4498125013535" y="209.0"/>
      <point x="202.4498125013535" y="214.0" type="curve" smooth="yes"/>
      <point x="202.4498125013535" y="227.0"/>
      <point x="190.4498125013535" y="227.0"/>
      <point x="186.4498125013535" y="227.0" type="curve" smooth="yes"/>
      <point x="172.4498125013535" y="227.0"/>
      <point x="172.4498125013535" y="225.0"/>
      <point x="167.4498125013535" y="207.0" type="curve" smooth="yes"/>
      <point x="150.13381250135353" y="139.068"/>
      <point x="132.8178125013535" y="71.136"/>
      <point x="115.44981250135352" y="3.0" type="curve" smooth="yes"/>
      <point x="112.44981250135352" y="-8.0"/>
      <point x="112.44981250135352" y="-20.0"/>
      <point x="125.44981250135352" y="-20.0" type="curve" smooth="yes"/>
      <point x="132.4498125013535" y="-20.0"/>
      <point x="134.4498125013535" y="-19.0"/>
      <point x="147.4498125013535" y="-6.0" type="curve" smooth="yes"/>
      <point x="158.4498125013535" y="6.0"/>
      <point x="184.4498125013535" y="37.0"/>
      <point x="195.4498125013535" y="50.0" type="curve"/>
      <point x="248.4498125013535" y="-8.0"/>
      <point x="326.4498125013535" y="-20.0"/>
      <point x="386.4498125013535" y="-20.0" type="curve" smooth="yes"/>
      <point x="537.4498125013534" y="-20.0"/>
      <point x="659.4498125013534" y="110.0"/>
      <point x="659.4498125013534" y="228.0" type="curve" smooth="yes"/>
      <point x="659.4498125013534" y="272.0"/>
      <point x="641.4498125013534" y="312.0"/>
      <point x="619.4498125013534" y="335.0" type="curve" smooth="yes"/>
      <point x="584.4498125013534" y="371.0"/>
      <point x="569.4498125013534" y="375.0"/>
      <point x="440.4498125013535" y="405.0" type="curve" smooth="yes"/>
      <point x="419.4498125013535" y="410.0"/>
      <point x="386.4498125013535" y="418.0"/>
      <point x="377.4498125013535" y="421.0" type="curve" smooth="yes"/>
      <point x="352.4498125013535" y="430.0"/>
      <point x="310.4498125013535" y="455.0"/>
      <point x="310.4498125013535" y="512.0" type="curve" smooth="yes"/>
      <point x="310.4498125013535" y="591.0"/>
      <point x="399.4498125013535" y="671.0"/>
      <point x="503.4498125013535" y="671.0" type="curve" smooth="yes"/>
      <point x="611.4498125013534" y="671.0"/>
      <point x="663.4498125013534" y="610.0"/>
      <point x="663.4498125013534" y="515.0" type="curve" smooth="yes"/>
      <point x="663.4498125013534" y="502.0"/>
      <point x="659.4498125013534" y="479.0"/>
      <point x="659.4498125013534" y="470.0" type="curve" smooth="yes"/>
      <point x="659.4498125013534" y="456.0"/>
      <point x="671.4498125013534" y="456.0"/>
      <point x="676.4498125013534" y="456.0" type="curve" smooth="yes"/>
      <point x="691.4498125013534" y="456.0"/>
      <point x="692.4498125013534" y="461.0"/>
      <point x="696.4498125013534" y="478.0" type="curve" smooth="yes"/>
      <point x="748.4498125013534" y="690.0" type="line"/>
      <point x="748.4498125013534" y="695.0"/>
      <point x="745.4498125013534" y="703.0"/>
      <point x="735.4498125013534" y="703.0" type="curve" smooth="yes"/>
      <point x="729.4498125013534" y="703.0"/>
      <point x="728.4498125013534" y="702.0"/>
      <point x="715.4498125013534" y="689.0" type="curve"/>
      <point x="699.1328125013536" y="670.019"/>
      <point x="682.8158125013535" y="651.038"/>
      <point x="666.4498125013534" y="632.0" type="curve"/>
      <point x="628.4498125013534" y="685.0"/>
      <point x="565.4498125013534" y="703.0"/>
      <point x="504.4498125013535" y="703.0" type="curve" smooth="yes"/>
      <point x="363.4498125013535" y="703.0"/>
      <point x="238.4498125013535" y="589.0"/>
    </contour>
  </outline>
</glyph>
<glyph name="T" format="2">
	<unicode hex="0054"/>
	<advance width="674"/>
	<outline>
		<contour>
			<point x="214" y="83" type="line" smooth="yes"/>
			<point x="206.99998" y="54.22214"/>
			<point x="203.6296103704" y="41.7777066668"/>
			<point x="153.0736407395" y="37.6680031826" type="curve" smooth="yes"/>
			<point x="138.6292637032" y="36.493817284"/>
			<point x="120.3331" y="36"/>
			<point x="97" y="36" type="curve" smooth="yes"/>
			<point x="61" y="36"/>
			<point x="52" y="36"/>
			<point x="52" y="14" type="curve" smooth="yes"/>
			<point x="52" y="11"/>
			<point x="54" y="0"/>
			<point x="69" y="0" type="curve" smooth="yes"/>
			<point x="97" y="0"/>
			<point x="127" y="3"/>
			<point x="155" y="3" type="curve" smooth="yes"/>
			<point x="212" y="4"/>
			<point x="275" y="5"/>
			<point x="331" y="3" type="curve" smooth="yes"/>
			<point x="358" y="2"/>
			<point x="388" y="0"/>
			<point x="415" y="0" type="curve" smooth="yes"/>
			<point x="423" y="0"/>
			<point x="438" y="0"/>
			<point x="438" y="22" type="curve" smooth="yes"/>
			<point x="438" y="36"/>
			<point x="428" y="36"/>
			<point x="397" y="36" type="curve" smooth="yes"/>
			<point x="378" y="36"/>
			<point x="358" y="37"/>
			<point x="339" y="38" type="curve" smooth="yes"/>
			<point x="305" y="40"/>
			<point x="296.14286" y="42"/>
			<point x="307" y="80" type="curve" smooth="yes"/>
			<point x="439" y="605" type="line" smooth="yes"/>
			<point x="446" y="634"/>
			<point x="448" y="639"/>
			<point x="474" y="639" type="curve" smooth="yes"/>
			<point x="512.125" y="639.625"/>
			<point x="555" y="641"/>
			<point x="590.42578125" y="639.3125" type="curve" smooth="yes"/>
			<point x="688" y="635"/>
			<point x="689" y="598.96442"/>
			<point x="689" y="553" type="curve" smooth="yes"/>
			<point x="689" y="537"/>
			<point x="688" y="511"/>
			<point x="681" y="466" type="curve" smooth="yes"/>
			<point x="679" y="451"/>
			<point x="685" y="446"/>
			<point x="697" y="446" type="curve" smooth="yes"/>
			<point x="712" y="446"/>
			<point x="714" y="455"/>
			<point x="716" y="471" type="curve" smooth="yes"/>
			<point x="743" y="659" type="line" smooth="yes"/>
			<point x="745" y="676"/>
			<point x="731" y="676"/>
			<point x="715" y="676" type="curve" smooth="yes"/>
			<point x="98" y="676" type="line" smooth="yes"/>
			<point x="73" y="676"/>
			<point x="71" y="676"/>
			<point x="64" y="655" type="curve" smooth="yes"/>
			<point x="1" y="478" type="line" smooth="yes"/>
			<point x="0" y="474"/>
			<point x="-4" y="465"/>
			<point x="-4" y="460" type="curve" smooth="yes"/>
			<point x="-4" y="456"/>
			<point x="-2" y="446"/>
			<point x="13" y="446" type="curve" smooth="yes"/>
			<point x="26" y="446"/>
			<point x="28" y="451"/>
			<point x="34" y="470" type="curve" smooth="yes"/>
			<point x="92" y="630"/>
			<point x="125" y="640"/>
			<point x="277" y="640" type="curve" smooth="yes"/>
			<point x="319" y="640" type="line" smooth="yes"/>
			<point x="349" y="640"/>
			<point x="350" y="639"/>
			<point x="350" y="630" type="curve" smooth="yes"/>
			<point x="350" y="629"/>
			<point x="350" y="624"/>
			<point x="346" y="609" type="curve" smooth="yes"/>
		</contour>
	</outline>
</glyph>
<glyph name="U" format="2">
	<unicode hex="0055"/>
	<advance width="1556"/>
	<outline>
		<contour>
			<point x="534" y="-40" type="curve" smooth="yes"/>
			<point x="810" y="-40"/>
			<point x="1078" y="184"/>
			<point x="1144" y="446" type="curve" smooth="yes"/>
			<point x="1203" y="680"/>
			<point x="1261" y="914"/>
			<point x="1320" y="1148" type="curve" smooth="yes"/>
			<point x="1340" y="1226"/>
			<point x="1372" y="1290"/>
			<point x="1532" y="1294" type="curve" smooth="yes"/>
			<point x="1542" y="1294"/>
			<point x="1572" y="1296"/>
			<point x="1572" y="1338" type="curve" smooth="yes"/>
			<point x="1572" y="1350"/>
			<point x="1562" y="1366"/>
			<point x="1542" y="1366" type="curve" smooth="yes"/>
			<point x="1515" y="1366"/>
			<point x="1486" y="1364"/>
			<point x="1457" y="1363" type="curve" smooth="yes"/>
			<point x="1388" y="1360"/>
			<point x="1321" y="1357"/>
			<point x="1249" y="1361" type="curve" smooth="yes"/>
			<point x="1205" y="1363"/>
			<point x="1161" y="1366"/>
			<point x="1126" y="1366" type="curve" smooth="yes"/>
			<point x="1116" y="1366"/>
			<point x="1086" y="1366"/>
			<point x="1086" y="1322" type="curve" smooth="yes"/>
			<point x="1086" y="1296"/>
			<point x="1112" y="1294"/>
			<point x="1130" y="1294" type="curve" smooth="yes"/>
			<point x="1224" y="1292"/>
			<point x="1258" y="1262"/>
			<point x="1258" y="1212" type="curve" smooth="yes"/>
			<point x="1258" y="1202"/>
			<point x="1256" y="1192"/>
			<point x="1254" y="1184" type="curve" smooth="yes"/>
			<point x="1224" y="1054"/>
			<point x="1078" y="452"/>
			<point x="1052" y="390" type="curve" smooth="yes"/>
			<point x="940" y="134"/>
			<point x="706" y="32"/>
			<point x="542" y="32" type="curve" smooth="yes"/>
			<point x="408" y="32"/>
			<point x="266" y="100"/>
			<point x="266" y="298" type="curve" smooth="yes"/>
			<point x="266" y="346"/>
			<point x="272" y="394"/>
			<point x="284" y="440" type="curve" smooth="yes"/>
			<point x="478" y="1210" type="line" smooth="yes"/>
			<point x="496" y="1278"/>
			<point x="500" y="1294"/>
			<point x="654" y="1294" type="curve" smooth="yes"/>
			<point x="688" y="1294"/>
			<point x="714" y="1294"/>
			<point x="714" y="1338" type="curve" smooth="yes"/>
			<point x="714" y="1346"/>
			<point x="708" y="1366"/>
			<point x="682" y="1366" type="curve" smooth="yes"/>
			<point x="624" y="1366"/>
			<point x="498" y="1358"/>
			<point x="440" y="1358" type="curve" smooth="yes"/>
			<point x="406" y="1358"/>
			<point x="316" y="1358"/>
			<point x="282" y="1360" type="curve" smooth="yes"/>
			<point x="242" y="1362"/>
			<point x="194" y="1366"/>
			<point x="156" y="1366" type="curve" smooth="yes"/>
			<point x="144" y="1366"/>
			<point x="114" y="1366"/>
			<point x="114" y="1322" type="curve" smooth="yes"/>
			<point x="114" y="1294"/>
			<point x="138" y="1294"/>
			<point x="178" y="1294" type="curve" smooth="yes"/>
			<point x="180" y="1294"/>
			<point x="218" y="1294"/>
			<point x="254" y="1290" type="curve" smooth="yes"/>
			<point x="296" y="1286"/>
			<point x="300" y="1282"/>
			<point x="300" y="1262" type="curve" smooth="yes"/>
			<point x="300" y="1250"/>
			<point x="280" y="1172"/>
			<point x="268" y="1128" type="curve" smooth="yes"/>
			<point x="215" y="917"/>
			<point x="163" y="706"/>
			<point x="110" y="494" type="curve" smooth="yes"/>
			<point x="90" y="412"/>
			<point x="90" y="396"/>
			<point x="90" y="356" type="curve" smooth="yes"/>
			<point x="90" y="108"/>
			<point x="294" y="-40"/>
		</contour>
	</outline>
</glyph>
<glyph name="V" format="2">
	<unicode hex="0056"/>
	<advance width="674"/>
	<outline>
		<contour>
			<point x="252" y="-20" type="curve" smooth="yes"/>
			<point x="271" y="-20"/>
			<point x="276" y="-13"/>
			<point x="286" y="2" type="curve" smooth="yes"/>
			<point x="668" y="564" type="line" smooth="yes"/>
			<point x="705" y="618"/>
			<point x="737" y="643"/>
			<point x="791" y="647" type="curve" smooth="yes"/>
			<point x="803" y="648"/>
			<point x="814" y="649"/>
			<point x="814" y="669" type="curve" smooth="yes"/>
			<point x="814" y="672"/>
			<point x="812" y="683"/>
			<point x="800" y="683" type="curve" smooth="yes"/>
			<point x="776" y="683"/>
			<point x="745" y="679"/>
			<point x="720" y="679" type="curve" smooth="yes"/>
			<point x="688" y="679"/>
			<point x="646" y="683"/>
			<point x="616" y="683" type="curve" smooth="yes"/>
			<point x="607" y="683"/>
			<point x="596" y="680"/>
			<point x="596" y="661" type="curve" smooth="yes"/>
			<point x="596" y="648"/>
			<point x="610" y="647"/>
			<point x="614" y="647" type="curve" smooth="yes"/>
			<point x="646" y="647"/>
			<point x="655" y="633"/>
			<point x="655" y="618" type="curve" smooth="yes"/>
			<point x="655" y="604"/>
			<point x="648" y="594"/>
			<point x="637" y="578" type="curve" smooth="yes"/>
			<point x="309" y="94" type="line"/>
			<point x="218" y="605" type="line" smooth="yes"/>
			<point x="216" y="614"/>
			<point x="216" y="616"/>
			<point x="216" y="620" type="curve" smooth="yes"/>
			<point x="216" y="647"/>
			<point x="272" y="647"/>
			<point x="279" y="647" type="curve" smooth="yes"/>
			<point x="296" y="647"/>
			<point x="309" y="647"/>
			<point x="309" y="669" type="curve" smooth="yes"/>
			<point x="309" y="670"/>
			<point x="308" y="683"/>
			<point x="292" y="683" type="curve" smooth="yes"/>
			<point x="276" y="683"/>
			<point x="247" y="682"/>
			<point x="220" y="681" type="curve" smooth="yes"/>
			<point x="183" y="679"/>
			<point x="160" y="679"/>
			<point x="123" y="680" type="curve" smooth="yes"/>
			<point x="97" y="681"/>
			<point x="68" y="683"/>
			<point x="52" y="683" type="curve" smooth="yes"/>
			<point x="43" y="683"/>
			<point x="32" y="680"/>
			<point x="32" y="661" type="curve" smooth="yes"/>
			<point x="32" y="647"/>
			<point x="46" y="647"/>
			<point x="57" y="647" type="curve" smooth="yes"/>
			<point x="113" y="647"/>
			<point x="114" y="641"/>
			<point x="119" y="615" type="curve" smooth="yes"/>
			<point x="228" y="7" type="line" smooth="yes"/>
			<point x="232" y="-14"/>
			<point x="233" y="-20"/>
		</contour>
	</outline>
</glyph>
<glyph name="W" format="2">
	<unicode hex="0057"/>
	<advance width="1074"/>
	<outline>
		<contour>
			<point x="539" y="514" type="line"/>
			<point x="594" y="6" type="line" smooth="yes"/>
			<point x="596" y="-15"/>
			<point x="601" y="-20"/>
			<point x="616" y="-20" type="curve" smooth="yes"/>
			<point x="633" y="-20"/>
			<point x="639" y="-11"/>
			<point x="646" y="1" type="curve" smooth="yes"/>
			<point x="989" y="565" type="line"/>
			<point x="1026" y="621"/>
			<point x="1052" y="643"/>
			<point x="1101" y="647" type="curve" smooth="yes"/>
			<point x="1112" y="648"/>
			<point x="1124" y="649"/>
			<point x="1124" y="669" type="curve" smooth="yes"/>
			<point x="1124" y="676"/>
			<point x="1118" y="683"/>
			<point x="1110" y="683" type="curve" smooth="yes"/>
			<point x="1087" y="683"/>
			<point x="1058" y="679"/>
			<point x="1034" y="679" type="curve" smooth="yes"/>
			<point x="999" y="679"/>
			<point x="956" y="683"/>
			<point x="923" y="683" type="curve" smooth="yes"/>
			<point x="918" y="683"/>
			<point x="902" y="683"/>
			<point x="902" y="661" type="curve" smooth="yes"/>
			<point x="902" y="648"/>
			<point x="916" y="647"/>
			<point x="920" y="647" type="curve" smooth="yes"/>
			<point x="942" y="646"/>
			<point x="975" y="640"/>
			<point x="975" y="612" type="curve" smooth="yes"/>
			<point x="975" y="601"/>
			<point x="964" y="583"/>
			<point x="960" y="576" type="curve" smooth="yes"/>
			<point x="678" y="113" type="line"/>
			<point x="623" y="616" type="line" smooth="yes"/>
			<point x="620" y="646"/>
			<point x="681" y="647"/>
			<point x="693" y="647" type="curve" smooth="yes"/>
			<point x="706" y="647"/>
			<point x="720" y="647"/>
			<point x="720" y="669" type="curve" smooth="yes"/>
			<point x="720" y="670"/>
			<point x="719" y="683"/>
			<point x="703" y="683" type="curve" smooth="yes"/>
			<point x="684" y="683"/>
			<point x="660" y="681"/>
			<point x="641" y="680" type="curve" smooth="yes"/>
			<point x="621" y="679"/>
			<point x="573" y="679"/>
			<point x="550" y="680" type="curve" smooth="yes"/>
			<point x="527" y="681"/>
			<point x="493" y="683"/>
			<point x="470" y="683" type="curve" smooth="yes"/>
			<point x="465" y="683"/>
			<point x="450" y="683"/>
			<point x="450" y="661" type="curve" smooth="yes"/>
			<point x="450" y="647"/>
			<point x="463" y="647"/>
			<point x="476" y="647" type="curve" smooth="yes"/>
			<point x="519" y="647"/>
			<point x="524" y="640"/>
			<point x="527" y="630" type="curve" smooth="yes"/>
			<point x="528" y="624"/>
			<point x="531" y="594"/>
			<point x="534" y="565" type="curve"/>
			<point x="534" y="565"/>
			<point x="534" y="565"/>
			<point x="534" y="565" type="curve"/>
			<point x="259" y="113" type="line"/>
			<point x="204" y="617" type="line" smooth="yes"/>
			<point x="201" y="646"/>
			<point x="266" y="647"/>
			<point x="274" y="647" type="curve" smooth="yes"/>
			<point x="287" y="647"/>
			<point x="301" y="647"/>
			<point x="301" y="669" type="curve" smooth="yes"/>
			<point x="301" y="673"/>
			<point x="298" y="683"/>
			<point x="285" y="683" type="curve" smooth="yes"/>
			<point x="268" y="683"/>
			<point x="238" y="681"/>
			<point x="209" y="680" type="curve" smooth="yes"/>
			<point x="165" y="679"/>
			<point x="141" y="679"/>
			<point x="112" y="680" type="curve" smooth="yes"/>
			<point x="91" y="681"/>
			<point x="69" y="683"/>
			<point x="51" y="683" type="curve" smooth="yes"/>
			<point x="41" y="683"/>
			<point x="31" y="679"/>
			<point x="31" y="662" type="curve" smooth="yes"/>
			<point x="31" y="647"/>
			<point x="43" y="647"/>
			<point x="59" y="647" type="curve" smooth="yes"/>
			<point x="106" y="647"/>
			<point x="106" y="641"/>
			<point x="109" y="616" type="curve" smooth="yes"/>
			<point x="176" y="7" type="line" smooth="yes"/>
			<point x="178" y="-13"/>
			<point x="179" y="-20"/>
			<point x="197" y="-20" type="curve" smooth="yes"/>
			<point x="214" y="-20"/>
			<point x="221" y="-11"/>
			<point x="227" y="0" type="curve" smooth="yes"/>
		</contour>
	</outline>
</glyph>
<glyph name="X" format="2">
	<unicode hex="0058"/>
	<advance width="936"/>
	<outline>
		<contour>
			<point x="594.4498125014" y="382" type="curve"/>
			<point x="626.0848125014" y="413.635"/>
			<point x="657.7198125014" y="445.27"/>
			<point x="689.4498125014" y="477" type="curve" smooth="yes"/>
			<point x="817.4498125014" y="603"/>
			<point x="856.4498125014" y="642"/>
			<point x="946.4498125014" y="647" type="curve" smooth="yes"/>
			<point x="959.4498125014" y="648"/>
			<point x="971.4498125014" y="648"/>
			<point x="971.4498125014" y="668" type="curve" smooth="yes"/>
			<point x="971.4498125014" y="680"/>
			<point x="960.4498125014" y="683"/>
			<point x="957.4498125014" y="683" type="curve" smooth="yes"/>
			<point x="928.4498125014" y="683"/>
			<point x="893.4498125014" y="679"/>
			<point x="863.4498125014" y="679" type="curve" smooth="yes"/>
			<point x="837.4498125014" y="679"/>
			<point x="773.4498125014" y="683"/>
			<point x="747.4498125014" y="683" type="curve" smooth="yes"/>
			<point x="739.4498125014" y="683"/>
			<point x="727.4498125014" y="680"/>
			<point x="727.4498125014" y="661" type="curve" smooth="yes"/>
			<point x="727.4498125014" y="660"/>
			<point x="727.4498125014" y="648"/>
			<point x="742.4498125014" y="647" type="curve" smooth="yes"/>
			<point x="751.4498125014" y="646"/>
			<point x="776.4498125014" y="644"/>
			<point x="776.4498125014" y="622" type="curve" smooth="yes"/>
			<point x="776.4498125014" y="607"/>
			<point x="761.4498125014" y="591"/>
			<point x="751.4498125014" y="581" type="curve" smooth="yes"/>
			<point x="579.4498125014" y="412" type="line"/>
			<point x="478.4498125014" y="608" type="line" smooth="yes"/>
			<point x="475.4498125014" y="614"/>
			<point x="473.4498125014" y="618"/>
			<point x="473.4498125014" y="622" type="curve" smooth="yes"/>
			<point x="473.4498125014" y="629"/>
			<point x="492.4498125014" y="647"/>
			<point x="526.4498125014" y="647" type="curve" smooth="yes"/>
			<point x="533.4498125014" y="647"/>
			<point x="547.4498125014" y="648"/>
			<point x="547.4498125014" y="669" type="curve" smooth="yes"/>
			<point x="547.4498125014" y="670"/>
			<point x="546.4498125014" y="683"/>
			<point x="530.4498125014" y="683" type="curve" smooth="yes"/>
			<point x="509.4498125014" y="683"/>
			<point x="484.4498125014" y="681"/>
			<point x="463.4498125014" y="680" type="curve" smooth="yes"/>
			<point x="425.4498125014" y="679"/>
			<point x="379.6851025014" y="677.76471"/>
			<point x="339.4498125014" y="680" type="curve" smooth="yes"/>
			<point x="322.4498125014" y="681"/>
			<point x="301.4498125014" y="683"/>
			<point x="285.4498125014" y="683" type="curve" smooth="yes"/>
			<point x="280.4498125014" y="683"/>
			<point x="264.4498125014" y="683"/>
			<point x="264.4498125014" y="661" type="curve" smooth="yes"/>
			<point x="264.4498125014" y="647"/>
			<point x="277.4498125014" y="647"/>
			<point x="293.4498125014" y="647" type="curve" smooth="yes"/>
			<point x="351.4498125014" y="647"/>
			<point x="356.4498125014" y="637"/>
			<point x="366.4498125014" y="617" type="curve" smooth="yes"/>
			<point x="413.0698125014" y="525.092"/>
			<point x="459.6898125014" y="433.184"/>
			<point x="506.4498125014" y="341" type="curve"/>
			<point x="431.4498125014" y="266"/>
			<point x="384.4498125014" y="222"/>
			<point x="366.4498125014" y="203" type="curve" smooth="yes"/>
			<point x="244.4498125014" y="82"/>
			<point x="203.4498125014" y="40"/>
			<point x="113.4498125014" y="36" type="curve" smooth="yes"/>
			<point x="99.4498125014" y="35"/>
			<point x="88.4498125014" y="35"/>
			<point x="88.4498125014" y="14" type="curve" smooth="yes"/>
			<point x="88.4498125014" y="10"/>
			<point x="91.4498125014" y="0"/>
			<point x="102.4498125014" y="0" type="curve" smooth="yes"/>
			<point x="131.4498125014" y="0"/>
			<point x="165.4498125014" y="4"/>
			<point x="205.4498125014" y="4" type="curve" smooth="yes"/>
			<point x="260.4498125014" y="4"/>
			<point x="278.3912625014" y="0"/>
			<point x="311.4498125014" y="0" type="curve" smooth="yes"/>
			<point x="316.4498125014" y="0"/>
			<point x="332.4498125014" y="0"/>
			<point x="332.4498125014" y="21" type="curve" smooth="yes"/>
			<point x="332.4498125014" y="35"/>
			<point x="320.4498125014" y="36"/>
			<point x="314.4498125014" y="36" type="curve" smooth="yes"/>
			<point x="304.4498125014" y="36"/>
			<point x="283.4498125014" y="40"/>
			<point x="283.4498125014" y="61" type="curve" smooth="yes"/>
			<point x="283.4498125014" y="77"/>
			<point x="296.4498125014" y="90"/>
			<point x="318.4498125014" y="112" type="curve" smooth="yes"/>
			<point x="386.0488125014" y="178.267"/>
			<point x="453.6478125014" y="244.534"/>
			<point x="521.4498125014" y="311" type="curve"/>
			<point x="642.4498125014" y="74" type="line" smooth="yes"/>
			<point x="647.4498125014" y="64"/>
			<point x="648.4498125014" y="62"/>
			<point x="648.4498125014" y="61" type="curve" smooth="yes"/>
			<point x="648.4498125014" y="55"/>
			<point x="630.4498125014" y="39"/>
			<point x="595.4498125014" y="36" type="curve" smooth="yes"/>
			<point x="586.4498125014" y="35"/>
			<point x="573.4498125014" y="35"/>
			<point x="573.4498125014" y="14" type="curve" smooth="yes"/>
			<point x="573.4498125014" y="13"/>
			<point x="574.4498125014" y="0"/>
			<point x="590.4498125014" y="0" type="curve" smooth="yes"/>
			<point x="611.4498125014" y="0"/>
			<point x="636.4498125014" y="3"/>
			<point x="657.4498125014" y="3" type="curve" smooth="yes"/>
			<point x="695.4498125014" y="3"/>
			<point x="741.2145225014" y="5.23529"/>
			<point x="781.4498125014" y="3" type="curve" smooth="yes"/>
			<point x="798.4498125014" y="2"/>
			<point x="819.4498125014" y="0"/>
			<point x="835.4498125014" y="0" type="curve" smooth="yes"/>
			<point x="840.4498125014" y="0"/>
			<point x="856.4498125014" y="0"/>
			<point x="856.4498125014" y="22" type="curve" smooth="yes"/>
			<point x="856.4498125014" y="36"/>
			<point x="843.4498125014" y="36"/>
			<point x="827.4498125014" y="36" type="curve" smooth="yes"/>
			<point x="769.4498125014" y="36"/>
			<point x="764.4498125014" y="47"/>
			<point x="755.4498125014" y="64" type="curve" smooth="yes"/>
			<point x="701.8368125014" y="169.894"/>
			<point x="648.2238125014" y="275.788"/>
		</contour>
	</outline>
</glyph>
<glyph name="Y" format="2">
	<unicode hex="0059"/>
	<advance width="1342"/>
	<outline>
		<contour>
			<point x="708" y="638" type="line"/>
			<point x="444" y="1224" type="line" smooth="yes"/>
			<point x="430" y="1252"/>
			<point x="430" y="1256"/>
			<point x="430" y="1258" type="curve" smooth="yes"/>
			<point x="430" y="1294"/>
			<point x="526" y="1294"/>
			<point x="538" y="1294" type="curve" smooth="yes"/>
			<point x="564" y="1294"/>
			<point x="590" y="1294"/>
			<point x="590" y="1338" type="curve" smooth="yes"/>
			<point x="590" y="1340"/>
			<point x="590" y="1366"/>
			<point x="558" y="1366" type="curve" smooth="yes"/>
			<point x="526" y="1366"/>
			<point x="468" y="1364"/>
			<point x="412" y="1362" type="curve" smooth="yes"/>
			<point x="338" y="1358"/>
			<point x="297" y="1357"/>
			<point x="224" y="1360" type="curve" smooth="yes"/>
			<point x="167" y="1362"/>
			<point x="96" y="1366"/>
			<point x="62" y="1366" type="curve" smooth="yes"/>
			<point x="46" y="1366"/>
			<point x="22" y="1360"/>
			<point x="22" y="1322" type="curve" smooth="yes"/>
			<point x="22" y="1294"/>
			<point x="48" y="1294"/>
			<point x="76" y="1294" type="curve" smooth="yes"/>
			<point x="192" y="1294"/>
			<point x="200" y="1276"/>
			<point x="220" y="1232" type="curve" smooth="yes"/>
			<point x="530" y="548" type="line"/>
			<point x="530" y="548"/>
			<point x="530" y="548"/>
			<point x="530" y="548" type="curve"/>
			<point x="500" y="426"/>
			<point x="470" y="304"/>
			<point x="440" y="182" type="curve" smooth="yes"/>
			<point x="414" y="80"/>
			<point x="412" y="74"/>
			<point x="256" y="72" type="curve" smooth="yes"/>
			<point x="222" y="72"/>
			<point x="196" y="72"/>
			<point x="196" y="30" type="curve" smooth="yes"/>
			<point x="196" y="10"/>
			<point x="210" y="0"/>
			<point x="228" y="0" type="curve" smooth="yes"/>
			<point x="266" y="0"/>
			<point x="312" y="6"/>
			<point x="352" y="6" type="curve" smooth="yes"/>
			<point x="432" y="8"/>
			<point x="532" y="8"/>
			<point x="612" y="6" type="curve" smooth="yes"/>
			<point x="654" y="4"/>
			<point x="704" y="0"/>
			<point x="746" y="0" type="curve" smooth="yes"/>
			<point x="758" y="0"/>
			<point x="790" y="0"/>
			<point x="790" y="44" type="curve" smooth="yes"/>
			<point x="790" y="72"/>
			<point x="766" y="72"/>
			<point x="722" y="72" type="curve" smooth="yes"/>
			<point x="690" y="72"/>
			<point x="682" y="72"/>
			<point x="646" y="76" type="curve" smooth="yes"/>
			<point x="608" y="80"/>
			<point x="602" y="84"/>
			<point x="602" y="104" type="curve" smooth="yes"/>
			<point x="602" y="116"/>
			<point x="626" y="212"/>
			<point x="640" y="266" type="curve" smooth="yes"/>
			<point x="661" y="348"/>
			<point x="681" y="430"/>
			<point x="702" y="512" type="curve" smooth="yes"/>
			<point x="710" y="542"/>
			<point x="710" y="546"/>
			<point x="730" y="566" type="curve" smooth="yes"/>
			<point x="1262" y="1126" type="line" smooth="yes"/>
			<point x="1300" y="1166"/>
			<point x="1340" y="1202"/>
			<point x="1384" y="1232" type="curve" smooth="yes"/>
			<point x="1466" y="1288"/>
			<point x="1540" y="1292"/>
			<point x="1566" y="1294" type="curve" smooth="yes"/>
			<point x="1588" y="1296"/>
			<point x="1612" y="1296"/>
			<point x="1612" y="1338" type="curve" smooth="yes"/>
			<point x="1612" y="1352"/>
			<point x="1600" y="1366"/>
			<point x="1584" y="1366" type="curve" smooth="yes"/>
			<point x="1534" y="1366"/>
			<point x="1474" y="1358"/>
			<point x="1422" y="1358" type="curve" smooth="yes"/>
			<point x="1358" y="1358"/>
			<point x="1274" y="1366"/>
			<point x="1214" y="1366" type="curve" smooth="yes"/>
			<point x="1204" y="1366"/>
			<point x="1174" y="1366"/>
			<point x="1174" y="1322" type="curve" smooth="yes"/>
			<point x="1174" y="1296"/>
			<point x="1200" y="1294"/>
			<point x="1210" y="1294" type="curve" smooth="yes"/>
			<point x="1268" y="1292"/>
			<point x="1268" y="1268"/>
			<point x="1268" y="1256" type="curve" smooth="yes"/>
			<point x="1268" y="1228"/>
			<point x="1224" y="1176"/>
			<point x="1208" y="1160" type="curve" smooth="yes"/>
		</contour>
	</outline>
</glyph>
<glyph name="Z" format="2">
	<unicode hex="005A"/>
	<advance width="778"/>
	<outline>
		<contour>
			<point x="718.4498125014" y="647" type="line"/>
			<point x="135.4498125014" y="44" type="line" smooth="yes"/>
			<point x="128.4498125014" y="37"/>
			<point x="118.4498125014" y="27"/>
			<point x="118.4498125014" y="11" type="curve" smooth="yes"/>
			<point x="118.4498125014" y="0"/>
			<point x="127.4498125014" y="0"/>
			<point x="145.4498125014" y="0" type="curve" smooth="yes"/>
			<point x="629.4498125014" y="0" type="line" smooth="yes"/>
			<point x="655.4498125014" y="0"/>
			<point x="656.4498125014" y="1"/>
			<point x="662.4498125014" y="20" type="curve" smooth="yes"/>
			<point x="734.4498125014" y="243" type="line" smooth="yes"/>
			<point x="738.4498125014" y="256"/>
			<point x="738.4498125014" y="258"/>
			<point x="738.4498125014" y="259" type="curve" smooth="yes"/>
			<point x="738.4498125014" y="260"/>
			<point x="738.4498125014" y="273"/>
			<point x="722.4498125014" y="273" type="curve" smooth="yes"/>
			<point x="709.4498125014" y="273"/>
			<point x="707.4498125014" y="269"/>
			<point x="700.4498125014" y="247" type="curve" smooth="yes"/>
			<point x="654.4498125014" y="110"/>
			<point x="603.4498125014" y="40"/>
			<point x="429.4498125014" y="40" type="curve" smooth="yes"/>
			<point x="238.4498125014" y="40" type="line"/>
			<point x="821.4498125014" y="644" type="line" smooth="yes"/>
			<point x="829.4498125014" y="652"/>
			<point x="835.4498125014" y="659"/>
			<point x="835.4498125014" y="672" type="curve" smooth="yes"/>
			<point x="835.4498125014" y="683"/>
			<point x="827.4498125014" y="683"/>
			<point x="808.4498125014" y="683" type="curve" smooth="yes"/>
			<point x="341.4498125014" y="683" type="line" smooth="yes"/>
			<point x="315.4498125014" y="683"/>
			<point x="314.4498125014" y="682"/>
			<point x="308.4498125014" y="663" type="curve" smooth="yes"/>
			<point x="252.4498125014" y="483" type="line" smooth="yes"/>
			<point x="248.4498125014" y="471"/>
			<point x="248.4498125014" y="470"/>
			<point x="248.4498125014" y="467" type="curve" smooth="yes"/>
			<point x="248.4498125014" y="462"/>
			<point x="252.4498125014" y="453"/>
			<point x="265.4498125014" y="453" type="curve" smooth="yes"/>
			<point x="278.4498125014" y="453"/>
			<point x="280.4498125014" y="459"/>
			<point x="283.4498125014" y="469" type="curve" smooth="yes"/>
			<point x="331.4498125014" y="610"/>
			<point x="409.4498125014" y="647"/>
			<point x="538.4498125014" y="647" type="curve" smooth="yes"/>
		</contour>
	</outline>
</glyph>
<glyph name="a" format="2">
	<unicode hex="0061"/>
	<advance width="619"/>
	<outline>
		<contour>
			<point x="14" y="156" type="curve" smooth="yes"/>
			<point x="14" y="59"/>
			<point x="79" y="-10"/>
			<point x="165" y="-10" type="curve" smooth="yes"/>
			<point x="219" y="-10"/>
			<point x="267" y="21"/>
			<point x="307" y="60" type="curve"/>
			<point x="326" y="0"/>
			<point x="384" y="-10"/>
			<point x="410" y="-10" type="curve" smooth="yes"/>
			<point x="446" y="-10"/>
			<point x="471" y="12"/>
			<point x="489" y="43" type="curve" smooth="yes"/>
			<point x="511" y="82"/>
			<point x="524" y="139"/>
			<point x="524" y="143" type="curve" smooth="yes"/>
			<point x="524" y="156"/>
			<point x="511" y="156"/>
			<point x="508" y="156" type="curve" smooth="yes"/>
			<point x="494" y="156"/>
			<point x="493" y="152"/>
			<point x="486" y="125" type="curve" smooth="yes"/>
			<point x="474" y="77"/>
			<point x="455" y="18"/>
			<point x="413" y="18" type="curve" smooth="yes"/>
			<point x="387" y="18"/>
			<point x="380" y="40"/>
			<point x="380" y="67" type="curve" smooth="yes"/>
			<point x="380" y="84"/>
			<point x="389" y="120"/>
			<point x="395" y="146" type="curve" smooth="yes"/>
			<point x="401" y="173"/>
			<point x="412" y="214"/>
			<point x="437" y="312" type="curve" smooth="yes"/>
			<point x="444" y="338"/>
			<point x="455" y="385"/>
			<point x="455" y="390" type="curve" smooth="yes"/>
			<point x="455" y="412"/>
			<point x="437" y="422"/>
			<point x="421" y="422" type="curve" smooth="yes"/>
			<point x="404" y="422"/>
			<point x="381" y="410"/>
			<point x="375" y="382" type="curve"/>
			<point x="354" y="415"/>
			<point x="320" y="441"/>
			<point x="272" y="441" type="curve" smooth="yes"/>
			<point x="144" y="441"/>
			<point x="14" y="300"/>
		</contour>
		<contour>
			<point x="95" y="115" type="curve" smooth="yes"/>
			<point x="95" y="168"/>
			<point x="124" y="278"/>
			<point x="147" y="318" type="curve" smooth="yes"/>
			<point x="193" y="398"/>
			<point x="244" y="413"/>
			<point x="272" y="413" type="curve" smooth="yes"/>
			<point x="342" y="413"/>
			<point x="361" y="337"/>
			<point x="361" y="326" type="curve" smooth="yes"/>
			<point x="361" y="322"/>
			<point x="359" y="315"/>
			<point x="358" y="312" type="curve"/>
			<point x="342.349" y="249.729"/>
			<point x="326.698" y="187.458"/>
			<point x="311" y="125" type="curve" smooth="yes"/>
			<point x="304" y="97"/>
			<point x="282" y="77"/>
			<point x="260" y="58" type="curve" smooth="yes"/>
			<point x="251" y="50"/>
			<point x="211" y="18"/>
			<point x="168" y="18" type="curve" smooth="yes"/>
			<point x="131" y="18"/>
			<point x="95" y="44"/>
		</contour>
	</outline>
</glyph>
<glyph name="b" format="2">
	<unicode hex="0062"/>
	<advance width="1004"/>
	<outline>
		<contour>
			<point x="332" y="-20" type="curve" smooth="yes"/>
			<point x="582" y="-20"/>
			<point x="848" y="252"/>
			<point x="848" y="548" type="curve" smooth="yes"/>
			<point x="848" y="782"/>
			<point x="686" y="882"/>
			<point x="548" y="882" type="curve" smooth="yes"/>
			<point x="444" y="882"/>
			<point x="356" y="824"/>
			<point x="296" y="772" type="curve"/>
			<point x="434" y="1328" type="line" smooth="yes"/>
			<point x="436" y="1332"/>
			<point x="442" y="1358"/>
			<point x="442" y="1360" type="curve" smooth="yes"/>
			<point x="442" y="1370"/>
			<point x="434" y="1388"/>
			<point x="410" y="1388" type="curve" smooth="yes"/>
			<point x="370" y="1388"/>
			<point x="204" y="1372"/>
			<point x="154" y="1368" type="curve" smooth="yes"/>
			<point x="138" y="1366"/>
			<point x="110" y="1364"/>
			<point x="110" y="1322" type="curve" smooth="yes"/>
			<point x="110" y="1294"/>
			<point x="138" y="1294"/>
			<point x="162" y="1294" type="curve" smooth="yes"/>
			<point x="258" y="1294"/>
			<point x="258" y="1280"/>
			<point x="258" y="1264" type="curve" smooth="yes"/>
			<point x="258" y="1250"/>
			<point x="238" y="1170"/>
			<point x="226" y="1124" type="curve" smooth="yes"/>
			<point x="162" y="872"/>
			<point x="52" y="434"/>
			<point x="48" y="408" type="curve" smooth="yes"/>
			<point x="38" y="360"/>
			<point x="38" y="334"/>
			<point x="38" y="310" type="curve" smooth="yes"/>
			<point x="38" y="108"/>
			<point x="166" y="-20"/>
		</contour>
		<contour>
			<point x="334" y="36" type="curve" smooth="yes"/>
			<point x="236" y="36"/>
			<point x="180" y="122"/>
			<point x="180" y="240" type="curve" smooth="yes"/>
			<point x="180" y="296"/>
			<point x="190" y="350"/>
			<point x="220" y="472" type="curve" smooth="yes"/>
			<point x="230" y="510"/>
			<point x="240" y="554"/>
			<point x="254" y="608" type="curve"/>
			<point x="266" y="646"/>
			<point x="266" y="650"/>
			<point x="304" y="694" type="curve" smooth="yes"/>
			<point x="380" y="782"/>
			<point x="470" y="826"/>
			<point x="542" y="826" type="curve" smooth="yes"/>
			<point x="620" y="826"/>
			<point x="688" y="768"/>
			<point x="688" y="632" type="curve" smooth="yes"/>
			<point x="688" y="550"/>
			<point x="644" y="346"/>
			<point x="584" y="230" type="curve" smooth="yes"/>
			<point x="536" y="132"/>
			<point x="436" y="36"/>
		</contour>
	</outline>
</glyph>
<glyph name="c" format="2">
  <advance width="510"/>
  <unicode hex="0063"/>
  <outline>
    <contour>
      <point x="100.44981250135352" y="164.0" type="curve" smooth="yes"/>
      <point x="100.44981250135352" y="78.0"/>
      <point x="160.4498125013535" y="-10.0"/>
      <point x="285.4498125013535" y="-10.0" type="curve" smooth="yes"/>
      <point x="348.14374250135353" y="-10.0"/>
      <point x="398.4519858203535" y="3.6242553491"/>
      <point x="436.9361191257535" y="21.479119974" type="curve" smooth="yes"/>
      <point x="502.1911919702535" y="51.7544670235"/>
      <point x="533.4498125013534" y="94.19358"/>
      <point x="533.4498125013534" y="103.0" type="curve" smooth="yes"/>
      <point x="533.4498125013534" y="109.0"/>
      <point x="524.4498125013534" y="120.0"/>
      <point x="516.4498125013534" y="120.0" type="curve" smooth="yes"/>
      <point x="510.4498125013535" y="120.0"/>
      <point x="508.4498125013535" y="118.0"/>
      <point x="500.4498125013535" y="110.0" type="curve"/>
      <point x="422.4498125013535" y="18.0"/>
      <point x="305.4498125013535" y="18.0"/>
      <point x="287.4498125013535" y="18.0" type="curve" smooth="yes"/>
      <point x="215.4498125013535" y="18.0"/>
      <point x="183.4498125013535" y="67.0"/>
      <point x="183.4498125013535" y="129.0" type="curve" smooth="yes"/>
      <point x="183.4498125013535" y="158.0"/>
      <point x="197.4498125013535" y="267.0"/>
      <point x="249.4498125013535" y="336.0" type="curve" smooth="yes"/>
      <point x="287.4498125013535" y="385.0"/>
      <point x="339.4498125013535" y="413.0"/>
      <point x="389.4498125013535" y="413.0" type="curve" smooth="yes"/>
      <point x="403.4498125013535" y="413.0"/>
      <point x="451.4498125013535" y="411.0"/>
      <point x="476.4498125013535" y="383.0" type="curve"/>
      <point x="464.4499325013535" y="381.00002"/>
      <point x="454.7833391682535" y="376.5556444442"/>
      <point x="447.2278169463535" y="370.7038792588" type="curve" smooth="yes"/>
      <point x="432.1165458348535" y="359.0001733334"/>
      <point x="425.4498125013535" y="341.66674"/>
      <point x="425.4498125013535" y="327.0" type="curve" smooth="yes"/>
      <point x="425.4498125013535" y="300.0"/>
      <point x="446.4498125013535" y="290.0"/>
      <point x="464.4498125013535" y="290.0" type="curve" smooth="yes"/>
      <point x="486.4498125013535" y="290.0"/>
      <point x="521.4498125013534" y="306.0"/>
      <point x="521.4498125013534" y="354.0" type="curve" smooth="yes"/>
      <point x="521.4498125013534" y="422.0"/>
      <point x="443.4498125013535" y="441.0"/>
      <point x="389.4498125013535" y="441.0" type="curve" smooth="yes"/>
      <point x="239.4498125013535" y="441.0"/>
      <point x="100.44981250135352" y="303.0"/>
    </contour>
  </outline>
</glyph>
<glyph name="d" format="2">
	<unicode hex="0064"/>
	<advance width="1188"/>
	<outline>
		<contour>
			<point x="330" y="-20" type="curve" smooth="yes"/>
			<point x="438" y="-20"/>
			<point x="534" y="42"/>
			<point x="614" y="120" type="curve"/>
			<point x="652" y="0"/>
			<point x="768" y="-20"/>
			<point x="820" y="-20" type="curve" smooth="yes"/>
			<point x="892" y="-20"/>
			<point x="942" y="24"/>
			<point x="978" y="86" type="curve" smooth="yes"/>
			<point x="1022" y="164"/>
			<point x="1048" y="278"/>
			<point x="1048" y="286" type="curve" smooth="yes"/>
			<point x="1048" y="312"/>
			<point x="1022" y="312"/>
			<point x="1016" y="312" type="curve" smooth="yes"/>
			<point x="988" y="312"/>
			<point x="986" y="304"/>
			<point x="972" y="250" type="curve" smooth="yes"/>
			<point x="948" y="154"/>
			<point x="910" y="36"/>
			<point x="826" y="36" type="curve" smooth="yes"/>
			<point x="774" y="36"/>
			<point x="760" y="80"/>
			<point x="760" y="134" type="curve" smooth="yes"/>
			<point x="760" y="172"/>
			<point x="764" y="190"/>
			<point x="770" y="216" type="curve" smooth="yes"/>
			<point x="1048" y="1328" type="line"/>
			<point x="1050" y="1332"/>
			<point x="1056" y="1358"/>
			<point x="1056" y="1360" type="curve" smooth="yes"/>
			<point x="1056" y="1370"/>
			<point x="1048" y="1388"/>
			<point x="1024" y="1388" type="curve" smooth="yes"/>
			<point x="984" y="1388"/>
			<point x="818" y="1372"/>
			<point x="768" y="1368" type="curve" smooth="yes"/>
			<point x="752" y="1366"/>
			<point x="724" y="1364"/>
			<point x="724" y="1322" type="curve" smooth="yes"/>
			<point x="724" y="1294"/>
			<point x="752" y="1294"/>
			<point x="776" y="1294" type="curve" smooth="yes"/>
			<point x="872" y="1294"/>
			<point x="872" y="1280"/>
			<point x="872" y="1264" type="curve" smooth="yes"/>
			<point x="872" y="1250"/>
			<point x="868" y="1238"/>
			<point x="864" y="1220" type="curve" smooth="yes"/>
			<point x="826" y="1068"/>
			<point x="788" y="916"/>
			<point x="750" y="764" type="curve"/>
			<point x="708" y="830"/>
			<point x="640" y="882"/>
			<point x="544" y="882" type="curve" smooth="yes"/>
			<point x="288" y="882"/>
			<point x="28" y="600"/>
			<point x="28" y="312" type="curve" smooth="yes"/>
			<point x="28" y="118"/>
			<point x="158" y="-20"/>
		</contour>
		<contour>
			<point x="336" y="36" type="curve" smooth="yes"/>
			<point x="262" y="36"/>
			<point x="190" y="88"/>
			<point x="190" y="230" type="curve" smooth="yes"/>
			<point x="190" y="336"/>
			<point x="248" y="556"/>
			<point x="294" y="636" type="curve" smooth="yes"/>
			<point x="386" y="796"/>
			<point x="488" y="826"/>
			<point x="544" y="826" type="curve" smooth="yes"/>
			<point x="684" y="826"/>
			<point x="722" y="674"/>
			<point x="722" y="652" type="curve" smooth="yes"/>
			<point x="722" y="644"/>
			<point x="718" y="630"/>
			<point x="716" y="624" type="curve"/>
			<point x="685" y="499"/>
			<point x="653" y="375"/>
			<point x="622" y="250" type="curve" smooth="yes"/>
			<point x="608" y="194"/>
			<point x="564" y="154"/>
			<point x="520" y="116" type="curve" smooth="yes"/>
			<point x="502" y="100"/>
			<point x="422" y="36"/>
		</contour>
	</outline>
</glyph>
<glyph name="e" format="2">
	<unicode hex="0065"/>
	<advance width="542"/>
	<outline>
		<contour>
			<point x="105.4498125014" y="178" type="curve" smooth="yes"/>
			<point x="105.4498125014" y="77"/>
			<point x="168.4498125014" y="-10"/>
			<point x="285.4498125014" y="-10" type="curve" smooth="yes"/>
			<point x="352.9129225014" y="-10"/>
			<point x="406.0342934524" y="5.7759129539"/>
			<point x="445.513657209" y="25.6231332926" type="curve" smooth="yes"/>
			<point x="504.9329726695" y="55.4946442315"/>
			<point x="533.4498125014" y="94.58866"/>
			<point x="533.4498125014" y="103" type="curve" smooth="yes"/>
			<point x="533.4498125014" y="109"/>
			<point x="524.4498125014" y="120"/>
			<point x="516.4498125014" y="120" type="curve" smooth="yes"/>
			<point x="510.4498125014" y="120"/>
			<point x="508.4498125014" y="118"/>
			<point x="500.4498125014" y="110" type="curve"/>
			<point x="422.4498125014" y="18"/>
			<point x="305.4498125014" y="18"/>
			<point x="287.4498125014" y="18" type="curve" smooth="yes"/>
			<point x="227.4498125014" y="18"/>
			<point x="187.4498125014" y="58"/>
			<point x="187.4498125014" y="139" type="curve" smooth="yes"/>
			<point x="187.4498125014" y="153"/>
			<point x="187.4498125014" y="173"/>
			<point x="199.4498125014" y="228" type="curve"/>
			<point x="220.4288125014" y="228"/>
			<point x="241.4078125014" y="228"/>
			<point x="262.4498125014" y="228" type="curve" smooth="yes"/>
			<point x="290.4498125014" y="228"/>
			<point x="369.4498125014" y="230"/>
			<point x="423.4498125014" y="249" type="curve" smooth="yes"/>
			<point x="497.4498125014" y="275"/>
			<point x="511.4498125014" y="323"/>
			<point x="511.4498125014" y="353" type="curve" smooth="yes"/>
			<point x="511.4498125014" y="408"/>
			<point x="456.4498125014" y="441"/>
			<point x="387.4498125014" y="441" type="curve" smooth="yes"/>
			<point x="267.4498125014" y="441"/>
			<point x="105.4498125014" y="349"/>
		</contour>
		<contour>
			<point x="207.4498125014" y="256" type="curve"/>
			<point x="248.4498125014" y="401"/>
			<point x="359.4498125014" y="413"/>
			<point x="387.4498125014" y="413" type="curve" smooth="yes"/>
			<point x="431.4498125014" y="413"/>
			<point x="468.4498125014" y="391"/>
			<point x="468.4498125014" y="353" type="curve" smooth="yes"/>
			<point x="468.4498125014" y="256"/>
			<point x="299.4498125014" y="256"/>
			<point x="256.4498125014" y="256" type="curve" smooth="yes"/>
			<point x="240.1328125014" y="256"/>
			<point x="223.8158125014" y="256"/>
		</contour>
	</outline>
</glyph>
<glyph name="f" format="2">
	<unicode hex="0066"/>
	<advance width="1114"/>
	<outline>
		<contour>
			<point x="720" y="790" type="curve"/>
			<point x="916" y="790" type="line" smooth="yes"/>
			<point x="956" y="790"/>
			<point x="982" y="790"/>
			<point x="982" y="834" type="curve" smooth="yes"/>
			<point x="982" y="862"/>
			<point x="956" y="862"/>
			<point x="920" y="862" type="curve" smooth="yes"/>
			<point x="734" y="862" type="line"/>
			<point x="780" y="1116"/>
			<point x="796" y="1208"/>
			<point x="812" y="1266" type="curve" smooth="yes"/>
			<point x="817" y="1286"/>
			<point x="828" y="1305"/>
			<point x="844" y="1321" type="curve" smooth="yes"/>
			<point x="862" y="1339"/>
			<point x="888" y="1352"/>
			<point x="914" y="1352" type="curve" smooth="yes"/>
			<point x="916" y="1352"/>
			<point x="970" y="1352"/>
			<point x="1008" y="1328" type="curve"/>
			<point x="926" y="1302"/>
			<point x="920" y="1230"/>
			<point x="920" y="1218" type="curve" smooth="yes"/>
			<point x="920" y="1174"/>
			<point x="954" y="1144"/>
			<point x="1000" y="1144" type="curve" smooth="yes"/>
			<point x="1054" y="1144"/>
			<point x="1114" y="1190"/>
			<point x="1114" y="1266" type="curve" smooth="yes"/>
			<point x="1114" y="1358"/>
			<point x="1016" y="1408"/>
			<point x="914" y="1408" type="curve" smooth="yes"/>
			<point x="826" y="1408"/>
			<point x="728" y="1358"/>
			<point x="674" y="1258" type="curve" smooth="yes"/>
			<point x="634" y="1184"/>
			<point x="618" y="1094"/>
			<point x="576" y="862" type="curve"/>
			<point x="418" y="862" type="line" smooth="yes"/>
			<point x="378" y="862"/>
			<point x="352" y="862"/>
			<point x="352" y="818" type="curve" smooth="yes"/>
			<point x="352" y="790"/>
			<point x="378" y="790"/>
			<point x="414" y="790" type="curve" smooth="yes"/>
			<point x="562" y="790" type="line"/>
			<point x="561" y="784"/>
			<point x="530" y="609"/>
			<point x="494" y="407" type="curve" smooth="yes"/>
			<point x="455" y="195"/>
			<point x="411" y="-47"/>
			<point x="386" y="-156" type="curve" smooth="yes"/>
			<point x="376" y="-200"/>
			<point x="342" y="-352"/>
			<point x="246" y="-352" type="curve" smooth="yes"/>
			<point x="244" y="-352"/>
			<point x="196" y="-352"/>
			<point x="158" y="-328" type="curve"/>
			<point x="240" y="-302"/>
			<point x="246" y="-230"/>
			<point x="246" y="-218" type="curve" smooth="yes"/>
			<point x="246" y="-174"/>
			<point x="212" y="-144"/>
			<point x="166" y="-144" type="curve" smooth="yes"/>
			<point x="112" y="-144"/>
			<point x="52" y="-190"/>
			<point x="52" y="-266" type="curve" smooth="yes"/>
			<point x="52" y="-356"/>
			<point x="146" y="-408"/>
			<point x="246" y="-408" type="curve" smooth="yes"/>
			<point x="374" y="-408"/>
			<point x="462" y="-276"/>
			<point x="486" y="-232" type="curve" smooth="yes"/>
			<point x="558" y="-98"/>
			<point x="604" y="148"/>
			<point x="608" y="172" type="curve" smooth="yes"/>
			<point x="645" y="378"/>
			<point x="683" y="584"/>
		</contour>
	</outline>
</glyph>
<glyph name="g" format="2">
	<unicode hex="0067"/>
	<advance width="557"/>
	<outline>
		<contour>
			<point x="50" y="164" type="curve" smooth="yes"/>
			<point x="50" y="61"/>
			<point x="120" y="0"/>
			<point x="202" y="0" type="curve" smooth="yes"/>
			<point x="248" y="0"/>
			<point x="292" y="23"/>
			<point x="327" y="54" type="curve"/>
			<point x="327" y="54" type="line"/>
			<point x="319.674" y="24.03"/>
			<point x="312.348" y="-5.94"/>
			<point x="305" y="-36" type="curve" smooth="yes"/>
			<point x="295" y="-78"/>
			<point x="287" y="-105"/>
			<point x="249" y="-139" type="curve" smooth="yes"/>
			<point x="205" y="-176"/>
			<point x="162" y="-176"/>
			<point x="137" y="-176" type="curve" smooth="yes"/>
			<point x="91" y="-176"/>
			<point x="78" y="-173"/>
			<point x="60" y="-169" type="curve"/>
			<point x="85" y="-157"/>
			<point x="92" y="-133"/>
			<point x="92" y="-119" type="curve" smooth="yes"/>
			<point x="92" y="-95"/>
			<point x="73" y="-82"/>
			<point x="53" y="-82" type="curve" smooth="yes"/>
			<point x="25" y="-82"/>
			<point x="-4" y="-105"/>
			<point x="-4" y="-143" type="curve" smooth="yes"/>
			<point x="-4" y="-203"/>
			<point x="82" y="-204"/>
			<point x="138" y="-204" type="curve" smooth="yes"/>
			<point x="295" y="-204"/>
			<point x="362" y="-124"/>
			<point x="376" y="-67" type="curve" smooth="yes"/>
			<point x="485" y="369" type="line" smooth="yes"/>
			<point x="489" y="384"/>
			<point x="489" y="389"/>
			<point x="489" y="390" type="curve" smooth="yes"/>
			<point x="489" y="412"/>
			<point x="471" y="422"/>
			<point x="455" y="422" type="curve" smooth="yes"/>
			<point x="432" y="422"/>
			<point x="413" y="403"/>
			<point x="409" y="384" type="curve"/>
			<point x="392" y="411"/>
			<point x="358" y="441"/>
			<point x="306" y="441" type="curve" smooth="yes"/>
			<point x="181" y="441"/>
			<point x="50" y="307"/>
		</contour>
		<contour>
			<point x="347" y="133" type="line" smooth="yes"/>
			<point x="343" y="118"/>
			<point x="343" y="116"/>
			<point x="326" y="96" type="curve" smooth="yes"/>
			<point x="291" y="54"/>
			<point x="243" y="28"/>
			<point x="205" y="28" type="curve" smooth="yes"/>
			<point x="154" y="28"/>
			<point x="130" y="71"/>
			<point x="130" y="123" type="curve" smooth="yes"/>
			<point x="130" y="167"/>
			<point x="157" y="279"/>
			<point x="183" y="323" type="curve" smooth="yes"/>
			<point x="225" y="393"/>
			<point x="272" y="413"/>
			<point x="306" y="413" type="curve" smooth="yes"/>
			<point x="376" y="413"/>
			<point x="395" y="338"/>
			<point x="395" y="328" type="curve" smooth="yes"/>
			<point x="395" y="326"/>
			<point x="395" y="324"/>
			<point x="392" y="313" type="curve" smooth="yes"/>
		</contour>
	</outline>
</glyph>
<glyph name="h" format="2">
  <advance width="668"/>
  <unicode hex="0068"/>
  <outline>
    <contour>
      <point x="436.4498125013535" y="441.0" type="curve" smooth="yes"/>
      <point x="365.4498125013535" y="441.0"/>
      <point x="312.4498125013535" y="401.0"/>
      <point x="275.4498125013535" y="358.0" type="curve"/>
      <point x="351.4498125013535" y="664.0" type="line"/>
      <point x="352.4498125013535" y="666.0"/>
      <point x="355.4498125013535" y="679.0"/>
      <point x="355.4498125013535" y="680.0" type="curve" smooth="yes"/>
      <point x="355.4498125013535" y="685.0"/>
      <point x="351.4498125013535" y="694.0"/>
      <point x="339.4498125013535" y="694.0" type="curve" smooth="yes"/>
      <point x="319.4498125013535" y="694.0"/>
      <point x="236.4498125013535" y="686.0"/>
      <point x="211.4498125013535" y="684.0" type="curve" smooth="yes"/>
      <point x="203.4498125013535" y="683.0"/>
      <point x="189.4498125013535" y="682.0"/>
      <point x="189.4498125013535" y="661.0" type="curve" smooth="yes"/>
      <point x="189.4498125013535" y="647.0"/>
      <point x="203.4498125013535" y="647.0"/>
      <point x="215.4498125013535" y="647.0" type="curve" smooth="yes"/>
      <point x="263.4498125013535" y="647.0"/>
      <point x="263.4498125013535" y="640.0"/>
      <point x="263.4498125013535" y="632.0" type="curve" smooth="yes"/>
      <point x="263.4498125013535" y="625.0"/>
      <point x="261.4498125013535" y="619.0"/>
      <point x="259.4498125013535" y="610.0" type="curve" smooth="yes"/>
      <point x="118.44981250135352" y="44.0" type="line" smooth="yes"/>
      <point x="113.44981250135352" y="26.0"/>
      <point x="113.44981250135352" y="24.0"/>
      <point x="113.44981250135352" y="22.0" type="curve" smooth="yes"/>
      <point x="113.44981250135352" y="7.0"/>
      <point x="125.44981250135352" y="-10.0"/>
      <point x="147.4498125013535" y="-10.0" type="curve" smooth="yes"/>
      <point x="158.4498125013535" y="-10.0"/>
      <point x="177.4498125013535" y="-5.0"/>
      <point x="188.4498125013535" y="16.0" type="curve" smooth="yes"/>
      <point x="191.4498125013535" y="22.0"/>
      <point x="200.4498125013535" y="58.0"/>
      <point x="205.4498125013535" y="79.0" type="curve" smooth="yes"/>
      <point x="232.4498125013535" y="183.0"/>
      <point x="241.4498125013535" y="221.0"/>
      <point x="244.4498125013535" y="236.0" type="curve"/>
      <point x="254.4498125013535" y="274.0"/>
      <point x="254.4498125013535" y="275.0"/>
      <point x="274.4498125013535" y="307.0" type="curve" smooth="yes"/>
      <point x="306.4498125013535" y="356.0"/>
      <point x="356.4498125013535" y="413.0"/>
      <point x="434.4498125013535" y="413.0" type="curve" smooth="yes"/>
      <point x="490.4498125013535" y="413.0"/>
      <point x="493.4498125013535" y="367.0"/>
      <point x="493.4498125013535" y="343.0" type="curve" smooth="yes"/>
      <point x="493.4498125013535" y="283.0"/>
      <point x="450.4498125013535" y="172.0"/>
      <point x="434.4498125013535" y="130.0" type="curve" smooth="yes"/>
      <point x="423.4498125013535" y="102.0"/>
      <point x="419.4498125013535" y="93.0"/>
      <point x="419.4498125013535" y="76.0" type="curve" smooth="yes"/>
      <point x="419.4498125013535" y="23.0"/>
      <point x="463.4498125013535" y="-10.0"/>
      <point x="514.4498125013534" y="-10.0" type="curve" smooth="yes"/>
      <point x="614.4498125013534" y="-10.0"/>
      <point x="658.4498125013534" y="128.0"/>
      <point x="658.4498125013534" y="143.0" type="curve" smooth="yes"/>
      <point x="658.4498125013534" y="156.0"/>
      <point x="645.4498125013534" y="156.0"/>
      <point x="642.4498125013534" y="156.0" type="curve" smooth="yes"/>
      <point x="628.4498125013534" y="156.0"/>
      <point x="627.4498125013534" y="150.0"/>
      <point x="623.4498125013534" y="139.0" type="curve"/>
      <point x="600.4498125013534" y="59.0"/>
      <point x="556.4498125013534" y="18.0"/>
      <point x="517.4498125013534" y="18.0" type="curve" smooth="yes"/>
      <point x="496.4498125013535" y="18.0"/>
      <point x="492.4498125013535" y="32.0"/>
      <point x="492.4498125013535" y="53.0" type="curve" smooth="yes"/>
      <point x="492.4498125013535" y="76.0"/>
      <point x="497.4498125013535" y="89.0"/>
      <point x="515.4498125013534" y="134.0" type="curve" smooth="yes"/>
      <point x="527.4498125013534" y="165.0"/>
      <point x="568.4498125013534" y="271.0"/>
      <point x="568.4498125013534" y="327.0" type="curve" smooth="yes"/>
      <point x="568.4498125013534" y="356.0"/>
      <point x="562.4498125013534" y="441.0"/>
    </contour>
  </outline>
</glyph>
<glyph name="i" format="2">
  <advance width="404"/>
  <unicode hex="0069"/>
  <outline>
    <contour>
      <point x="362.4498125013535" y="625.0" type="curve" smooth="yes"/>
      <point x="362.4498125013535" y="641.0"/>
      <point x="350.4498125013535" y="663.0"/>
      <point x="322.4498125013535" y="663.0" type="curve" smooth="yes"/>
      <point x="295.4498125013535" y="663.0"/>
      <point x="266.4498125013535" y="637.0"/>
      <point x="266.4498125013535" y="608.0" type="curve" smooth="yes"/>
      <point x="266.4498125013535" y="591.0"/>
      <point x="279.4498125013535" y="570.0"/>
      <point x="306.4498125013535" y="570.0" type="curve" smooth="yes"/>
      <point x="335.4498125013535" y="570.0"/>
      <point x="362.4498125013535" y="598.0"/>
    </contour>
    <contour>
      <point x="149.4498125013535" y="75.0" type="curve" smooth="yes"/>
      <point x="149.4498125013535" y="28.0"/>
      <point x="189.4498125013535" y="-10.0"/>
      <point x="244.4498125013535" y="-10.0" type="curve" smooth="yes"/>
      <point x="344.4498125013535" y="-10.0"/>
      <point x="388.4498125013535" y="128.0"/>
      <point x="388.4498125013535" y="143.0" type="curve" smooth="yes"/>
      <point x="388.4498125013535" y="156.0"/>
      <point x="375.4498125013535" y="156.0"/>
      <point x="372.4498125013535" y="156.0" type="curve" smooth="yes"/>
      <point x="358.4498125013535" y="156.0"/>
      <point x="357.4498125013535" y="150.0"/>
      <point x="353.4498125013535" y="139.0" type="curve"/>
      <point x="330.4498125013535" y="59.0"/>
      <point x="286.4498125013535" y="18.0"/>
      <point x="247.4498125013535" y="18.0" type="curve" smooth="yes"/>
      <point x="227.4498125013535" y="18.0"/>
      <point x="222.4498125013535" y="31.0"/>
      <point x="222.4498125013535" y="53.0" type="curve" smooth="yes"/>
      <point x="222.4498125013535" y="76.0"/>
      <point x="229.4498125013535" y="95.0"/>
      <point x="238.4498125013535" y="117.0" type="curve" smooth="yes"/>
      <point x="257.4498125013535" y="169.0"/>
      <point x="311.0442025013535" y="298.78316"/>
      <point x="319.4498125013535" y="324.0" type="curve" smooth="yes"/>
      <point x="322.4498125013535" y="334.0"/>
      <point x="325.4498125013535" y="346.0"/>
      <point x="325.4498125013535" y="356.0" type="curve" smooth="yes"/>
      <point x="325.4498125013535" y="403.0"/>
      <point x="285.4498125013535" y="441.0"/>
      <point x="230.4498125013535" y="441.0" type="curve" smooth="yes"/>
      <point x="131.4498125013535" y="441.0"/>
      <point x="85.44981250135352" y="305.0"/>
      <point x="85.44981250135352" y="288.0" type="curve" smooth="yes"/>
      <point x="85.44981250135352" y="275.0"/>
      <point x="99.44981250135352" y="275.0"/>
      <point x="102.44981250135352" y="275.0" type="curve" smooth="yes"/>
      <point x="116.44981250135352" y="275.0"/>
      <point x="117.44981250135352" y="280.0"/>
      <point x="120.44981250135352" y="291.0" type="curve" smooth="yes"/>
      <point x="146.4498125013535" y="377.0"/>
      <point x="190.4498125013535" y="413.0"/>
      <point x="227.4498125013535" y="413.0" type="curve" smooth="yes"/>
      <point x="243.4498125013535" y="413.0"/>
      <point x="252.4498125013535" y="405.0"/>
      <point x="252.4498125013535" y="378.0" type="curve" smooth="yes"/>
      <point x="252.4498125013535" y="355.0"/>
      <point x="246.4498125013535" y="340.0"/>
      <point x="221.4498125013535" y="278.0" type="curve" smooth="yes"/>
      <point x="200.47081250135352" y="224.387"/>
      <point x="179.49181250135354" y="170.774"/>
      <point x="158.4498125013535" y="117.0" type="curve" smooth="yes"/>
      <point x="153.4498125013535" y="104.0"/>
      <point x="149.4498125013535" y="92.0"/>
    </contour>
  </outline>
</glyph>
<glyph name="j" format="2">
  <advance width="472"/>
  <unicode hex="006A"/>
  <outline>
    <contour>
      <point x="477.4498125013535" y="625.0" type="curve" smooth="yes"/>
      <point x="477.4498125013535" y="642.0"/>
      <point x="464.4498125013535" y="663.0"/>
      <point x="437.4498125013535" y="663.0" type="curve" smooth="yes"/>
      <point x="408.4498125013535" y="663.0"/>
      <point x="381.4498125013535" y="635.0"/>
      <point x="381.4498125013535" y="608.0" type="curve" smooth="yes"/>
      <point x="381.4498125013535" y="592.0"/>
      <point x="393.4498125013535" y="570.0"/>
      <point x="421.4498125013535" y="570.0" type="curve" smooth="yes"/>
      <point x="448.4498125013535" y="570.0"/>
      <point x="477.4498125013535" y="596.0"/>
    </contour>
    <contour>
      <point x="265.4498125013535" y="-49.0" type="line" smooth="yes"/>
      <point x="248.4498125013535" y="-118.0"/>
      <point x="195.4498125013535" y="-176.0"/>
      <point x="136.4498125013535" y="-176.0" type="curve" smooth="yes"/>
      <point x="123.44981250135352" y="-176.0"/>
      <point x="111.44981250135352" y="-174.0"/>
      <point x="100.44981250135352" y="-170.0" type="curve"/>
      <point x="126.44981250135352" y="-158.0"/>
      <point x="134.4498125013535" y="-134.0"/>
      <point x="134.4498125013535" y="-119.0" type="curve" smooth="yes"/>
      <point x="134.4498125013535" y="-95.0"/>
      <point x="115.44981250135352" y="-82.0"/>
      <point x="95.44981250135352" y="-82.0" type="curve" smooth="yes"/>
      <point x="64.44981250135352" y="-82.0"/>
      <point x="38.44981250135351" y="-109.0"/>
      <point x="38.44981250135351" y="-141.0" type="curve" smooth="yes"/>
      <point x="38.44981250135351" y="-179.0"/>
      <point x="77.44981250135352" y="-204.0"/>
      <point x="137.4498125013535" y="-204.0" type="curve" smooth="yes"/>
      <point x="197.4498125013535" y="-204.0"/>
      <point x="314.4498125013535" y="-168.0"/>
      <point x="345.4498125013535" y="-46.0" type="curve" smooth="yes"/>
      <point x="435.4498125013535" y="312.0" type="line" smooth="yes"/>
      <point x="438.4498125013535" y="323.0"/>
      <point x="440.4498125013535" y="332.0"/>
      <point x="440.4498125013535" y="347.0" type="curve" smooth="yes"/>
      <point x="440.4498125013535" y="402.0"/>
      <point x="393.4498125013535" y="441.0"/>
      <point x="333.4498125013535" y="441.0" type="curve" smooth="yes"/>
      <point x="222.4498125013535" y="441.0"/>
      <point x="158.4498125013535" y="302.0"/>
      <point x="158.4498125013535" y="288.0" type="curve" smooth="yes"/>
      <point x="158.4498125013535" y="275.0"/>
      <point x="172.4498125013535" y="275.0"/>
      <point x="175.4498125013535" y="275.0" type="curve" smooth="yes"/>
      <point x="187.4498125013535" y="275.0"/>
      <point x="188.4498125013535" y="278.0"/>
      <point x="195.4498125013535" y="293.0" type="curve" smooth="yes"/>
      <point x="220.4498125013535" y="351.0"/>
      <point x="272.4498125013535" y="413.0"/>
      <point x="330.4498125013535" y="413.0" type="curve" smooth="yes"/>
      <point x="355.4498125013535" y="413.0"/>
      <point x="364.4498125013535" y="396.0"/>
      <point x="364.4498125013535" y="364.0" type="curve" smooth="yes"/>
      <point x="364.4498125013535" y="353.0"/>
      <point x="362.4498125013535" y="339.0"/>
      <point x="361.4498125013535" y="334.0" type="curve" smooth="yes"/>
    </contour>
  </outline>
</glyph>
<glyph name="k" format="2">
	<unicode hex="006B"/>
	<advance width="607"/>
	<outline>
		<contour>
			<point x="470.4498125014" y="-10" type="curve" smooth="yes"/>
			<point x="516.2764925014" y="-10"/>
			<point x="547.1488024102" y="23.9263321472"/>
			<point x="566.9683329206" y="59.8281321195" type="curve" smooth="yes"/>
			<point x="589.1002258934" y="99.9186274064"/>
			<point x="597.4498125014" y="142.47244"/>
			<point x="597.4498125014" y="143" type="curve" smooth="yes"/>
			<point x="597.4498125014" y="156"/>
			<point x="584.4498125014" y="156"/>
			<point x="581.4498125014" y="156" type="curve" smooth="yes"/>
			<point x="567.4498125014" y="156"/>
			<point x="566.4498125014" y="151"/>
			<point x="561.4498125014" y="132" type="curve" smooth="yes"/>
			<point x="549.4498125014" y="89"/>
			<point x="522.4498125014" y="18"/>
			<point x="473.4498125014" y="18" type="curve" smooth="yes"/>
			<point x="446.4498125014" y="18"/>
			<point x="438.4498125014" y="43"/>
			<point x="438.4498125014" y="70" type="curve" smooth="yes"/>
			<point x="438.4498125014" y="87"/>
			<point x="438.4498125014" y="89"/>
			<point x="444.4498125014" y="115" type="curve"/>
			<point x="445.4498125014" y="118"/>
			<point x="449.4498125014" y="135"/>
			<point x="449.4498125014" y="146" type="curve" smooth="yes"/>
			<point x="449.4498125014" y="235"/>
			<point x="329.4498125014" y="249"/>
			<point x="287.4498125014" y="252" type="curve"/>
			<point x="316.4498125014" y="270"/>
			<point x="353.4498125014" y="303"/>
			<point x="370.4498125014" y="318" type="curve" smooth="yes"/>
			<point x="421.4498125014" y="366"/>
			<point x="471.4498125014" y="413"/>
			<point x="527.4498125014" y="413" type="curve" smooth="yes"/>
			<point x="539.4498125014" y="413"/>
			<point x="552.4498125014" y="410"/>
			<point x="560.4498125014" y="400" type="curve"/>
			<point x="517.4498125014" y="393"/>
			<point x="508.4498125014" y="359"/>
			<point x="508.4498125014" y="344" type="curve" smooth="yes"/>
			<point x="508.4498125014" y="322"/>
			<point x="525.4498125014" y="307"/>
			<point x="548.4498125014" y="307" type="curve" smooth="yes"/>
			<point x="575.4498125014" y="307"/>
			<point x="605.4498125014" y="329"/>
			<point x="605.4498125014" y="371" type="curve" smooth="yes"/>
			<point x="605.4498125014" y="404"/>
			<point x="581.4498125014" y="441"/>
			<point x="528.4498125014" y="441" type="curve" smooth="yes"/>
			<point x="471.4498125014" y="441"/>
			<point x="419.4498125014" y="400"/>
			<point x="368.4498125014" y="353" type="curve" smooth="yes"/>
			<point x="326.4498125014" y="313"/>
			<point x="293.4498125014" y="282"/>
			<point x="252.4498125014" y="265" type="curve"/>
			<point x="351.4498125014" y="664" type="line"/>
			<point x="352.4498125014" y="666"/>
			<point x="355.4498125014" y="679"/>
			<point x="355.4498125014" y="680" type="curve" smooth="yes"/>
			<point x="355.4498125014" y="685"/>
			<point x="351.4498125014" y="694"/>
			<point x="339.4498125014" y="694" type="curve" smooth="yes"/>
			<point x="319.4498125014" y="694"/>
			<point x="236.4498125014" y="686"/>
			<point x="211.4498125014" y="684" type="curve" smooth="yes"/>
			<point x="203.4498125014" y="683"/>
			<point x="189.4498125014" y="682"/>
			<point x="189.4498125014" y="661" type="curve" smooth="yes"/>
			<point x="189.4498125014" y="647"/>
			<point x="203.4498125014" y="647"/>
			<point x="215.4498125014" y="647" type="curve" smooth="yes"/>
			<point x="263.4498125014" y="647"/>
			<point x="263.4498125014" y="640"/>
			<point x="263.4498125014" y="632" type="curve" smooth="yes"/>
			<point x="263.4498125014" y="625"/>
			<point x="261.4498125014" y="619"/>
			<point x="259.4498125014" y="610" type="curve" smooth="yes"/>
			<point x="118.4498125014" y="44" type="line" smooth="yes"/>
			<point x="113.4498125014" y="26"/>
			<point x="113.4498125014" y="24"/>
			<point x="113.4498125014" y="22" type="curve" smooth="yes"/>
			<point x="113.4498125014" y="7"/>
			<point x="125.4498125014" y="-10"/>
			<point x="147.4498125014" y="-10" type="curve" smooth="yes"/>
			<point x="174.4498125014" y="-10"/>
			<point x="187.4498125014" y="10"/>
			<point x="193.4498125014" y="32" type="curve"/>
			<point x="195.4498125014" y="36"/>
			<point x="238.4498125014" y="212"/>
			<point x="242.4498125014" y="226" type="curve"/>
			<point x="313.4498125014" y="219"/>
			<point x="370.4498125014" y="196"/>
			<point x="370.4498125014" y="144" type="curve" smooth="yes"/>
			<point x="370.4498125014" y="139"/>
			<point x="370.4498125014" y="134"/>
			<point x="368.4498125014" y="124" type="curve"/>
			<point x="364.4498125014" y="109"/>
			<point x="364.4498125014" y="104"/>
			<point x="364.4498125014" y="93" type="curve" smooth="yes"/>
			<point x="364.4498125014" y="22"/>
			<point x="422.4498125014" y="-10"/>
		</contour>
	</outline>
</glyph>
<glyph name="l" format="2">
  <advance width="361"/>
  <unicode hex="006C"/>
  <outline>
    <contour>
      <point x="181.4498125013535" y="108.0" type="curve" smooth="yes"/>
      <point x="320.4498125013535" y="664.0" type="line"/>
      <point x="321.4498125013535" y="666.0"/>
      <point x="324.4498125013535" y="679.0"/>
      <point x="324.4498125013535" y="680.0" type="curve" smooth="yes"/>
      <point x="324.4498125013535" y="685.0"/>
      <point x="320.4498125013535" y="694.0"/>
      <point x="308.4498125013535" y="694.0" type="curve" smooth="yes"/>
      <point x="288.4498125013535" y="694.0"/>
      <point x="205.4498125013535" y="686.0"/>
      <point x="180.4498125013535" y="684.0" type="curve"/>
      <point x="173.4498125013535" y="683.0"/>
      <point x="159.4498125013535" y="682.0"/>
      <point x="159.4498125013535" y="661.0" type="curve" smooth="yes"/>
      <point x="159.4498125013535" y="647.0"/>
      <point x="173.4498125013535" y="647.0"/>
      <point x="184.4498125013535" y="647.0" type="curve" smooth="yes"/>
      <point x="232.4498125013535" y="647.0"/>
      <point x="232.4498125013535" y="640.0"/>
      <point x="232.4498125013535" y="632.0" type="curve" smooth="yes"/>
      <point x="232.4498125013535" y="625.0"/>
      <point x="230.4498125013535" y="619.0"/>
      <point x="228.4498125013535" y="610.0" type="curve" smooth="yes"/>
      <point x="104.44981250135352" y="116.0" type="line" smooth="yes"/>
      <point x="101.44981250135352" y="106.0"/>
      <point x="100.44981250135352" y="95.0"/>
      <point x="100.44981250135352" y="85.0" type="curve" smooth="yes"/>
      <point x="100.44981250135352" y="21.0"/>
      <point x="157.4498125013535" y="-10.0"/>
      <point x="205.4498125013535" y="-10.0" type="curve" smooth="yes"/>
      <point x="229.4498125013535" y="-10.0"/>
      <point x="259.4498125013535" y="-2.0"/>
      <point x="285.4498125013535" y="43.0" type="curve" smooth="yes"/>
      <point x="306.4498125013535" y="80.0"/>
      <point x="320.4498125013535" y="139.0"/>
      <point x="320.4498125013535" y="143.0" type="curve" smooth="yes"/>
      <point x="320.4498125013535" y="156.0"/>
      <point x="307.4498125013535" y="156.0"/>
      <point x="304.4498125013535" y="156.0" type="curve" smooth="yes"/>
      <point x="290.4498125013535" y="156.0"/>
      <point x="288.4498125013535" y="150.0"/>
      <point x="284.4498125013535" y="132.0" type="curve" smooth="yes"/>
      <point x="271.4498125013535" y="82.0"/>
      <point x="252.4498125013535" y="18.0"/>
      <point x="209.4498125013535" y="18.0" type="curve" smooth="yes"/>
      <point x="182.4498125013535" y="18.0"/>
      <point x="175.4498125013535" y="43.0"/>
      <point x="175.4498125013535" y="67.0" type="curve" smooth="yes"/>
      <point x="175.4498125013535" y="78.0"/>
      <point x="178.4498125013535" y="97.0"/>
    </contour>
  </outline>
</glyph>
<glyph name="m" format="2">
	<unicode hex="006D"/>
	<advance width="1013"/>
	<outline>
		<contour>
			<point x="99" y="-10" type="curve" smooth="yes"/>
			<point x="117" y="-10"/>
			<point x="133" y="3"/>
			<point x="138" y="12" type="curve" smooth="yes"/>
			<point x="143" y="21"/>
			<point x="151" y="53"/>
			<point x="156" y="74" type="curve" smooth="yes"/>
			<point x="165" y="110"/>
			<point x="184.36273" y="182.06854"/>
			<point x="195" y="231" type="curve" smooth="yes"/>
			<point x="206" y="272"/>
			<point x="208" y="280"/>
			<point x="237" y="321" type="curve" smooth="yes"/>
			<point x="265" y="361"/>
			<point x="312" y="413"/>
			<point x="387" y="413" type="curve" smooth="yes"/>
			<point x="445" y="413"/>
			<point x="446" y="362"/>
			<point x="446" y="343" type="curve" smooth="yes"/>
			<point x="446" y="324"/>
			<point x="443" y="305"/>
			<point x="429" y="249" type="curve" smooth="yes"/>
			<point x="415.014" y="193.056"/>
			<point x="401.028" y="137.112"/>
			<point x="387" y="81" type="curve" smooth="yes"/>
			<point x="382" y="61"/>
			<point x="373" y="27"/>
			<point x="373" y="22" type="curve" smooth="yes"/>
			<point x="373" y="0"/>
			<point x="391" y="-10"/>
			<point x="407" y="-10" type="curve" smooth="yes"/>
			<point x="425" y="-10"/>
			<point x="441" y="3"/>
			<point x="446" y="12" type="curve" smooth="yes"/>
			<point x="451" y="21"/>
			<point x="459" y="53"/>
			<point x="464" y="74" type="curve" smooth="yes"/>
			<point x="473" y="110"/>
			<point x="492.36273" y="182.06854"/>
			<point x="503" y="231" type="curve" smooth="yes"/>
			<point x="514" y="274"/>
			<point x="514" y="276"/>
			<point x="534" y="307" type="curve" smooth="yes"/>
			<point x="566" y="356"/>
			<point x="616" y="413"/>
			<point x="694" y="413" type="curve" smooth="yes"/>
			<point x="750" y="413"/>
			<point x="753" y="367"/>
			<point x="753" y="343" type="curve" smooth="yes"/>
			<point x="753" y="283"/>
			<point x="710" y="172"/>
			<point x="694" y="130" type="curve" smooth="yes"/>
			<point x="683" y="102"/>
			<point x="679" y="93"/>
			<point x="679" y="76" type="curve" smooth="yes"/>
			<point x="679" y="23"/>
			<point x="723" y="-10"/>
			<point x="774" y="-10" type="curve" smooth="yes"/>
			<point x="874" y="-10"/>
			<point x="918" y="128"/>
			<point x="918" y="143" type="curve" smooth="yes"/>
			<point x="918" y="156"/>
			<point x="905" y="156"/>
			<point x="902" y="156" type="curve" smooth="yes"/>
			<point x="888" y="156"/>
			<point x="887" y="150"/>
			<point x="883" y="139" type="curve"/>
			<point x="860" y="59"/>
			<point x="817" y="18"/>
			<point x="777" y="18" type="curve" smooth="yes"/>
			<point x="756" y="18"/>
			<point x="752" y="32"/>
			<point x="752" y="53" type="curve" smooth="yes"/>
			<point x="752" y="76"/>
			<point x="757" y="89"/>
			<point x="775" y="134" type="curve" smooth="yes"/>
			<point x="787" y="165"/>
			<point x="828" y="271"/>
			<point x="828" y="329" type="curve" smooth="yes"/>
			<point x="828" y="361"/>
			<point x="818" y="441"/>
			<point x="697" y="441" type="curve" smooth="yes"/>
			<point x="608" y="441"/>
			<point x="553" y="382"/>
			<point x="521" y="340" type="curve"/>
			<point x="513" y="425"/>
			<point x="442" y="441"/>
			<point x="391" y="441" type="curve" smooth="yes"/>
			<point x="308" y="441"/>
			<point x="252" y="390"/>
			<point x="222" y="350" type="curve"/>
			<point x="215" y="419"/>
			<point x="156" y="441"/>
			<point x="115" y="441" type="curve" smooth="yes"/>
			<point x="72" y="441"/>
			<point x="49" y="410"/>
			<point x="36" y="387" type="curve" smooth="yes"/>
			<point x="14" y="350"/>
			<point x="0" y="293"/>
			<point x="0" y="288" type="curve" smooth="yes"/>
			<point x="0" y="275"/>
			<point x="14" y="275"/>
			<point x="17" y="275" type="curve" smooth="yes"/>
			<point x="31" y="275"/>
			<point x="32" y="278"/>
			<point x="39" y="305" type="curve" smooth="yes"/>
			<point x="54" y="364"/>
			<point x="73" y="413"/>
			<point x="112" y="413" type="curve" smooth="yes"/>
			<point x="138" y="413"/>
			<point x="145" y="391"/>
			<point x="145" y="364" type="curve" smooth="yes"/>
			<point x="145" y="345"/>
			<point x="136" y="308"/>
			<point x="129" y="281" type="curve" smooth="yes"/>
			<point x="122" y="254"/>
			<point x="113" y="213"/>
			<point x="75" y="63" type="curve" smooth="yes"/>
			<point x="72" y="50"/>
			<point x="65" y="25"/>
			<point x="65" y="22" type="curve" smooth="yes"/>
			<point x="65" y="0"/>
			<point x="83" y="-10"/>
		</contour>
	</outline>
</glyph>
<glyph name="n" format="2">
  <advance width="706"/>
  <unicode hex="006E"/>
  <outline>
    <contour>
      <point x="184.4498125013535" y="-10.0" type="curve" smooth="yes"/>
      <point x="202.4498125013535" y="-10.0"/>
      <point x="218.4498125013535" y="3.0"/>
      <point x="223.4498125013535" y="12.0" type="curve" smooth="yes"/>
      <point x="228.4498125013535" y="21.0"/>
      <point x="236.4498125013535" y="53.0"/>
      <point x="241.4498125013535" y="74.0" type="curve" smooth="yes"/>
      <point x="250.4498125013535" y="110.0"/>
      <point x="269.8125425013535" y="182.06854"/>
      <point x="280.4498125013535" y="231.0" type="curve" smooth="yes"/>
      <point x="291.4498125013535" y="272.0"/>
      <point x="293.4498125013535" y="280.0"/>
      <point x="322.4498125013535" y="321.0" type="curve" smooth="yes"/>
      <point x="350.4498125013535" y="361.0"/>
      <point x="397.4498125013535" y="413.0"/>
      <point x="472.4498125013535" y="413.0" type="curve" smooth="yes"/>
      <point x="530.4498125013534" y="413.0"/>
      <point x="531.4498125013534" y="362.0"/>
      <point x="531.4498125013534" y="343.0" type="curve" smooth="yes"/>
      <point x="531.4498125013534" y="283.0"/>
      <point x="488.4498125013535" y="172.0"/>
      <point x="472.4498125013535" y="130.0" type="curve" smooth="yes"/>
      <point x="461.4498125013535" y="102.0"/>
      <point x="457.4498125013535" y="93.0"/>
      <point x="457.4498125013535" y="76.0" type="curve" smooth="yes"/>
      <point x="457.4498125013535" y="23.0"/>
      <point x="501.4498125013535" y="-10.0"/>
      <point x="552.4498125013534" y="-10.0" type="curve" smooth="yes"/>
      <point x="652.4498125013534" y="-10.0"/>
      <point x="696.4498125013534" y="128.0"/>
      <point x="696.4498125013534" y="143.0" type="curve" smooth="yes"/>
      <point x="696.4498125013534" y="156.0"/>
      <point x="683.4498125013534" y="156.0"/>
      <point x="680.4498125013534" y="156.0" type="curve" smooth="yes"/>
      <point x="666.4498125013534" y="156.0"/>
      <point x="665.4498125013534" y="150.0"/>
      <point x="661.4498125013534" y="139.0" type="curve"/>
      <point x="638.4498125013534" y="59.0"/>
      <point x="595.4498125013534" y="18.0"/>
      <point x="555.4498125013534" y="18.0" type="curve" smooth="yes"/>
      <point x="534.4498125013534" y="18.0"/>
      <point x="530.4498125013534" y="32.0"/>
      <point x="530.4498125013534" y="53.0" type="curve" smooth="yes"/>
      <point x="530.4498125013534" y="76.0"/>
      <point x="535.4498125013534" y="89.0"/>
      <point x="553.4498125013534" y="134.0" type="curve" smooth="yes"/>
      <point x="565.4498125013534" y="165.0"/>
      <point x="606.4498125013534" y="271.0"/>
      <point x="606.4498125013534" y="327.0" type="curve" smooth="yes"/>
      <point x="606.4498125013534" y="424.0"/>
      <point x="529.4498125013534" y="441.0"/>
      <point x="476.4498125013535" y="441.0" type="curve" smooth="yes"/>
      <point x="393.4498125013535" y="441.0"/>
      <point x="337.4498125013535" y="390.0"/>
      <point x="307.4498125013535" y="350.0" type="curve"/>
      <point x="300.4498125013535" y="419.0"/>
      <point x="241.4498125013535" y="441.0"/>
      <point x="200.4498125013535" y="441.0" type="curve" smooth="yes"/>
      <point x="157.4498125013535" y="441.0"/>
      <point x="134.4498125013535" y="410.0"/>
      <point x="121.44981250135352" y="387.0" type="curve" smooth="yes"/>
      <point x="99.44981250135352" y="350.0"/>
      <point x="85.44981250135352" y="293.0"/>
      <point x="85.44981250135352" y="288.0" type="curve" smooth="yes"/>
      <point x="85.44981250135352" y="275.0"/>
      <point x="99.44981250135352" y="275.0"/>
      <point x="102.44981250135352" y="275.0" type="curve" smooth="yes"/>
      <point x="116.44981250135352" y="275.0"/>
      <point x="117.44981250135352" y="278.0"/>
      <point x="124.44981250135352" y="305.0" type="curve" smooth="yes"/>
      <point x="139.4498125013535" y="364.0"/>
      <point x="158.4498125013535" y="413.0"/>
      <point x="197.4498125013535" y="413.0" type="curve" smooth="yes"/>
      <point x="223.4498125013535" y="413.0"/>
      <point x="230.4498125013535" y="391.0"/>
      <point x="230.4498125013535" y="364.0" type="curve" smooth="yes"/>
      <point x="230.4498125013535" y="345.0"/>
      <point x="221.4498125013535" y="308.0"/>
      <point x="214.4498125013535" y="281.0" type="curve" smooth="yes"/>
      <point x="207.4498125013535" y="254.0"/>
      <point x="198.4498125013535" y="213.0"/>
      <point x="160.4498125013535" y="63.0" type="curve" smooth="yes"/>
      <point x="157.4498125013535" y="50.0"/>
      <point x="150.4498125013535" y="25.0"/>
      <point x="150.4498125013535" y="22.0" type="curve" smooth="yes"/>
      <point x="150.4498125013535" y="0.0"/>
      <point x="168.4498125013535" y="-10.0"/>
    </contour>
  </outline>
</glyph>
<glyph name="o" format="2">
	<unicode hex="006F"/>
	<advance width="1126"/>
	<outline>
		<contour>
			<point x="1030.8996250027" y="532" type="curve" smooth="yes"/>
			<point x="1030.8996250027" y="754"/>
			<point x="864.8996250027" y="882"/>
			<point x="668.8996250027" y="882" type="curve" smooth="yes"/>
			<point x="372.8996250027" y="882"/>
			<point x="92.8996250027" y="604"/>
			<point x="92.8996250027" y="330" type="curve" smooth="yes"/>
			<point x="92.8996250027" y="130"/>
			<point x="238.8996250027" y="-20"/>
			<point x="456.8996250027" y="-20" type="curve" smooth="yes"/>
			<point x="742.8996250027" y="-20"/>
			<point x="1030.8996250027" y="244"/>
		</contour>
		<contour>
			<point x="458.8996250027" y="36" type="curve" smooth="yes"/>
			<point x="358.8996250027" y="36"/>
			<point x="258.8996250027" y="100"/>
			<point x="258.8996250027" y="258" type="curve" smooth="yes"/>
			<point x="258.8996250027" y="340"/>
			<point x="296.8996250027" y="536"/>
			<point x="374.8996250027" y="650" type="curve" smooth="yes"/>
			<point x="460.8996250027" y="774"/>
			<point x="576.8996250027" y="826"/>
			<point x="666.8996250027" y="826" type="curve" smooth="yes"/>
			<point x="774.8996250027" y="826"/>
			<point x="866.8996250027" y="752"/>
			<point x="866.8996250027" y="604" type="curve" smooth="yes"/>
			<point x="866.8996250027" y="556"/>
			<point x="842.8996250027" y="358"/>
			<point x="754.8996250027" y="218" type="curve" smooth="yes"/>
			<point x="678.8996250027" y="100"/>
			<point x="558.8996250027" y="36"/>
		</contour>
	</outline>
</glyph>
<glyph name="p" format="2">
	<unicode hex="0070"/>
	<advance width="1176"/>
	<outline>
		<contour>
			<point x="56" y="-244" type="line" smooth="yes"/>
			<point x="42" y="-300"/>
			<point x="38" y="-316"/>
			<point x="-42" y="-316" type="curve" smooth="yes"/>
			<point x="-68" y="-316"/>
			<point x="-96" y="-316"/>
			<point x="-96" y="-358" type="curve" smooth="yes"/>
			<point x="-96" y="-380"/>
			<point x="-78" y="-388"/>
			<point x="-68" y="-388" type="curve" smooth="yes"/>
			<point x="-16" y="-388"/>
			<point x="50" y="-380"/>
			<point x="104" y="-380" type="curve" smooth="yes"/>
			<point x="172" y="-380"/>
			<point x="248" y="-388"/>
			<point x="314" y="-388" type="curve" smooth="yes"/>
			<point x="332" y="-388"/>
			<point x="354" y="-382"/>
			<point x="354" y="-344" type="curve" smooth="yes"/>
			<point x="354" y="-316"/>
			<point x="326" y="-316"/>
			<point x="302" y="-316" type="curve" smooth="yes"/>
			<point x="258" y="-316"/>
			<point x="204" y="-316"/>
			<point x="204" y="-292" type="curve" smooth="yes"/>
			<point x="204" y="-282"/>
			<point x="218" y="-230"/>
			<point x="226" y="-200" type="curve" smooth="yes"/>
			<point x="250" y="-94"/>
			<point x="278" y="14"/>
			<point x="300" y="98" type="curve"/>
			<point x="324" y="58"/>
			<point x="386" y="-20"/>
			<point x="506" y="-20" type="curve" smooth="yes"/>
			<point x="750" y="-20"/>
			<point x="1020" y="250"/>
			<point x="1020" y="548" type="curve" smooth="yes"/>
			<point x="1020" y="782"/>
			<point x="858" y="882"/>
			<point x="720" y="882" type="curve" smooth="yes"/>
			<point x="596" y="882"/>
			<point x="490" y="798"/>
			<point x="436" y="742" type="curve"/>
			<point x="402" y="856"/>
			<point x="290" y="882"/>
			<point x="230" y="882" type="curve" smooth="yes"/>
			<point x="152" y="882"/>
			<point x="104" y="830"/>
			<point x="72" y="776" type="curve" smooth="yes"/>
			<point x="32" y="708"/>
			<point x="0" y="588"/>
			<point x="0" y="576" type="curve" smooth="yes"/>
			<point x="0" y="550"/>
			<point x="28" y="550"/>
			<point x="34" y="550" type="curve" smooth="yes"/>
			<point x="62" y="550"/>
			<point x="64" y="556"/>
			<point x="78" y="610" type="curve" smooth="yes"/>
			<point x="108" y="726"/>
			<point x="146" y="826"/>
			<point x="224" y="826" type="curve" smooth="yes"/>
			<point x="276" y="826"/>
			<point x="290" y="782"/>
			<point x="290" y="728" type="curve" smooth="yes"/>
			<point x="290" y="706"/>
			<point x="286" y="680"/>
			<point x="284" y="668" type="curve"/>
		</contour>
		<contour>
			<point x="714" y="826" type="curve" smooth="yes"/>
			<point x="792" y="826"/>
			<point x="860" y="768"/>
			<point x="860" y="632" type="curve" smooth="yes"/>
			<point x="860" y="550"/>
			<point x="816" y="346"/>
			<point x="756" y="230" type="curve" smooth="yes"/>
			<point x="706" y="132"/>
			<point x="608" y="36"/>
			<point x="506" y="36" type="curve" smooth="yes"/>
			<point x="364" y="36"/>
			<point x="328" y="190"/>
			<point x="328" y="210" type="curve" smooth="yes"/>
			<point x="328" y="218"/>
			<point x="332" y="232"/>
			<point x="334" y="240" type="curve" smooth="yes"/>
			<point x="434" y="642" type="line"/>
			<point x="434" y="642"/>
			<point x="434" y="642"/>
			<point x="434" y="642" type="curve"/>
			<point x="550" y="796"/>
			<point x="650" y="826"/>
		</contour>
	</outline>
</glyph>
<glyph name="q" format="2">
	<unicode hex="0071"/>
	<advance width="523"/>
	<outline>
		<contour>
			<point x="271" y="-190" type="curve" smooth="yes"/>
			<point x="305" y="-190"/>
			<point x="347" y="-194"/>
			<point x="378" y="-194" type="curve" smooth="yes"/>
			<point x="387" y="-194"/>
			<point x="398" y="-191"/>
			<point x="398" y="-172" type="curve" smooth="yes"/>
			<point x="398" y="-158"/>
			<point x="384" y="-158"/>
			<point x="372" y="-158" type="curve" smooth="yes"/>
			<point x="350" y="-158"/>
			<point x="323" y="-158"/>
			<point x="323" y="-146" type="curve" smooth="yes"/>
			<point x="323" y="-143"/>
			<point x="323" y="-141"/>
			<point x="328" y="-124" type="curve" smooth="yes"/>
			<point x="462" y="412" type="line" smooth="yes"/>
			<point x="463" y="416"/>
			<point x="464" y="422"/>
			<point x="464" y="427" type="curve" smooth="yes"/>
			<point x="464" y="433"/>
			<point x="460" y="441"/>
			<point x="451" y="441" type="curve" smooth="yes"/>
			<point x="441" y="441"/>
			<point x="399" y="407"/>
			<point x="379" y="375" type="curve"/>
			<point x="369" y="395"/>
			<point x="336" y="441"/>
			<point x="272" y="441" type="curve" smooth="yes"/>
			<point x="144" y="441"/>
			<point x="14" y="300"/>
			<point x="14" y="156" type="curve" smooth="yes"/>
			<point x="14" y="59"/>
			<point x="79" y="-10"/>
			<point x="165" y="-10" type="curve" smooth="yes"/>
			<point x="222" y="-10"/>
			<point x="269" y="26"/>
			<point x="291" y="45" type="curve"/>
			<point x="291" y="45" type="line"/>
			<point x="290" y="42"/>
			<point x="259" y="-84"/>
			<point x="255" y="-101" type="curve" smooth="yes"/>
			<point x="241" y="-156"/>
			<point x="240" y="-157"/>
			<point x="178" y="-158" type="curve"/>
			<point x="166" y="-158"/>
			<point x="152" y="-158"/>
			<point x="152" y="-180" type="curve" smooth="yes"/>
			<point x="152" y="-186"/>
			<point x="157" y="-194"/>
			<point x="167" y="-194" type="curve" smooth="yes"/>
			<point x="200" y="-194"/>
			<point x="237" y="-190"/>
		</contour>
		<contour>
			<point x="168" y="18" type="curve" smooth="yes"/>
			<point x="131" y="18"/>
			<point x="95" y="44"/>
			<point x="95" y="115" type="curve" smooth="yes"/>
			<point x="95" y="168"/>
			<point x="124" y="278"/>
			<point x="147" y="318" type="curve" smooth="yes"/>
			<point x="193" y="398"/>
			<point x="244" y="413"/>
			<point x="272" y="413" type="curve" smooth="yes"/>
			<point x="342" y="413"/>
			<point x="361" y="336"/>
			<point x="361" y="326" type="curve" smooth="yes"/>
			<point x="361" y="321"/>
			<point x="359" y="315"/>
			<point x="358" y="311" type="curve" smooth="yes"/>
			<point x="342.349" y="249.395"/>
			<point x="326.698" y="187.79"/>
			<point x="311" y="126" type="curve" smooth="yes"/>
			<point x="306" y="109"/>
			<point x="306" y="107"/>
			<point x="293" y="91" type="curve" smooth="yes"/>
			<point x="254" y="45"/>
			<point x="207" y="18"/>
		</contour>
	</outline>
</glyph>
<glyph name="r" format="2">
	<unicode hex="0072"/>
	<advance width="530"/>
	<outline>
		<contour>
			<point x="184.4498125014" y="-10" type="curve" smooth="yes"/>
			<point x="199.4498125014" y="-10"/>
			<point x="219.4498125014" y="-1"/>
			<point x="227.4498125014" y="19" type="curve"/>
			<point x="229.4498125014" y="25"/>
			<point x="240.2142425014" y="69.05771"/>
			<point x="273.4498125014" y="202" type="curve"/>
			<point x="274.4498125014" y="208"/>
			<point x="297.4498125014" y="298"/>
			<point x="299.4498125014" y="303" type="curve"/>
			<point x="301.4498125014" y="311"/>
			<point x="330.4498125014" y="361"/>
			<point x="362.4498125014" y="385" type="curve" smooth="yes"/>
			<point x="373.4498125014" y="393"/>
			<point x="400.4498125014" y="413"/>
			<point x="443.4498125014" y="413" type="curve" smooth="yes"/>
			<point x="453.4498125014" y="413"/>
			<point x="478.4498125014" y="412"/>
			<point x="498.4498125014" y="399" type="curve"/>
			<point x="466.4498125014" y="390"/>
			<point x="454.4498125014" y="362"/>
			<point x="454.4498125014" y="344" type="curve" smooth="yes"/>
			<point x="454.4498125014" y="322"/>
			<point x="471.4498125014" y="307"/>
			<point x="494.4498125014" y="307" type="curve" smooth="yes"/>
			<point x="517.4498125014" y="307"/>
			<point x="550.4498125014" y="326"/>
			<point x="550.4498125014" y="368" type="curve" smooth="yes"/>
			<point x="550.4498125014" y="420"/>
			<point x="495.4498125014" y="441"/>
			<point x="444.4498125014" y="441" type="curve" smooth="yes"/>
			<point x="392.4498125014" y="441"/>
			<point x="347.4498125014" y="420"/>
			<point x="303.4498125014" y="370" type="curve"/>
			<point x="285.4498125014" y="431"/>
			<point x="224.4498125014" y="441"/>
			<point x="200.4498125014" y="441" type="curve" smooth="yes"/>
			<point x="163.4498125014" y="441"/>
			<point x="138.4498125014" y="418"/>
			<point x="122.4498125014" y="390" type="curve" smooth="yes"/>
			<point x="99.4498125014" y="351"/>
			<point x="85.4498125014" y="293"/>
			<point x="85.4498125014" y="288" type="curve" smooth="yes"/>
			<point x="85.4498125014" y="275"/>
			<point x="99.4498125014" y="275"/>
			<point x="102.4498125014" y="275" type="curve" smooth="yes"/>
			<point x="116.4498125014" y="275"/>
			<point x="117.4498125014" y="278"/>
			<point x="124.4498125014" y="305" type="curve" smooth="yes"/>
			<point x="139.4498125014" y="366"/>
			<point x="158.4498125014" y="413"/>
			<point x="197.4498125014" y="413" type="curve" smooth="yes"/>
			<point x="223.4498125014" y="413"/>
			<point x="230.4498125014" y="391"/>
			<point x="230.4498125014" y="364" type="curve" smooth="yes"/>
			<point x="230.4498125014" y="345"/>
			<point x="221.4498125014" y="308"/>
			<point x="214.4498125014" y="281" type="curve" smooth="yes"/>
			<point x="207.4498125014" y="254"/>
			<point x="197.9216625014" y="212.88741"/>
			<point x="160.4498125014" y="63" type="curve"/>
			<point x="156.4498125014" y="50"/>
			<point x="150.4498125014" y="25"/>
			<point x="150.4498125014" y="22" type="curve" smooth="yes"/>
			<point x="150.4498125014" y="0"/>
			<point x="168.4498125014" y="-10"/>
		</contour>
	</outline>
</glyph>
<glyph name="s" format="2">
	<unicode hex="0073"/>
	<advance width="1078"/>
	<outline>
		<contour>
			<point x="370" y="-20" type="curve" smooth="yes"/>
			<point x="738" y="-20"/>
			<point x="806" y="232"/>
			<point x="806" y="310" type="curve" smooth="yes"/>
			<point x="806" y="389"/>
			<point x="769" y="440"/>
			<point x="721" y="475" type="curve" smooth="yes"/>
			<point x="657" y="521"/>
			<point x="572" y="536"/>
			<point x="530" y="544" type="curve" smooth="yes"/>
			<point x="512" y="548"/>
			<point x="462" y="556"/>
			<point x="450" y="560" type="curve"/>
			<point x="376" y="574"/>
			<point x="340" y="616"/>
			<point x="340" y="660" type="curve" smooth="yes"/>
			<point x="340" y="706"/>
			<point x="376" y="760"/>
			<point x="420" y="788" type="curve" smooth="yes"/>
			<point x="474" y="822"/>
			<point x="544" y="826"/>
			<point x="578" y="826" type="curve" smooth="yes"/>
			<point x="620" y="826"/>
			<point x="724" y="820"/>
			<point x="768" y="752" type="curve"/>
			<point x="716" y="740"/>
			<point x="684" y="698"/>
			<point x="684" y="658" type="curve" smooth="yes"/>
			<point x="684" y="612"/>
			<point x="724" y="594"/>
			<point x="750" y="594" type="curve" smooth="yes"/>
			<point x="770" y="594"/>
			<point x="846" y="606"/>
			<point x="846" y="708" type="curve" smooth="yes"/>
			<point x="846" y="838"/>
			<point x="702" y="882"/>
			<point x="580" y="882" type="curve" smooth="yes"/>
			<point x="268" y="882"/>
			<point x="212" y="652"/>
			<point x="212" y="590" type="curve" smooth="yes"/>
			<point x="212" y="516"/>
			<point x="254" y="468"/>
			<point x="282" y="444" type="curve"/>
			<point x="334" y="404"/>
			<point x="370" y="396"/>
			<point x="508" y="372" type="curve" smooth="yes"/>
			<point x="532" y="367"/>
			<point x="585" y="357"/>
			<point x="625" y="331" type="curve" smooth="yes"/>
			<point x="655" y="311"/>
			<point x="678" y="282"/>
			<point x="678" y="240" type="curve" smooth="yes"/>
			<point x="678" y="206"/>
			<point x="656" y="130"/>
			<point x="572" y="80" type="curve" smooth="yes"/>
			<point x="494" y="36"/>
			<point x="396" y="36"/>
			<point x="372" y="36" type="curve" smooth="yes"/>
			<point x="292" y="36"/>
			<point x="178" y="54"/>
			<point x="132" y="120" type="curve"/>
			<point x="198" y="128"/>
			<point x="242" y="178"/>
			<point x="242" y="234" type="curve" smooth="yes"/>
			<point x="242" y="284"/>
			<point x="206" y="308"/>
			<point x="164" y="308" type="curve" smooth="yes"/>
			<point x="106" y="308"/>
			<point x="48" y="262"/>
			<point x="48" y="174" type="curve" smooth="yes"/>
			<point x="48" y="54"/>
			<point x="176" y="-20"/>
		</contour>
	</outline>
</glyph>
<glyph name="t" format="2">
	<unicode hex="0074"/>
	<advance width="431"/>
	<outline>
		<contour>
			<point x="199" y="395" type="line"/>
			<point x="301" y="395" type="line" smooth="yes"/>
			<point x="320" y="395"/>
			<point x="333" y="395"/>
			<point x="333" y="417" type="curve" smooth="yes"/>
			<point x="333" y="431"/>
			<point x="320" y="431"/>
			<point x="303" y="431" type="curve" smooth="yes"/>
			<point x="208" y="431" type="line"/>
			<point x="220.321" y="480.284"/>
			<point x="232.642" y="529.568"/>
			<point x="245" y="579" type="curve" smooth="yes"/>
			<point x="246" y="584"/>
			<point x="248" y="589"/>
			<point x="248" y="593" type="curve" smooth="yes"/>
			<point x="248" y="611"/>
			<point x="234" y="625"/>
			<point x="214" y="625" type="curve" smooth="yes"/>
			<point x="189" y="625"/>
			<point x="174" y="608"/>
			<point x="167" y="582" type="curve" smooth="yes"/>
			<point x="160" y="557"/>
			<point x="173" y="605"/>
			<point x="129" y="431" type="curve"/>
			<point x="27" y="431" type="line" smooth="yes"/>
			<point x="8" y="431"/>
			<point x="-5" y="431"/>
			<point x="-5" y="409" type="curve" smooth="yes"/>
			<point x="-5" y="395"/>
			<point x="7" y="395"/>
			<point x="25" y="395" type="curve" smooth="yes"/>
			<point x="120" y="395" type="line"/>
			<point x="100.353" y="316.412"/>
			<point x="80.706" y="237.824"/>
			<point x="61" y="159" type="curve" smooth="yes"/>
			<point x="55" y="134"/>
			<point x="46" y="98"/>
			<point x="46" y="85" type="curve" smooth="yes"/>
			<point x="46" y="26"/>
			<point x="96" y="-10"/>
			<point x="153" y="-10" type="curve" smooth="yes"/>
			<point x="264" y="-10"/>
			<point x="327" y="130"/>
			<point x="327" y="143" type="curve" smooth="yes"/>
			<point x="327" y="156"/>
			<point x="314" y="156"/>
			<point x="311" y="156" type="curve" smooth="yes"/>
			<point x="299" y="156"/>
			<point x="298" y="154"/>
			<point x="290" y="137" type="curve" smooth="yes"/>
			<point x="262" y="74"/>
			<point x="211" y="18"/>
			<point x="156" y="18" type="curve" smooth="yes"/>
			<point x="135" y="18"/>
			<point x="121" y="31"/>
			<point x="121" y="67" type="curve" smooth="yes"/>
			<point x="121" y="77"/>
			<point x="125" y="98"/>
			<point x="127" y="108" type="curve" smooth="yes"/>
		</contour>
	</outline>
</glyph>
